<svg xmlns="http://www.w3.org/2000/svg" viewBox="0 49 260 72"><g id="sil" fill="currentColor">
<path d="M14.0 98.0 L126.9 109.0 L133.1 109.0 L246.0 98.0 L246.0 100.0 L133.1 114.0 L126.9 114.0 L14.0 100.0 Z"/>
<path d="M90.6 106.2 L93.8 106.2 L93.8 113.0 L90.6 113.0 Z"/>
<path d="M97.2 113.0 L97.1 113.8 L97.0 114.6 L96.7 115.3 L96.3 116.0 L95.7 116.6 L95.1 117.1 L94.5 117.5 L93.8 117.8 L93.0 118.0 L92.2 118.0 L91.4 118.0 L90.7 117.8 L89.9 117.5 L89.3 117.1 L88.7 116.6 L88.2 116.0 L87.8 115.3 L87.5 114.6 L87.3 113.8 L87.2 113.0 L87.3 112.3 L87.5 111.5 L87.8 110.8 L88.2 110.1 L88.7 109.5 L89.3 109.0 L89.9 108.6 L90.7 108.3 L91.4 108.1 L92.2 108.0 L93.0 108.1 L93.8 108.3 L94.5 108.6 L95.1 109.0 L95.7 109.5 L96.3 110.1 L96.7 110.8 L97.0 111.5 L97.1 112.3 Z M95.0 113.0 L94.9 113.8 L94.6 114.4 L94.2 115.0 L93.6 115.4 L92.9 115.7 L92.2 115.8 L91.5 115.7 L90.8 115.4 L90.3 115.0 L89.8 114.4 L89.6 113.8 L89.5 113.0 L89.6 112.3 L89.8 111.7 L90.3 111.1 L90.8 110.7 L91.5 110.4 L92.2 110.3 L92.9 110.4 L93.6 110.7 L94.2 111.1 L94.6 111.7 L94.9 112.3 Z" fill-rule="evenodd"/>
<path d="M166.2 106.2 L169.4 106.2 L169.4 113.0 L166.2 113.0 Z"/>
<path d="M172.8 113.0 L172.7 113.8 L172.5 114.6 L172.2 115.3 L171.8 116.0 L171.3 116.6 L170.7 117.1 L170.1 117.5 L169.3 117.8 L168.6 118.0 L167.8 118.0 L167.0 118.0 L166.2 117.8 L165.5 117.5 L164.9 117.1 L164.3 116.6 L163.7 116.0 L163.3 115.3 L163.0 114.6 L162.9 113.8 L162.8 113.0 L162.9 112.3 L163.0 111.5 L163.3 110.8 L163.7 110.1 L164.3 109.5 L164.9 109.0 L165.5 108.6 L166.2 108.3 L167.0 108.1 L167.8 108.0 L168.6 108.1 L169.3 108.3 L170.1 108.6 L170.7 109.0 L171.3 109.5 L171.8 110.1 L172.2 110.8 L172.5 111.5 L172.7 112.3 Z M170.5 113.0 L170.4 113.8 L170.2 114.4 L169.7 115.0 L169.2 115.4 L168.5 115.7 L167.8 115.8 L167.1 115.7 L166.4 115.4 L165.8 115.0 L165.4 114.4 L165.1 113.8 L165.0 113.0 L165.1 112.3 L165.4 111.7 L165.8 111.1 L166.4 110.7 L167.1 110.4 L167.8 110.3 L168.5 110.4 L169.2 110.7 L169.7 111.1 L170.2 111.7 L170.4 112.3 Z" fill-rule="evenodd"/>
<path d="M54.7 102.8 L57.9 102.8 L57.9 108.4 L54.7 108.4 Z"/>
<path d="M60.9 108.4 L60.8 109.1 L60.7 109.8 L60.4 110.5 L60.0 111.1 L59.5 111.7 L59.0 112.1 L58.4 112.5 L57.7 112.8 L57.0 113.0 L56.3 113.0 L55.6 113.0 L54.9 112.8 L54.2 112.5 L53.6 112.1 L53.0 111.7 L52.6 111.1 L52.2 110.5 L51.9 109.8 L51.7 109.1 L51.7 108.4 L51.7 107.7 L51.9 107.0 L52.2 106.3 L52.6 105.7 L53.0 105.2 L53.6 104.7 L54.2 104.3 L54.9 104.0 L55.6 103.9 L56.3 103.8 L57.0 103.9 L57.7 104.0 L58.4 104.3 L59.0 104.7 L59.5 105.2 L60.0 105.7 L60.4 106.3 L60.7 107.0 L60.8 107.7 Z M58.8 108.4 L58.7 109.1 L58.5 109.7 L58.1 110.2 L57.5 110.6 L56.9 110.9 L56.3 110.9 L55.6 110.9 L55.0 110.6 L54.5 110.2 L54.1 109.7 L53.8 109.1 L53.7 108.4 L53.8 107.8 L54.1 107.1 L54.5 106.6 L55.0 106.2 L55.6 106.0 L56.3 105.9 L56.9 106.0 L57.5 106.2 L58.1 106.6 L58.5 107.1 L58.7 107.8 Z" fill-rule="evenodd"/>
<path d="M202.1 102.8 L205.3 102.8 L205.3 108.4 L202.1 108.4 Z"/>
<path d="M208.3 108.4 L208.3 109.1 L208.1 109.8 L207.8 110.5 L207.4 111.1 L207.0 111.7 L206.4 112.1 L205.8 112.5 L205.1 112.8 L204.4 113.0 L203.7 113.0 L203.0 113.0 L202.3 112.8 L201.6 112.5 L201.0 112.1 L200.5 111.7 L200.0 111.1 L199.6 110.5 L199.3 109.8 L199.2 109.1 L199.1 108.4 L199.2 107.7 L199.3 107.0 L199.6 106.3 L200.0 105.7 L200.5 105.2 L201.0 104.7 L201.6 104.3 L202.3 104.0 L203.0 103.9 L203.7 103.8 L204.4 103.9 L205.1 104.0 L205.8 104.3 L206.4 104.7 L207.0 105.2 L207.4 105.7 L207.8 106.3 L208.1 107.0 L208.3 107.7 Z M206.3 108.4 L206.2 109.1 L205.9 109.7 L205.5 110.2 L205.0 110.6 L204.4 110.9 L203.7 110.9 L203.1 110.9 L202.5 110.6 L201.9 110.2 L201.5 109.7 L201.3 109.1 L201.2 108.4 L201.3 107.8 L201.5 107.1 L201.9 106.6 L202.5 106.2 L203.1 106.0 L203.7 105.9 L204.4 106.0 L205.0 106.2 L205.5 106.6 L205.9 107.1 L206.2 107.8 Z" fill-rule="evenodd"/>
<path d="M126.8 105.0 L128.7 52.4 L131.3 52.4 L133.2 105.0 Z"/>
<path d="M140.3 105.0 L140.2 106.6 L139.8 108.2 L139.2 109.7 L138.3 111.1 L137.3 112.3 L136.1 113.3 L134.7 114.2 L133.2 114.8 L131.6 115.2 L130.0 115.3 L128.4 115.2 L126.8 114.8 L125.3 114.2 L123.9 113.3 L122.7 112.3 L121.7 111.1 L120.8 109.7 L120.2 108.2 L119.8 106.6 L119.7 105.0 L119.8 103.4 L120.2 101.8 L120.8 100.3 L121.7 98.9 L122.7 97.7 L123.9 96.7 L125.3 95.8 L126.8 95.2 L128.4 94.8 L130.0 94.7 L131.6 94.8 L133.2 95.2 L134.7 95.8 L136.1 96.7 L137.3 97.7 L138.3 98.9 L139.2 100.3 L139.8 101.8 L140.2 103.4 Z M124.6 104.6 L135.4 104.6 L135.4 106.4 L124.6 106.4 Z" fill-rule="evenodd"/>
</g></svg>
