<svg xmlns="http://www.w3.org/2000/svg" viewBox="0 42 260 79"><g id="sil" fill="currentColor">
<path d="M15.5 96.9 L126.7 107.9 L133.3 107.9 L244.5 96.9 L244.5 98.9 L133.3 112.9 L126.7 112.9 L15.5 98.9 Z"/>
<path d="M15.5 96.9 L14.0 87.9 L18.0 87.9 L20.0 98.9 Z"/>
<path d="M244.5 96.9 L246.0 87.9 L242.0 87.9 L240.0 98.9 Z"/>
<path d="M82.9 104.3 L86.1 104.3 L86.1 111.8 L82.9 111.8 Z"/>
<path d="M90.7 111.8 L90.6 112.8 L90.3 113.7 L90.0 114.6 L89.5 115.5 L88.8 116.2 L88.1 116.8 L87.3 117.3 L86.4 117.7 L85.4 117.9 L84.5 118.0 L83.5 117.9 L82.5 117.7 L81.6 117.3 L80.8 116.8 L80.1 116.2 L79.4 115.5 L78.9 114.6 L78.6 113.7 L78.3 112.8 L78.3 111.8 L78.3 110.8 L78.6 109.9 L78.9 109.0 L79.4 108.2 L80.1 107.4 L80.8 106.8 L81.6 106.3 L82.5 105.9 L83.5 105.7 L84.5 105.6 L85.4 105.7 L86.4 105.9 L87.3 106.3 L88.1 106.8 L88.8 107.4 L89.5 108.2 L90.0 109.0 L90.3 109.9 L90.6 110.8 Z M87.9 111.8 L87.7 112.7 L87.4 113.5 L86.9 114.2 L86.2 114.8 L85.3 115.1 L84.5 115.2 L83.6 115.1 L82.7 114.8 L82.0 114.2 L81.5 113.5 L81.2 112.7 L81.0 111.8 L81.2 110.9 L81.5 110.1 L82.0 109.4 L82.7 108.9 L83.6 108.5 L84.5 108.4 L85.3 108.5 L86.2 108.9 L86.9 109.4 L87.4 110.1 L87.7 110.9 Z" fill-rule="evenodd"/>
<path d="M173.9 104.3 L177.1 104.3 L177.1 111.8 L173.9 111.8 Z"/>
<path d="M181.7 111.8 L181.7 112.8 L181.4 113.7 L181.1 114.6 L180.6 115.5 L179.9 116.2 L179.2 116.8 L178.4 117.3 L177.5 117.7 L176.5 117.9 L175.5 118.0 L174.6 117.9 L173.6 117.7 L172.7 117.3 L171.9 116.8 L171.2 116.2 L170.5 115.5 L170.0 114.6 L169.7 113.7 L169.4 112.8 L169.3 111.8 L169.4 110.8 L169.7 109.9 L170.0 109.0 L170.5 108.2 L171.2 107.4 L171.9 106.8 L172.7 106.3 L173.6 105.9 L174.6 105.7 L175.5 105.6 L176.5 105.7 L177.5 105.9 L178.4 106.3 L179.2 106.8 L179.9 107.4 L180.6 108.2 L181.1 109.0 L181.4 109.9 L181.7 110.8 Z M179.0 111.8 L178.8 112.7 L178.5 113.5 L178.0 114.2 L177.3 114.8 L176.4 115.1 L175.5 115.2 L174.7 115.1 L173.8 114.8 L173.1 114.2 L172.6 113.5 L172.3 112.7 L172.1 111.8 L172.3 110.9 L172.6 110.1 L173.1 109.4 L173.8 108.9 L174.7 108.5 L175.5 108.4 L176.4 108.5 L177.3 108.9 L178.0 109.4 L178.5 110.1 L178.8 110.9 Z" fill-rule="evenodd"/>
<path d="M126.7 104.9 L128.7 45.3 L131.3 45.3 L133.3 104.9 Z"/>
<path d="M154.2 95.6 L153.9 98.8 L153.1 102.0 L151.6 105.0 L149.6 107.8 L147.1 110.2 L144.2 112.4 L141.0 114.1 L137.5 115.3 L133.8 116.1 L130.0 116.3 L126.2 116.1 L122.5 115.3 L119.0 114.1 L115.8 112.4 L112.9 110.2 L110.4 107.8 L108.4 105.0 L106.9 102.0 L106.1 98.8 L105.8 95.6 L106.1 92.3 L106.9 89.1 L108.4 86.1 L110.4 83.3 L112.9 80.9 L115.8 78.7 L119.0 77.0 L122.5 75.8 L126.2 75.0 L130.0 74.8 L133.8 75.0 L137.5 75.8 L141.0 77.0 L144.2 78.7 L147.1 80.9 L149.6 83.3 L151.6 86.1 L153.1 89.1 L153.9 92.3 Z"/>
<path d="M140.8 104.9 L140.7 106.6 L140.3 108.3 L139.7 109.8 L138.8 111.3 L137.7 112.6 L136.4 113.7 L134.9 114.6 L133.4 115.2 L131.7 115.6 L130.0 115.7 L128.3 115.6 L126.6 115.2 L125.1 114.6 L123.6 113.7 L122.3 112.6 L121.2 111.3 L120.3 109.8 L119.7 108.3 L119.3 106.6 L119.2 104.9 L119.3 103.2 L119.7 101.5 L120.3 100.0 L121.2 98.5 L122.3 97.2 L123.6 96.1 L125.1 95.2 L126.6 94.6 L128.3 94.2 L130.0 94.1 L131.7 94.2 L133.4 94.6 L134.9 95.2 L136.4 96.1 L137.7 97.2 L138.8 98.5 L139.7 100.0 L140.3 101.5 L140.7 103.2 Z" fill-rule="evenodd"/>
</g></svg>
