<svg xmlns="http://www.w3.org/2000/svg" viewBox="0 44 260 77"><g id="sil" fill="currentColor">
<path d="M16.0 95.1 L126.9 106.1 L133.1 106.1 L244.0 95.1 L244.0 97.3 L133.1 111.6 L126.9 111.6 L16.0 97.3 Z"/>
<path d="M16.5 91.1 L14.0 91.1 L14.0 100.3 L16.5 100.3 Z"/>
<path d="M243.5 91.1 L246.0 91.1 L246.0 100.3 L243.5 100.3 Z"/>
<path d="M88.4 103.0 L91.6 103.0 L91.6 111.4 L88.4 111.4 Z"/>
<path d="M96.6 111.4 L96.6 112.4 L96.3 113.4 L95.9 114.4 L95.4 115.2 L94.7 116.0 L93.9 116.7 L93.0 117.2 L92.1 117.6 L91.1 117.9 L90.0 118.0 L89.0 117.9 L88.0 117.6 L87.0 117.2 L86.2 116.7 L85.4 116.0 L84.7 115.2 L84.2 114.4 L83.8 113.4 L83.5 112.4 L83.4 111.4 L83.5 110.3 L83.8 109.3 L84.2 108.4 L84.7 107.5 L85.4 106.7 L86.2 106.0 L87.0 105.5 L88.0 105.1 L89.0 104.8 L90.0 104.8 L91.1 104.8 L92.1 105.1 L93.0 105.5 L93.9 106.0 L94.7 106.7 L95.4 107.5 L95.9 108.4 L96.3 109.3 L96.6 110.3 Z M93.7 111.4 L93.5 112.3 L93.2 113.2 L92.6 113.9 L91.9 114.5 L91.0 114.9 L90.0 115.0 L89.1 114.9 L88.2 114.5 L87.5 113.9 L86.9 113.2 L86.5 112.3 L86.4 111.4 L86.5 110.4 L86.9 109.5 L87.5 108.8 L88.2 108.2 L89.1 107.9 L90.0 107.7 L91.0 107.9 L91.9 108.2 L92.6 108.8 L93.2 109.5 L93.5 110.4 Z" fill-rule="evenodd"/>
<path d="M168.4 103.0 L171.6 103.0 L171.6 111.4 L168.4 111.4 Z"/>
<path d="M176.6 111.4 L176.5 112.4 L176.2 113.4 L175.8 114.4 L175.3 115.2 L174.6 116.0 L173.8 116.7 L173.0 117.2 L172.0 117.6 L171.0 117.9 L170.0 118.0 L168.9 117.9 L167.9 117.6 L167.0 117.2 L166.1 116.7 L165.3 116.0 L164.6 115.2 L164.1 114.4 L163.7 113.4 L163.4 112.4 L163.4 111.4 L163.4 110.3 L163.7 109.3 L164.1 108.4 L164.6 107.5 L165.3 106.7 L166.1 106.0 L167.0 105.5 L167.9 105.1 L168.9 104.8 L170.0 104.8 L171.0 104.8 L172.0 105.1 L173.0 105.5 L173.8 106.0 L174.6 106.7 L175.3 107.5 L175.8 108.4 L176.2 109.3 L176.5 110.3 Z M173.6 111.4 L173.5 112.3 L173.1 113.2 L172.5 113.9 L171.8 114.5 L170.9 114.9 L170.0 115.0 L169.0 114.9 L168.1 114.5 L167.4 113.9 L166.8 113.2 L166.5 112.3 L166.3 111.4 L166.5 110.4 L166.8 109.5 L167.4 108.8 L168.1 108.2 L169.0 107.9 L170.0 107.7 L170.9 107.9 L171.8 108.2 L172.5 108.8 L173.1 109.5 L173.5 110.4 Z" fill-rule="evenodd"/>
<path d="M52.5 99.6 L55.7 99.6 L55.7 106.4 L52.5 106.4 Z"/>
<path d="M60.0 106.4 L60.0 107.3 L59.7 108.2 L59.4 109.0 L58.9 109.8 L58.3 110.5 L57.6 111.1 L56.8 111.6 L56.0 112.0 L55.1 112.2 L54.1 112.3 L53.2 112.2 L52.3 112.0 L51.5 111.6 L50.7 111.1 L50.0 110.5 L49.4 109.8 L48.9 109.0 L48.5 108.2 L48.3 107.3 L48.2 106.4 L48.3 105.4 L48.5 104.5 L48.9 103.7 L49.4 102.9 L50.0 102.2 L50.7 101.6 L51.5 101.1 L52.3 100.8 L53.2 100.5 L54.1 100.5 L55.1 100.5 L56.0 100.8 L56.8 101.1 L57.6 101.6 L58.3 102.2 L58.9 102.9 L59.4 103.7 L59.7 104.5 L60.0 105.4 Z M57.4 106.4 L57.3 107.2 L56.9 108.0 L56.4 108.7 L55.8 109.2 L55.0 109.5 L54.1 109.6 L53.3 109.5 L52.5 109.2 L51.8 108.7 L51.3 108.0 L51.0 107.2 L50.9 106.4 L51.0 105.5 L51.3 104.7 L51.8 104.1 L52.5 103.6 L53.3 103.2 L54.1 103.1 L55.0 103.2 L55.8 103.6 L56.4 104.1 L56.9 104.7 L57.3 105.5 Z" fill-rule="evenodd"/>
<path d="M204.3 99.6 L207.5 99.6 L207.5 106.4 L204.3 106.4 Z"/>
<path d="M211.8 106.4 L211.7 107.3 L211.5 108.2 L211.1 109.0 L210.6 109.8 L210.0 110.5 L209.3 111.1 L208.5 111.6 L207.7 112.0 L206.8 112.2 L205.9 112.3 L204.9 112.2 L204.0 112.0 L203.2 111.6 L202.4 111.1 L201.7 110.5 L201.1 109.8 L200.6 109.0 L200.3 108.2 L200.0 107.3 L200.0 106.4 L200.0 105.4 L200.3 104.5 L200.6 103.7 L201.1 102.9 L201.7 102.2 L202.4 101.6 L203.2 101.1 L204.0 100.8 L204.9 100.5 L205.9 100.5 L206.8 100.5 L207.7 100.8 L208.5 101.1 L209.3 101.6 L210.0 102.2 L210.6 102.9 L211.1 103.7 L211.5 104.5 L211.7 105.4 Z M209.1 106.4 L209.0 107.2 L208.7 108.0 L208.2 108.7 L207.5 109.2 L206.7 109.5 L205.9 109.6 L205.0 109.5 L204.2 109.2 L203.6 108.7 L203.1 108.0 L202.7 107.2 L202.6 106.4 L202.7 105.5 L203.1 104.7 L203.6 104.1 L204.2 103.6 L205.0 103.2 L205.9 103.1 L206.7 103.2 L207.5 103.6 L208.2 104.1 L208.7 104.7 L209.0 105.5 Z" fill-rule="evenodd"/>
<path d="M126.8 101.1 L128.7 47.9 L131.3 47.9 L133.2 101.1 Z"/>
<path d="M140.4 101.1 L140.3 103.0 L139.9 104.9 L139.3 106.7 L138.4 108.3 L137.3 109.7 L136.1 111.0 L134.7 112.0 L133.2 112.7 L131.6 113.2 L130.0 113.3 L128.4 113.2 L126.8 112.7 L125.3 112.0 L123.9 111.0 L122.7 109.7 L121.6 108.3 L120.7 106.7 L120.1 104.9 L119.7 103.0 L119.6 101.1 L119.7 99.2 L120.1 97.3 L120.7 95.5 L121.6 93.9 L122.7 92.5 L123.9 91.2 L125.3 90.2 L126.8 89.5 L128.4 89.0 L130.0 88.9 L131.6 89.0 L133.2 89.5 L134.7 90.2 L136.1 91.2 L137.3 92.5 L138.4 93.9 L139.3 95.5 L139.9 97.3 L140.3 99.2 Z M124.6 95.7 L135.4 95.7 L135.4 97.5 L124.6 97.5 Z M124.6 102.7 L135.4 102.7 L135.4 104.5 L124.6 104.5 Z" fill-rule="evenodd"/>
</g></svg>
