<svg xmlns="http://www.w3.org/2000/svg" viewBox="0 53 260 68"><g id="sil" fill="currentColor">
<path d="M15.5 94.8 L126.8 106.8 L133.2 106.8 L244.5 94.8 L244.5 96.8 L133.2 112.0 L126.8 112.0 L15.5 96.8 Z"/>
<path d="M15.5 94.8 L14.0 85.8 L18.0 85.8 L20.0 96.8 Z"/>
<path d="M244.5 94.8 L246.0 85.8 L242.0 85.8 L240.0 96.8 Z"/>
<path d="M83.0 102.8 L86.2 102.8 L86.2 111.0 L83.0 111.0 Z"/>
<path d="M91.6 111.0 L91.5 112.1 L91.2 113.2 L90.8 114.2 L90.2 115.1 L89.5 116.0 L88.7 116.7 L87.7 117.3 L86.7 117.7 L85.7 117.9 L84.6 118.0 L83.5 117.9 L82.4 117.7 L81.4 117.3 L80.5 116.7 L79.6 116.0 L78.9 115.1 L78.3 114.2 L77.9 113.2 L77.7 112.1 L77.6 111.0 L77.7 109.9 L77.9 108.9 L78.3 107.8 L78.9 106.9 L79.6 106.1 L80.5 105.4 L81.4 104.8 L82.4 104.4 L83.5 104.1 L84.6 104.0 L85.7 104.1 L86.7 104.4 L87.7 104.8 L88.7 105.4 L89.5 106.1 L90.2 106.9 L90.8 107.8 L91.2 108.9 L91.5 109.9 Z M88.4 111.0 L88.3 112.0 L87.9 113.0 L87.3 113.7 L86.5 114.4 L85.6 114.7 L84.6 114.9 L83.6 114.7 L82.6 114.4 L81.8 113.7 L81.2 113.0 L80.8 112.0 L80.7 111.0 L80.8 110.0 L81.2 109.1 L81.8 108.3 L82.6 107.7 L83.6 107.3 L84.6 107.2 L85.6 107.3 L86.5 107.7 L87.3 108.3 L87.9 109.1 L88.3 110.0 Z" fill-rule="evenodd"/>
<path d="M173.8 102.8 L177.0 102.8 L177.0 111.0 L173.8 111.0 Z"/>
<path d="M182.4 111.0 L182.3 112.1 L182.1 113.2 L181.7 114.2 L181.1 115.1 L180.4 116.0 L179.5 116.7 L178.6 117.3 L177.6 117.7 L176.5 117.9 L175.4 118.0 L174.3 117.9 L173.3 117.7 L172.3 117.3 L171.3 116.7 L170.5 116.0 L169.8 115.1 L169.2 114.2 L168.8 113.2 L168.5 112.1 L168.4 111.0 L168.5 109.9 L168.8 108.9 L169.2 107.8 L169.8 106.9 L170.5 106.1 L171.3 105.4 L172.3 104.8 L173.3 104.4 L174.3 104.1 L175.4 104.0 L176.5 104.1 L177.6 104.4 L178.6 104.8 L179.5 105.4 L180.4 106.1 L181.1 106.9 L181.7 107.8 L182.1 108.9 L182.3 109.9 Z M179.3 111.0 L179.2 112.0 L178.8 113.0 L178.2 113.7 L177.4 114.4 L176.4 114.7 L175.4 114.9 L174.4 114.7 L173.5 114.4 L172.7 113.7 L172.1 113.0 L171.7 112.0 L171.6 111.0 L171.7 110.0 L172.1 109.1 L172.7 108.3 L173.5 107.7 L174.4 107.3 L175.4 107.2 L176.4 107.3 L177.4 107.7 L178.2 108.3 L178.8 109.1 L179.2 110.0 Z" fill-rule="evenodd"/>
<path d="M126.8 102.8 L128.7 56.8 L131.3 56.8 L133.2 102.8 Z"/>
<path d="M140.7 102.8 L140.5 104.5 L140.2 106.2 L139.5 107.8 L138.6 109.2 L137.6 110.5 L136.3 111.6 L134.8 112.5 L133.3 113.2 L131.7 113.6 L130.0 113.7 L128.3 113.6 L126.7 113.2 L125.2 112.5 L123.7 111.6 L122.4 110.5 L121.4 109.2 L120.5 107.8 L119.8 106.2 L119.5 104.5 L119.3 102.8 L119.5 101.1 L119.8 99.4 L120.5 97.8 L121.4 96.4 L122.4 95.1 L123.7 94.0 L125.2 93.1 L126.7 92.4 L128.3 92.0 L130.0 91.9 L131.7 92.0 L133.3 92.4 L134.8 93.1 L136.3 94.0 L137.6 95.1 L138.6 96.4 L139.5 97.8 L140.2 99.4 L140.5 101.1 Z M124.4 102.4 L135.6 102.4 L135.6 104.2 L124.4 104.2 Z" fill-rule="evenodd"/>
</g></svg>
