<svg xmlns="http://www.w3.org/2000/svg" viewBox="0 39 260 82"><g id="sil" fill="currentColor">
<path d="M16.0 99.0 L126.5 108.0 L133.5 108.0 L244.0 99.0 L244.0 100.7 L133.5 112.2 L126.5 112.2 L16.0 100.7 Z"/>
<path d="M16.5 95.0 L14.0 95.0 L14.0 103.7 L16.5 103.7 Z"/>
<path d="M243.5 95.0 L246.0 95.0 L246.0 103.7 L243.5 103.7 Z"/>
<path d="M83.4 105.2 L86.6 105.2 L86.6 112.0 L83.4 112.0 Z"/>
<path d="M91.0 112.0 L90.9 112.9 L90.7 113.9 L90.4 114.7 L89.9 115.5 L89.3 116.2 L88.5 116.9 L87.7 117.3 L86.9 117.7 L86.0 117.9 L85.0 118.0 L84.1 117.9 L83.2 117.7 L82.3 117.3 L81.5 116.9 L80.8 116.2 L80.2 115.5 L79.7 114.7 L79.3 113.9 L79.1 112.9 L79.0 112.0 L79.1 111.1 L79.3 110.1 L79.7 109.3 L80.2 108.5 L80.8 107.8 L81.5 107.1 L82.3 106.7 L83.2 106.3 L84.1 106.1 L85.0 106.0 L86.0 106.1 L86.9 106.3 L87.7 106.7 L88.5 107.1 L89.3 107.8 L89.9 108.5 L90.4 109.3 L90.7 110.1 L90.9 111.1 Z M88.3 112.0 L88.2 112.9 L87.9 113.6 L87.3 114.3 L86.7 114.9 L85.9 115.2 L85.0 115.3 L84.2 115.2 L83.4 114.9 L82.7 114.3 L82.2 113.6 L81.8 112.9 L81.7 112.0 L81.8 111.1 L82.2 110.3 L82.7 109.7 L83.4 109.1 L84.2 108.8 L85.0 108.7 L85.9 108.8 L86.7 109.1 L87.3 109.7 L87.9 110.3 L88.2 111.1 Z" fill-rule="evenodd"/>
<path d="M173.4 105.2 L176.6 105.2 L176.6 112.0 L173.4 112.0 Z"/>
<path d="M181.0 112.0 L180.9 112.9 L180.7 113.9 L180.3 114.7 L179.8 115.5 L179.2 116.2 L178.5 116.9 L177.7 117.3 L176.8 117.7 L175.9 117.9 L175.0 118.0 L174.0 117.9 L173.1 117.7 L172.3 117.3 L171.5 116.9 L170.7 116.2 L170.1 115.5 L169.6 114.7 L169.3 113.9 L169.1 112.9 L169.0 112.0 L169.1 111.1 L169.3 110.1 L169.6 109.3 L170.1 108.5 L170.7 107.8 L171.5 107.1 L172.3 106.7 L173.1 106.3 L174.0 106.1 L175.0 106.0 L175.9 106.1 L176.8 106.3 L177.7 106.7 L178.5 107.1 L179.2 107.8 L179.8 108.5 L180.3 109.3 L180.7 110.1 L180.9 111.1 Z M178.3 112.0 L178.2 112.9 L177.8 113.6 L177.3 114.3 L176.6 114.9 L175.8 115.2 L175.0 115.3 L174.1 115.2 L173.3 114.9 L172.7 114.3 L172.1 113.6 L171.8 112.9 L171.7 112.0 L171.8 111.1 L172.1 110.3 L172.7 109.7 L173.3 109.1 L174.1 108.8 L175.0 108.7 L175.8 108.8 L176.6 109.1 L177.3 109.7 L177.8 110.3 L178.2 111.1 Z" fill-rule="evenodd"/>
<path d="M126.6 104.0 L128.6 42.0 L131.4 42.0 L133.4 104.0 Z"/>
<path d="M141.6 104.0 L141.4 105.9 L141.0 107.8 L140.3 109.6 L139.4 111.2 L138.2 112.6 L136.8 113.9 L135.3 114.9 L133.6 115.6 L131.8 116.1 L130.0 116.2 L128.2 116.1 L126.4 115.6 L124.7 114.9 L123.2 113.9 L121.8 112.6 L120.6 111.2 L119.7 109.6 L119.0 107.8 L118.6 105.9 L118.4 104.0 L118.6 102.1 L119.0 100.2 L119.7 98.4 L120.6 96.8 L121.8 95.4 L123.2 94.1 L124.7 93.1 L126.4 92.4 L128.2 91.9 L130.0 91.8 L131.8 91.9 L133.6 92.4 L135.3 93.1 L136.8 94.1 L138.2 95.4 L139.4 96.8 L140.3 98.4 L141.0 100.2 L141.4 102.1 Z M124.0 103.5 L136.0 103.5 L136.0 105.3 L124.0 105.3 Z" fill-rule="evenodd"/>
</g></svg>
