<svg xmlns="http://www.w3.org/2000/svg" viewBox="0 54 260 67"><g id="sil" fill="currentColor">
<path d="M15.5 95.4 L126.9 107.4 L133.1 107.4 L244.5 95.4 L244.5 97.4 L133.1 112.6 L126.9 112.6 L15.5 97.4 Z"/>
<path d="M15.5 95.4 L14.0 86.4 L18.0 86.4 L20.0 97.4 Z"/>
<path d="M244.5 95.4 L246.0 86.4 L242.0 86.4 L240.0 97.4 Z"/>
<path d="M83.3 103.5 L86.5 103.5 L86.5 111.4 L83.3 111.4 Z"/>
<path d="M91.5 111.4 L91.4 112.4 L91.1 113.4 L90.8 114.4 L90.2 115.3 L89.5 116.0 L88.8 116.7 L87.9 117.3 L86.9 117.7 L85.9 117.9 L84.9 118.0 L83.8 117.9 L82.8 117.7 L81.9 117.3 L81.0 116.7 L80.2 116.0 L79.5 115.3 L79.0 114.4 L78.6 113.4 L78.4 112.4 L78.3 111.4 L78.4 110.3 L78.6 109.3 L79.0 108.4 L79.5 107.5 L80.2 106.7 L81.0 106.0 L81.9 105.5 L82.8 105.1 L83.8 104.9 L84.9 104.8 L85.9 104.9 L86.9 105.1 L87.9 105.5 L88.8 106.0 L89.5 106.7 L90.2 107.5 L90.8 108.4 L91.1 109.3 L91.4 110.3 Z M88.5 111.4 L88.4 112.3 L88.0 113.2 L87.4 113.9 L86.7 114.5 L85.8 114.9 L84.9 115.0 L83.9 114.9 L83.1 114.5 L82.3 113.9 L81.7 113.2 L81.4 112.3 L81.2 111.4 L81.4 110.4 L81.7 109.6 L82.3 108.8 L83.1 108.2 L83.9 107.9 L84.9 107.7 L85.8 107.9 L86.7 108.2 L87.4 108.8 L88.0 109.6 L88.4 110.4 Z" fill-rule="evenodd"/>
<path d="M173.5 103.5 L176.7 103.5 L176.7 111.4 L173.5 111.4 Z"/>
<path d="M181.7 111.4 L181.6 112.4 L181.4 113.4 L181.0 114.4 L180.5 115.3 L179.8 116.0 L179.0 116.7 L178.1 117.3 L177.2 117.7 L176.2 117.9 L175.1 118.0 L174.1 117.9 L173.1 117.7 L172.1 117.3 L171.2 116.7 L170.5 116.0 L169.8 115.3 L169.2 114.4 L168.9 113.4 L168.6 112.4 L168.5 111.4 L168.6 110.3 L168.9 109.3 L169.2 108.4 L169.8 107.5 L170.5 106.7 L171.2 106.0 L172.1 105.5 L173.1 105.1 L174.1 104.9 L175.1 104.8 L176.2 104.9 L177.2 105.1 L178.1 105.5 L179.0 106.0 L179.8 106.7 L180.5 107.5 L181.0 108.4 L181.4 109.3 L181.6 110.3 Z M178.8 111.4 L178.6 112.3 L178.3 113.2 L177.7 113.9 L176.9 114.5 L176.1 114.9 L175.1 115.0 L174.2 114.9 L173.3 114.5 L172.6 113.9 L172.0 113.2 L171.6 112.3 L171.5 111.4 L171.6 110.4 L172.0 109.6 L172.6 108.8 L173.3 108.2 L174.2 107.9 L175.1 107.7 L176.1 107.9 L176.9 108.2 L177.7 108.8 L178.3 109.6 L178.6 110.4 Z" fill-rule="evenodd"/>
<path d="M126.8 103.4 L128.7 57.1 L131.3 57.1 L133.2 103.4 Z"/>
<path d="M140.2 103.4 L140.1 105.0 L139.7 106.6 L139.1 108.0 L138.3 109.4 L137.2 110.6 L136.0 111.7 L134.6 112.5 L133.2 113.1 L131.6 113.5 L130.0 113.6 L128.4 113.5 L126.8 113.1 L125.4 112.5 L124.0 111.7 L122.8 110.6 L121.7 109.4 L120.9 108.0 L120.3 106.6 L119.9 105.0 L119.8 103.4 L119.9 101.8 L120.3 100.2 L120.9 98.8 L121.7 97.4 L122.8 96.2 L124.0 95.1 L125.4 94.3 L126.8 93.7 L128.4 93.3 L130.0 93.2 L131.6 93.3 L133.2 93.7 L134.6 94.3 L136.0 95.1 L137.2 96.2 L138.3 97.4 L139.1 98.8 L139.7 100.2 L140.1 101.8 Z M124.7 103.0 L135.3 103.0 L135.3 104.8 L124.7 104.8 Z" fill-rule="evenodd"/>
</g></svg>
