<svg xmlns="http://www.w3.org/2000/svg" viewBox="0 42 260 79"><g id="sil" fill="currentColor">
<path d="M15.5 96.9 L126.7 107.9 L133.3 107.9 L244.5 96.9 L244.5 98.9 L133.3 112.9 L126.7 112.9 L15.5 98.9 Z"/>
<path d="M15.5 96.9 L14.0 87.9 L18.0 87.9 L20.0 98.9 Z"/>
<path d="M244.5 96.9 L246.0 87.9 L242.0 87.9 L240.0 98.9 Z"/>
<path d="M82.9 104.3 L86.1 104.3 L86.1 111.8 L82.9 111.8 Z"/>
<path d="M90.7 111.8 L90.6 112.8 L90.3 113.7 L90.0 114.6 L89.5 115.5 L88.8 116.2 L88.1 116.8 L87.3 117.3 L86.4 117.7 L85.4 117.9 L84.5 118.0 L83.5 117.9 L82.5 117.7 L81.6 117.3 L80.8 116.8 L80.1 116.2 L79.4 115.5 L78.9 114.6 L78.6 113.7 L78.3 112.8 L78.3 111.8 L78.3 110.8 L78.6 109.9 L78.9 109.0 L79.4 108.2 L80.1 107.4 L80.8 106.8 L81.6 106.3 L82.5 105.9 L83.5 105.7 L84.5 105.6 L85.4 105.7 L86.4 105.9 L87.3 106.3 L88.1 106.8 L88.8 107.4 L89.5 108.2 L90.0 109.0 L90.3 109.9 L90.6 110.8 Z M87.9 111.8 L87.7 112.7 L87.4 113.5 L86.9 114.2 L86.2 114.8 L85.3 115.1 L84.5 115.2 L83.6 115.1 L82.7 114.8 L82.0 114.2 L81.5 113.5 L81.2 112.7 L81.0 111.8 L81.2 110.9 L81.5 110.1 L82.0 109.4 L82.7 108.9 L83.6 108.5 L84.5 108.4 L85.3 108.5 L86.2 108.9 L86.9 109.4 L87.4 110.1 L87.7 110.9 Z" fill-rule="evenodd"/>
<path d="M173.9 104.3 L177.1 104.3 L177.1 111.8 L173.9 111.8 Z"/>
<path d="M181.7 111.8 L181.7 112.8 L181.4 113.7 L181.1 114.6 L180.6 115.5 L179.9 116.2 L179.2 116.8 L178.4 117.3 L177.5 117.7 L176.5 117.9 L175.5 118.0 L174.6 117.9 L173.6 117.7 L172.7 117.3 L171.9 116.8 L171.2 116.2 L170.5 115.5 L170.0 114.6 L169.7 113.7 L169.4 112.8 L169.3 111.8 L169.4 110.8 L169.7 109.9 L170.0 109.0 L170.5 108.2 L171.2 107.4 L171.9 106.8 L172.7 106.3 L173.6 105.9 L174.6 105.7 L175.5 105.6 L176.5 105.7 L177.5 105.9 L178.4 106.3 L179.2 106.8 L179.9 107.4 L180.6 108.2 L181.1 109.0 L181.4 109.9 L181.7 110.8 Z M179.0 111.8 L178.8 112.7 L178.5 113.5 L178.0 114.2 L177.3 114.8 L176.4 115.1 L175.5 115.2 L174.7 115.1 L173.8 114.8 L173.1 114.2 L172.6 113.5 L172.3 112.7 L172.1 111.8 L172.3 110.9 L172.6 110.1 L173.1 109.4 L173.8 108.9 L174.7 108.5 L175.5 108.4 L176.4 108.5 L177.3 108.9 L178.0 109.4 L178.5 110.1 L178.8 110.9 Z" fill-rule="evenodd"/>
<path d="M127.0 88.0 L128.7 45.3 L131.3 45.3 L133.0 88.0 Z"/>
<path d="M140.7 105.5 L140.6 107.2 L140.2 108.8 L139.5 110.4 L138.7 111.8 L137.6 113.1 L136.3 114.2 L134.9 115.0 L133.3 115.7 L131.7 116.1 L130.0 116.2 L128.3 116.1 L126.7 115.7 L125.1 115.0 L123.7 114.2 L122.4 113.1 L121.3 111.8 L120.5 110.4 L119.8 108.8 L119.4 107.2 L119.3 105.5 L119.4 103.8 L119.8 102.2 L120.5 100.6 L121.3 99.2 L122.4 97.9 L123.7 96.8 L125.1 96.0 L126.7 95.3 L128.3 94.9 L130.0 94.8 L131.7 94.9 L133.3 95.3 L134.9 96.0 L136.3 96.8 L137.6 97.9 L138.7 99.2 L139.5 100.6 L140.2 102.2 L140.6 103.8 Z M123.8 104.2 L136.2 104.2 L136.2 106.8 L123.8 106.8 Z" fill-rule="evenodd"/>
<path d="M140.1 101.9 L141.4 100.3 L142.4 98.7 L143.2 96.8 L143.8 94.9 L144.1 92.9 L144.1 90.9 L143.8 88.9 L143.2 87.0 L142.3 85.2 L141.3 83.5 L139.9 82.0 L138.4 80.7 L136.7 79.6 L134.9 78.8 L133.0 78.2 L131.0 77.9 L129.0 77.9 L127.0 78.2 L125.1 78.8 L123.3 79.6 L121.6 80.7 L120.1 82.0 L118.7 83.5 L117.7 85.2 L116.8 87.0 L116.2 88.9 L115.9 90.9 L115.9 92.9 L116.2 94.9 L116.8 96.8 L117.6 98.7 L118.6 100.3 L119.9 101.9 L119.9 101.9 L119.4 103.8 L119.3 105.7 L119.5 107.6 L120.1 109.5 L121.0 111.2 L122.2 112.8 L123.6 114.1 L125.3 115.1 L127.1 115.8 L129.0 116.2 L131.0 116.2 L132.9 115.8 L134.7 115.1 L136.4 114.1 L137.8 112.8 L139.0 111.2 L139.9 109.5 L140.5 107.6 L140.7 105.7 L140.6 103.8 L140.1 101.9 Z M123.5 100.2 L136.5 100.2 L136.5 102.7 L123.5 102.7 Z" fill-rule="evenodd"/>
</g></svg>
