<svg xmlns="http://www.w3.org/2000/svg" viewBox="0 64 260 56"><g id="sil" fill="currentColor">
<path d="M14.0 96.4 L125.6 107.4 L134.4 107.4 L246.0 96.4 L246.0 98.4 L134.4 112.4 L125.6 112.4 L14.0 98.4 Z"/>
<path d="M80.3 103.6 L83.5 103.6 L83.5 110.9 L80.3 110.9 Z"/>
<path d="M87.9 110.9 L87.9 111.9 L87.7 112.8 L87.3 113.6 L86.8 114.4 L86.2 115.2 L85.5 115.8 L84.7 116.3 L83.8 116.6 L82.9 116.8 L81.9 116.9 L81.0 116.8 L80.1 116.6 L79.2 116.3 L78.4 115.8 L77.7 115.2 L77.1 114.4 L76.6 113.6 L76.2 112.8 L76.0 111.9 L75.9 110.9 L76.0 110.0 L76.2 109.1 L76.6 108.2 L77.1 107.4 L77.7 106.7 L78.4 106.1 L79.2 105.6 L80.1 105.2 L81.0 105.0 L81.9 104.9 L82.9 105.0 L83.8 105.2 L84.7 105.6 L85.5 106.1 L86.2 106.7 L86.8 107.4 L87.3 108.2 L87.7 109.1 L87.9 110.0 Z M85.2 110.9 L85.1 111.8 L84.8 112.6 L84.3 113.3 L83.6 113.8 L82.8 114.1 L81.9 114.2 L81.1 114.1 L80.3 113.8 L79.6 113.3 L79.1 112.6 L78.8 111.8 L78.6 110.9 L78.8 110.1 L79.1 109.3 L79.6 108.6 L80.3 108.1 L81.1 107.7 L81.9 107.6 L82.8 107.7 L83.6 108.1 L84.3 108.6 L84.8 109.3 L85.1 110.1 Z" fill-rule="evenodd"/>
<path d="M176.5 103.6 L179.7 103.6 L179.7 110.9 L176.5 110.9 Z"/>
<path d="M184.1 110.9 L184.0 111.9 L183.8 112.8 L183.4 113.6 L182.9 114.4 L182.3 115.2 L181.6 115.8 L180.8 116.3 L179.9 116.6 L179.0 116.8 L178.1 116.9 L177.1 116.8 L176.2 116.6 L175.3 116.3 L174.5 115.8 L173.8 115.2 L173.2 114.4 L172.7 113.6 L172.3 112.8 L172.1 111.9 L172.1 110.9 L172.1 110.0 L172.3 109.1 L172.7 108.2 L173.2 107.4 L173.8 106.7 L174.5 106.1 L175.3 105.6 L176.2 105.2 L177.1 105.0 L178.1 104.9 L179.0 105.0 L179.9 105.2 L180.8 105.6 L181.6 106.1 L182.3 106.7 L182.9 107.4 L183.4 108.2 L183.8 109.1 L184.0 110.0 Z M181.4 110.9 L181.2 111.8 L180.9 112.6 L180.4 113.3 L179.7 113.8 L178.9 114.1 L178.1 114.2 L177.2 114.1 L176.4 113.8 L175.7 113.3 L175.2 112.6 L174.9 111.8 L174.8 110.9 L174.9 110.1 L175.2 109.3 L175.7 108.6 L176.4 108.1 L177.2 107.7 L178.1 107.6 L178.9 107.7 L179.7 108.1 L180.4 108.6 L180.9 109.3 L181.2 110.1 Z" fill-rule="evenodd"/>
<path d="M126.1 103.4 L128.4 67 L131.6 67 L133.9 103.4 Z"/>
<path d="M144.6 103.4 L144.4 105.7 L143.9 107.9 L143.0 110.0 L141.8 112.0 L140.3 113.7 L138.6 115.2 L136.6 116.4 L134.5 117.3 L132.3 117.8 L130.0 118.0 L127.7 117.8 L125.5 117.3 L123.4 116.4 L121.4 115.2 L119.7 113.7 L118.2 112.0 L117.0 110.0 L116.1 107.9 L115.6 105.7 L115.4 103.4 L115.6 101.1 L116.1 98.9 L117.0 96.8 L118.2 94.8 L119.7 93.1 L121.4 91.6 L123.4 90.4 L125.5 89.5 L127.7 89.0 L130.0 88.8 L132.3 89.0 L134.5 89.5 L136.6 90.4 L138.6 91.6 L140.3 93.1 L141.8 94.8 L143.0 96.8 L143.9 98.9 L144.4 101.1 Z M122.4 103.0 L137.6 103.0 L137.6 104.8 L122.4 104.8 Z" fill-rule="evenodd"/>
</g></svg>
