<svg xmlns="http://www.w3.org/2000/svg" viewBox="0 67 260 54"><g id="sil" fill="currentColor">
<path d="M14.0 109.4 L127.5 101.4 L132.5 101.4 L246.0 109.4 L246.0 111.6 L132.5 107.0 L127.5 107.0 L14.0 111.6 Z"/>
<path d="M98.5 104.3 L101.7 104.3 L101.7 111.8 L98.5 111.8 Z"/>
<path d="M105.1 111.8 L105.0 112.6 L104.8 113.3 L104.5 114.1 L104.1 114.7 L103.6 115.3 L103.0 115.8 L102.4 116.2 L101.6 116.5 L100.9 116.7 L100.1 116.8 L99.3 116.7 L98.5 116.5 L97.8 116.2 L97.1 115.8 L96.5 115.3 L96.0 114.7 L95.6 114.1 L95.3 113.3 L95.1 112.6 L95.1 111.8 L95.1 111.0 L95.3 110.2 L95.6 109.5 L96.0 108.8 L96.5 108.3 L97.1 107.7 L97.8 107.3 L98.5 107.0 L99.3 106.8 L100.1 106.8 L100.9 106.8 L101.6 107.0 L102.4 107.3 L103.0 107.7 L103.6 108.3 L104.1 108.8 L104.5 109.5 L104.8 110.2 L105.0 111.0 Z M102.8 111.8 L102.7 112.5 L102.5 113.2 L102.0 113.7 L101.5 114.2 L100.8 114.4 L100.1 114.5 L99.4 114.4 L98.7 114.2 L98.1 113.7 L97.7 113.2 L97.4 112.5 L97.3 111.8 L97.4 111.1 L97.7 110.4 L98.1 109.8 L98.7 109.4 L99.4 109.1 L100.1 109.0 L100.8 109.1 L101.5 109.4 L102.0 109.8 L102.5 110.4 L102.7 111.1 Z" fill-rule="evenodd"/>
<path d="M158.3 104.3 L161.5 104.3 L161.5 111.8 L158.3 111.8 Z"/>
<path d="M164.9 111.8 L164.9 112.6 L164.7 113.3 L164.4 114.1 L164.0 114.7 L163.5 115.3 L162.9 115.8 L162.2 116.2 L161.5 116.5 L160.7 116.7 L159.9 116.8 L159.1 116.7 L158.4 116.5 L157.6 116.2 L157.0 115.8 L156.4 115.3 L155.9 114.7 L155.5 114.1 L155.2 113.3 L155.0 112.6 L154.9 111.8 L155.0 111.0 L155.2 110.2 L155.5 109.5 L155.9 108.8 L156.4 108.3 L157.0 107.7 L157.6 107.3 L158.4 107.0 L159.1 106.8 L159.9 106.8 L160.7 106.8 L161.5 107.0 L162.2 107.3 L162.9 107.7 L163.5 108.3 L164.0 108.8 L164.4 109.5 L164.7 110.2 L164.9 111.0 Z M162.7 111.8 L162.6 112.5 L162.3 113.2 L161.9 113.7 L161.3 114.2 L160.6 114.4 L159.9 114.5 L159.2 114.4 L158.5 114.2 L158.0 113.7 L157.5 113.2 L157.3 112.5 L157.2 111.8 L157.3 111.1 L157.5 110.4 L158.0 109.8 L158.5 109.4 L159.2 109.1 L159.9 109.0 L160.6 109.1 L161.3 109.4 L161.9 109.8 L162.3 110.4 L162.6 111.1 Z" fill-rule="evenodd"/>
<path d="M74.8 105.9 L78.0 105.9 L78.0 112.6 L74.8 112.6 Z"/>
<path d="M81.2 112.6 L81.1 113.3 L81.0 114.1 L80.7 114.8 L80.3 115.4 L79.8 116.0 L79.2 116.5 L78.6 116.9 L77.9 117.1 L77.2 117.3 L76.4 117.4 L75.7 117.3 L74.9 117.1 L74.2 116.9 L73.6 116.5 L73.0 116.0 L72.5 115.4 L72.1 114.8 L71.8 114.1 L71.7 113.3 L71.6 112.6 L71.7 111.8 L71.8 111.1 L72.1 110.4 L72.5 109.8 L73.0 109.2 L73.6 108.7 L74.2 108.3 L74.9 108.0 L75.7 107.8 L76.4 107.8 L77.2 107.8 L77.9 108.0 L78.6 108.3 L79.2 108.7 L79.8 109.2 L80.3 109.8 L80.7 110.4 L81.0 111.1 L81.1 111.8 Z M79.0 112.6 L79.0 113.3 L78.7 113.9 L78.3 114.4 L77.7 114.9 L77.1 115.1 L76.4 115.2 L75.7 115.1 L75.1 114.9 L74.5 114.4 L74.1 113.9 L73.9 113.3 L73.8 112.6 L73.9 111.9 L74.1 111.3 L74.5 110.7 L75.1 110.3 L75.7 110.0 L76.4 109.9 L77.1 110.0 L77.7 110.3 L78.3 110.7 L78.7 111.3 L79.0 111.9 Z" fill-rule="evenodd"/>
<path d="M182.0 105.9 L185.2 105.9 L185.2 112.6 L182.0 112.6 Z"/>
<path d="M188.4 112.6 L188.3 113.3 L188.2 114.1 L187.9 114.8 L187.5 115.4 L187.0 116.0 L186.4 116.5 L185.8 116.9 L185.1 117.1 L184.3 117.3 L183.6 117.4 L182.8 117.3 L182.1 117.1 L181.4 116.9 L180.8 116.5 L180.2 116.0 L179.7 115.4 L179.3 114.8 L179.0 114.1 L178.9 113.3 L178.8 112.6 L178.9 111.8 L179.0 111.1 L179.3 110.4 L179.7 109.8 L180.2 109.2 L180.8 108.7 L181.4 108.3 L182.1 108.0 L182.8 107.8 L183.6 107.8 L184.3 107.8 L185.1 108.0 L185.8 108.3 L186.4 108.7 L187.0 109.2 L187.5 109.8 L187.9 110.4 L188.2 111.1 L188.3 111.8 Z M186.2 112.6 L186.1 113.3 L185.9 113.9 L185.5 114.4 L184.9 114.9 L184.3 115.1 L183.6 115.2 L182.9 115.1 L182.3 114.9 L181.7 114.4 L181.3 113.9 L181.0 113.3 L181.0 112.6 L181.0 111.9 L181.3 111.3 L181.7 110.7 L182.3 110.3 L182.9 110.0 L183.6 109.9 L184.3 110.0 L184.9 110.3 L185.5 110.7 L185.9 111.3 L186.1 111.9 Z" fill-rule="evenodd"/>
<path d="M51.1 107.5 L54.3 107.5 L54.3 113.4 L51.1 113.4 Z"/>
<path d="M57.3 113.4 L57.3 114.1 L57.1 114.8 L56.8 115.5 L56.5 116.1 L56.0 116.6 L55.4 117.1 L54.8 117.5 L54.2 117.8 L53.5 117.9 L52.7 118.0 L52.0 117.9 L51.3 117.8 L50.6 117.5 L50.0 117.1 L49.5 116.6 L49.0 116.1 L48.6 115.5 L48.4 114.8 L48.2 114.1 L48.1 113.4 L48.2 112.7 L48.4 112.0 L48.6 111.3 L49.0 110.7 L49.5 110.1 L50.0 109.7 L50.6 109.3 L51.3 109.0 L52.0 108.8 L52.7 108.8 L53.5 108.8 L54.2 109.0 L54.8 109.3 L55.4 109.7 L56.0 110.1 L56.5 110.7 L56.8 111.3 L57.1 112.0 L57.3 112.7 Z M55.3 113.4 L55.2 114.0 L54.9 114.6 L54.5 115.2 L54.0 115.6 L53.4 115.8 L52.7 115.9 L52.1 115.8 L51.5 115.6 L50.9 115.2 L50.5 114.6 L50.3 114.0 L50.2 113.4 L50.3 112.7 L50.5 112.1 L50.9 111.6 L51.5 111.2 L52.1 110.9 L52.7 110.8 L53.4 110.9 L54.0 111.2 L54.5 111.6 L54.9 112.1 L55.2 112.7 Z" fill-rule="evenodd"/>
<path d="M205.7 107.5 L208.9 107.5 L208.9 113.4 L205.7 113.4 Z"/>
<path d="M211.9 113.4 L211.8 114.1 L211.6 114.8 L211.4 115.5 L211.0 116.1 L210.5 116.6 L210.0 117.1 L209.4 117.5 L208.7 117.8 L208.0 117.9 L207.3 118.0 L206.5 117.9 L205.8 117.8 L205.2 117.5 L204.6 117.1 L204.0 116.6 L203.5 116.1 L203.2 115.5 L202.9 114.8 L202.7 114.1 L202.7 113.4 L202.7 112.7 L202.9 112.0 L203.2 111.3 L203.5 110.7 L204.0 110.1 L204.6 109.7 L205.2 109.3 L205.8 109.0 L206.5 108.8 L207.3 108.8 L208.0 108.8 L208.7 109.0 L209.4 109.3 L210.0 109.7 L210.5 110.1 L211.0 110.7 L211.4 111.3 L211.6 112.0 L211.8 112.7 Z M209.8 113.4 L209.7 114.0 L209.5 114.6 L209.1 115.2 L208.5 115.6 L207.9 115.8 L207.3 115.9 L206.6 115.8 L206.0 115.6 L205.5 115.2 L205.1 114.6 L204.8 114.0 L204.7 113.4 L204.8 112.7 L205.1 112.1 L205.5 111.6 L206.0 111.2 L206.6 110.9 L207.3 110.8 L207.9 110.9 L208.5 111.2 L209.1 111.6 L209.5 112.1 L209.7 112.7 Z" fill-rule="evenodd"/>
<path d="M101.0 107.4 L102.8 70.5 L105.2 70.5 L107.0 107.4 Z"/>
<path d="M153.0 107.4 L154.8 70.5 L157.2 70.5 L159.0 107.4 Z"/>
<path d="M104.0 103.9 L156.0 103.9 L156.0 106.9 L104.0 106.9 Z"/>
<path d="M138.4 107.4 L138.3 109.0 L138.0 110.5 L137.5 111.9 L136.8 113.3 L135.9 114.5 L134.9 115.5 L133.8 116.3 L132.6 116.9 L131.3 117.3 L130.0 117.4 L128.7 117.3 L127.4 116.9 L126.2 116.3 L125.1 115.5 L124.1 114.5 L123.2 113.3 L122.5 111.9 L122.0 110.5 L121.7 109.0 L121.6 107.4 L121.7 105.8 L122.0 104.3 L122.5 102.9 L123.2 101.5 L124.1 100.3 L125.1 99.3 L126.2 98.5 L127.4 97.9 L128.7 97.5 L130.0 97.4 L131.3 97.5 L132.6 97.9 L133.8 98.5 L134.9 99.3 L135.9 100.3 L136.8 101.5 L137.5 102.9 L138.0 104.3 L138.3 105.8 Z M125.6 104.5 L134.4 104.5 L134.4 106.3 L125.6 106.3 Z" fill-rule="evenodd"/>
</g></svg>
