<svg xmlns="http://www.w3.org/2000/svg" viewBox="0 69 260 52"><g id="sil" fill="currentColor">
<path d="M14.0 106.1 L126.8 100.1 L133.2 100.1 L246.0 106.1 L246.0 108.3 L133.2 105.5 L126.8 105.5 L14.0 108.3 Z"/>
<path d="M100.7 104.1 L100.6 104.8 L100.4 105.5 L100.1 106.2 L99.8 106.8 L99.3 107.3 L98.8 107.8 L98.1 108.2 L97.5 108.5 L96.8 108.6 L96.1 108.7 L95.3 108.6 L94.6 108.5 L94.0 108.2 L93.3 107.8 L92.8 107.3 L92.3 106.8 L92.0 106.2 L91.7 105.5 L91.5 104.8 L91.5 104.1 L91.5 103.4 L91.7 102.7 L92.0 102.0 L92.3 101.4 L92.8 100.8 L93.3 100.4 L94.0 100.0 L94.6 99.7 L95.3 99.5 L96.1 99.5 L96.8 99.5 L97.5 99.7 L98.1 100.0 L98.8 100.4 L99.3 100.8 L99.8 101.4 L100.1 102.0 L100.4 102.7 L100.6 103.4 Z M100.0 104.1 L99.9 105.0 L99.6 105.8 L99.1 106.6 L98.5 107.2 L97.8 107.7 L96.9 107.9 L96.1 108.0 L95.2 107.9 L94.3 107.7 L93.6 107.2 L93.0 106.6 L92.5 105.8 L92.2 105.0 L92.1 104.1 L92.2 103.2 L92.5 102.4 L93.0 101.6 L93.6 101.0 L94.3 100.5 L95.2 100.2 L96.1 100.1 L96.9 100.2 L97.8 100.5 L98.5 101.0 L99.1 101.6 L99.6 102.4 L99.9 103.2 Z" fill-rule="evenodd"/>
<path d="M98.0 104.1 L97.9 104.7 L97.6 105.2 L97.2 105.7 L96.6 105.9 L96.1 106.0 L95.5 105.9 L94.9 105.7 L94.5 105.2 L94.2 104.7 L94.1 104.1 L94.2 103.5 L94.5 103.0 L94.9 102.5 L95.5 102.3 L96.1 102.2 L96.6 102.3 L97.2 102.5 L97.6 103.0 L97.9 103.5 Z"/>
<path d="M168.5 104.1 L168.5 104.8 L168.3 105.5 L168.0 106.2 L167.7 106.8 L167.2 107.3 L166.7 107.8 L166.0 108.2 L165.4 108.5 L164.7 108.6 L163.9 108.7 L163.2 108.6 L162.5 108.5 L161.9 108.2 L161.2 107.8 L160.7 107.3 L160.2 106.8 L159.9 106.2 L159.6 105.5 L159.4 104.8 L159.3 104.1 L159.4 103.4 L159.6 102.7 L159.9 102.0 L160.2 101.4 L160.7 100.8 L161.2 100.4 L161.9 100.0 L162.5 99.7 L163.2 99.5 L163.9 99.5 L164.7 99.5 L165.4 99.7 L166.0 100.0 L166.7 100.4 L167.2 100.8 L167.7 101.4 L168.0 102.0 L168.3 102.7 L168.5 103.4 Z M167.9 104.1 L167.8 105.0 L167.5 105.8 L167.0 106.6 L166.4 107.2 L165.7 107.7 L164.8 107.9 L163.9 108.0 L163.1 107.9 L162.2 107.7 L161.5 107.2 L160.9 106.6 L160.4 105.8 L160.1 105.0 L160.0 104.1 L160.1 103.2 L160.4 102.4 L160.9 101.6 L161.5 101.0 L162.2 100.5 L163.1 100.2 L163.9 100.1 L164.8 100.2 L165.7 100.5 L166.4 101.0 L167.0 101.6 L167.5 102.4 L167.8 103.2 Z" fill-rule="evenodd"/>
<path d="M165.9 104.1 L165.8 104.7 L165.5 105.2 L165.1 105.7 L164.5 105.9 L163.9 106.0 L163.4 105.9 L162.8 105.7 L162.4 105.2 L162.1 104.7 L162.0 104.1 L162.1 103.5 L162.4 103.0 L162.8 102.5 L163.4 102.3 L163.9 102.2 L164.5 102.3 L165.1 102.5 L165.5 103.0 L165.8 103.5 Z"/>
<path d="M68.9 105.3 L68.8 106.0 L68.7 106.6 L68.4 107.3 L68.1 107.9 L67.6 108.4 L67.1 108.8 L66.5 109.2 L65.9 109.5 L65.2 109.6 L64.5 109.7 L63.8 109.6 L63.1 109.5 L62.5 109.2 L61.9 108.8 L61.4 108.4 L60.9 107.9 L60.6 107.3 L60.3 106.6 L60.1 106.0 L60.1 105.3 L60.1 104.6 L60.3 103.9 L60.6 103.3 L60.9 102.7 L61.4 102.2 L61.9 101.7 L62.5 101.4 L63.1 101.1 L63.8 100.9 L64.5 100.9 L65.2 100.9 L65.9 101.1 L66.5 101.4 L67.1 101.7 L67.6 102.2 L68.1 102.7 L68.4 103.3 L68.7 103.9 L68.8 104.6 Z M68.3 105.3 L68.2 106.1 L67.9 106.9 L67.5 107.6 L66.9 108.2 L66.1 108.7 L65.3 109.0 L64.5 109.1 L63.7 109.0 L62.9 108.7 L62.1 108.2 L61.5 107.6 L61.1 106.9 L60.8 106.1 L60.7 105.3 L60.8 104.4 L61.1 103.6 L61.5 102.9 L62.1 102.3 L62.9 101.9 L63.7 101.6 L64.5 101.5 L65.3 101.6 L66.1 101.9 L66.9 102.3 L67.5 102.9 L67.9 103.6 L68.2 104.4 Z" fill-rule="evenodd"/>
<path d="M66.3 105.3 L66.2 105.9 L66.0 106.4 L65.6 106.8 L65.1 107.0 L64.5 107.1 L63.9 107.0 L63.4 106.8 L63.0 106.4 L62.7 105.9 L62.6 105.3 L62.7 104.7 L63.0 104.2 L63.4 103.8 L63.9 103.5 L64.5 103.4 L65.1 103.5 L65.6 103.8 L66.0 104.2 L66.2 104.7 Z"/>
<path d="M199.9 105.3 L199.9 106.0 L199.7 106.6 L199.4 107.3 L199.1 107.9 L198.6 108.4 L198.1 108.8 L197.5 109.2 L196.9 109.5 L196.2 109.6 L195.5 109.7 L194.8 109.6 L194.1 109.5 L193.5 109.2 L192.9 108.8 L192.4 108.4 L191.9 107.9 L191.6 107.3 L191.3 106.6 L191.2 106.0 L191.1 105.3 L191.2 104.6 L191.3 103.9 L191.6 103.3 L191.9 102.7 L192.4 102.2 L192.9 101.7 L193.5 101.4 L194.1 101.1 L194.8 100.9 L195.5 100.9 L196.2 100.9 L196.9 101.1 L197.5 101.4 L198.1 101.7 L198.6 102.2 L199.1 102.7 L199.4 103.3 L199.7 103.9 L199.9 104.6 Z M199.3 105.3 L199.2 106.1 L198.9 106.9 L198.5 107.6 L197.9 108.2 L197.1 108.7 L196.3 109.0 L195.5 109.1 L194.7 109.0 L193.9 108.7 L193.1 108.2 L192.5 107.6 L192.1 106.9 L191.8 106.1 L191.7 105.3 L191.8 104.4 L192.1 103.6 L192.5 102.9 L193.1 102.3 L193.9 101.9 L194.7 101.6 L195.5 101.5 L196.3 101.6 L197.1 101.9 L197.9 102.3 L198.5 102.9 L198.9 103.6 L199.2 104.4 Z" fill-rule="evenodd"/>
<path d="M197.4 105.3 L197.3 105.9 L197.0 106.4 L196.6 106.8 L196.1 107.0 L195.5 107.1 L194.9 107.0 L194.4 106.8 L194.0 106.4 L193.8 105.9 L193.7 105.3 L193.8 104.7 L194.0 104.2 L194.4 103.8 L194.9 103.5 L195.5 103.4 L196.1 103.5 L196.6 103.8 L197.0 104.2 L197.3 104.7 Z"/>
<path d="M105.0 106.1 L106.8 72.9 L109.2 72.9 L111.0 106.1 Z"/>
<path d="M149.0 106.1 L150.8 72.9 L153.2 72.9 L155.0 106.1 Z"/>
<path d="M108.0 102.2 L152.0 102.2 L152.0 105.2 L108.0 105.2 Z"/>
<path d="M140.8 106.1 L140.7 108.0 L140.3 109.8 L139.6 111.5 L138.7 113.1 L137.6 114.5 L136.4 115.7 L134.9 116.7 L133.3 117.4 L131.7 117.8 L130.0 118.0 L128.3 117.8 L126.7 117.4 L125.1 116.7 L123.6 115.7 L122.4 114.5 L121.3 113.1 L120.4 111.5 L119.7 109.8 L119.3 108.0 L119.2 106.1 L119.3 104.2 L119.7 102.4 L120.4 100.7 L121.3 99.1 L122.4 97.7 L123.6 96.5 L125.1 95.5 L126.7 94.8 L128.3 94.4 L130.0 94.2 L131.7 94.4 L133.3 94.8 L134.9 95.5 L136.4 96.5 L137.6 97.7 L138.7 99.1 L139.6 100.7 L140.3 102.4 L140.7 104.2 Z M124.4 103.7 L135.6 103.7 L135.6 105.5 L124.4 105.5 Z" fill-rule="evenodd"/>
</g></svg>
