<svg xmlns="http://www.w3.org/2000/svg" viewBox="0 49 260 72"><g id="sil" fill="currentColor">
<path d="M14.0 108.4 L127.0 100.4 L133.0 100.4 L246.0 108.4 L246.0 110.6 L133.0 106.0 L127.0 106.0 L14.0 110.6 Z"/>
<path d="M92.9 103.7 L96.1 103.7 L96.1 111.2 L92.9 111.2 Z"/>
<path d="M99.7 111.2 L99.6 112.0 L99.4 112.8 L99.1 113.5 L98.7 114.2 L98.1 114.8 L97.5 115.4 L96.8 115.8 L96.1 116.1 L95.3 116.3 L94.5 116.4 L93.6 116.3 L92.9 116.1 L92.1 115.8 L91.4 115.4 L90.8 114.8 L90.3 114.2 L89.8 113.5 L89.5 112.8 L89.3 112.0 L89.3 111.2 L89.3 110.3 L89.5 109.5 L89.8 108.8 L90.3 108.1 L90.8 107.5 L91.4 106.9 L92.1 106.5 L92.9 106.2 L93.6 106.0 L94.5 106.0 L95.3 106.0 L96.1 106.2 L96.8 106.5 L97.5 106.9 L98.1 107.5 L98.7 108.1 L99.1 108.8 L99.4 109.5 L99.6 110.3 Z M97.3 111.2 L97.2 111.9 L96.9 112.6 L96.5 113.2 L95.9 113.6 L95.2 113.9 L94.5 114.0 L93.7 113.9 L93.0 113.6 L92.4 113.2 L92.0 112.6 L91.7 111.9 L91.6 111.2 L91.7 110.4 L92.0 109.7 L92.4 109.1 L93.0 108.7 L93.7 108.4 L94.5 108.3 L95.2 108.4 L95.9 108.7 L96.5 109.1 L96.9 109.7 L97.2 110.4 Z" fill-rule="evenodd"/>
<path d="M163.9 103.7 L167.1 103.7 L167.1 111.2 L163.9 111.2 Z"/>
<path d="M170.7 111.2 L170.7 112.0 L170.5 112.8 L170.2 113.5 L169.7 114.2 L169.2 114.8 L168.6 115.4 L167.9 115.8 L167.1 116.1 L166.4 116.3 L165.5 116.4 L164.7 116.3 L163.9 116.1 L163.2 115.8 L162.5 115.4 L161.9 114.8 L161.3 114.2 L160.9 113.5 L160.6 112.8 L160.4 112.0 L160.3 111.2 L160.4 110.3 L160.6 109.5 L160.9 108.8 L161.3 108.1 L161.9 107.5 L162.5 106.9 L163.2 106.5 L163.9 106.2 L164.7 106.0 L165.5 106.0 L166.4 106.0 L167.1 106.2 L167.9 106.5 L168.6 106.9 L169.2 107.5 L169.7 108.1 L170.2 108.8 L170.5 109.5 L170.7 110.3 Z M168.4 111.2 L168.3 111.9 L168.0 112.6 L167.6 113.2 L167.0 113.6 L166.3 113.9 L165.5 114.0 L164.8 113.9 L164.1 113.6 L163.5 113.2 L163.1 112.6 L162.8 111.9 L162.7 111.2 L162.8 110.4 L163.1 109.7 L163.5 109.1 L164.1 108.7 L164.8 108.4 L165.5 108.3 L166.3 108.4 L167.0 108.7 L167.6 109.1 L168.0 109.7 L168.3 110.4 Z" fill-rule="evenodd"/>
<path d="M60.0 105.9 L63.2 105.9 L63.2 112.2 L60.0 112.2 Z"/>
<path d="M66.4 112.2 L66.4 112.9 L66.2 113.7 L65.9 114.3 L65.5 115.0 L65.0 115.6 L64.5 116.1 L63.8 116.4 L63.1 116.7 L62.4 116.9 L61.6 117.0 L60.9 116.9 L60.2 116.7 L59.5 116.4 L58.8 116.1 L58.2 115.6 L57.8 115.0 L57.4 114.3 L57.1 113.7 L56.9 112.9 L56.8 112.2 L56.9 111.4 L57.1 110.7 L57.4 110.0 L57.8 109.3 L58.2 108.8 L58.8 108.3 L59.5 107.9 L60.2 107.6 L60.9 107.4 L61.6 107.4 L62.4 107.4 L63.1 107.6 L63.8 107.9 L64.5 108.3 L65.0 108.8 L65.5 109.3 L65.9 110.0 L66.2 110.7 L66.4 111.4 Z M64.3 112.2 L64.2 112.9 L63.9 113.5 L63.5 114.0 L63.0 114.5 L62.3 114.7 L61.6 114.8 L61.0 114.7 L60.3 114.5 L59.8 114.0 L59.4 113.5 L59.1 112.9 L59.0 112.2 L59.1 111.5 L59.4 110.8 L59.8 110.3 L60.3 109.9 L61.0 109.6 L61.6 109.5 L62.3 109.6 L63.0 109.9 L63.5 110.3 L63.9 110.8 L64.2 111.5 Z" fill-rule="evenodd"/>
<path d="M196.8 105.9 L200.0 105.9 L200.0 112.2 L196.8 112.2 Z"/>
<path d="M203.2 112.2 L203.1 112.9 L202.9 113.7 L202.6 114.3 L202.2 115.0 L201.8 115.6 L201.2 116.1 L200.5 116.4 L199.8 116.7 L199.1 116.9 L198.4 117.0 L197.6 116.9 L196.9 116.7 L196.2 116.4 L195.5 116.1 L195.0 115.6 L194.5 115.0 L194.1 114.3 L193.8 113.7 L193.6 112.9 L193.6 112.2 L193.6 111.4 L193.8 110.7 L194.1 110.0 L194.5 109.3 L195.0 108.8 L195.5 108.3 L196.2 107.9 L196.9 107.6 L197.6 107.4 L198.4 107.4 L199.1 107.4 L199.8 107.6 L200.5 107.9 L201.2 108.3 L201.8 108.8 L202.2 109.3 L202.6 110.0 L202.9 110.7 L203.1 111.4 Z M201.0 112.2 L200.9 112.9 L200.6 113.5 L200.2 114.0 L199.7 114.5 L199.0 114.7 L198.4 114.8 L197.7 114.7 L197.0 114.5 L196.5 114.0 L196.1 113.5 L195.8 112.9 L195.7 112.2 L195.8 111.5 L196.1 110.8 L196.5 110.3 L197.0 109.9 L197.7 109.6 L198.4 109.5 L199.0 109.6 L199.7 109.9 L200.2 110.3 L200.6 110.8 L200.9 111.5 Z" fill-rule="evenodd"/>
<path d="M126.8 106.4 L128.7 52.2 L131.3 52.2 L133.2 106.4 Z"/>
<path d="M140.1 106.4 L140.0 108.2 L139.6 110.0 L139.0 111.6 L138.2 113.2 L137.2 114.6 L136.0 115.7 L134.6 116.7 L133.1 117.4 L131.6 117.8 L130.0 118.0 L128.4 117.8 L126.9 117.4 L125.4 116.7 L124.0 115.7 L122.8 114.6 L121.8 113.2 L121.0 111.6 L120.4 110.0 L120.0 108.2 L119.9 106.4 L120.0 104.6 L120.4 102.8 L121.0 101.2 L121.8 99.6 L122.8 98.2 L124.0 97.1 L125.4 96.1 L126.9 95.4 L128.4 95.0 L130.0 94.8 L131.6 95.0 L133.1 95.4 L134.6 96.1 L136.0 97.1 L137.2 98.2 L138.2 99.6 L139.0 101.2 L139.6 102.8 L140.0 104.6 Z M124.7 103.5 L135.3 103.5 L135.3 105.3 L124.7 105.3 Z" fill-rule="evenodd"/>
</g></svg>
