<svg xmlns="http://www.w3.org/2000/svg" viewBox="0 49 260 72"><g id="sil" fill="currentColor">
<path d="M14.0 101.0 L126.7 99.0 L133.3 99.0 L246.0 101.0 L246.0 103.3 L133.3 103.8 L126.7 103.8 L14.0 103.3 Z"/>
<path d="M106.7 101.6 L106.5 104.0 L106.0 106.3 L105.0 108.5 L103.8 110.5 L102.3 112.3 L100.5 113.8 L98.5 115.0 L96.3 115.9 L94.0 116.5 L91.7 116.6 L89.3 116.5 L87.0 115.9 L84.9 115.0 L82.9 113.8 L81.1 112.3 L79.5 110.5 L78.3 108.5 L77.4 106.3 L76.9 104.0 L76.7 101.6 L76.9 99.3 L77.4 97.0 L78.3 94.8 L79.5 92.8 L81.1 91.0 L82.9 89.5 L84.9 88.3 L87.0 87.4 L89.3 86.8 L91.7 86.6 L94.0 86.8 L96.3 87.4 L98.5 88.3 L100.5 89.5 L102.3 91.0 L103.8 92.8 L105.0 94.8 L106.0 97.0 L106.5 99.3 Z M104.6 101.6 L104.3 104.5 L103.3 107.2 L101.8 109.7 L99.7 111.7 L97.3 113.3 L94.6 114.2 L91.7 114.5 L88.8 114.2 L86.1 113.3 L83.6 111.7 L81.6 109.7 L80.1 107.2 L79.1 104.5 L78.8 101.6 L79.1 98.8 L80.1 96.1 L81.6 93.6 L83.6 91.6 L86.1 90.0 L88.8 89.1 L91.7 88.7 L94.6 89.1 L97.3 90.0 L99.7 91.6 L101.8 93.6 L103.3 96.1 L104.3 98.8 Z" fill-rule="evenodd"/>
<path d="M98.0 101.6 L97.7 103.6 L96.8 105.4 L95.4 106.7 L93.6 107.6 L91.7 107.9 L89.7 107.6 L88.0 106.7 L86.6 105.4 L85.7 103.6 L85.4 101.6 L85.7 99.7 L86.6 97.9 L88.0 96.6 L89.7 95.7 L91.7 95.3 L93.6 95.7 L95.4 96.6 L96.8 97.9 L97.7 99.7 Z"/>
<path d="M183.3 101.6 L183.1 104.0 L182.6 106.3 L181.7 108.5 L180.5 110.5 L178.9 112.3 L177.1 113.8 L175.1 115.0 L173.0 115.9 L170.7 116.5 L168.3 116.6 L166.0 116.5 L163.7 115.9 L161.5 115.0 L159.5 113.8 L157.7 112.3 L156.2 110.5 L155.0 108.5 L154.0 106.3 L153.5 104.0 L153.3 101.6 L153.5 99.3 L154.0 97.0 L155.0 94.8 L156.2 92.8 L157.7 91.0 L159.5 89.5 L161.5 88.3 L163.7 87.4 L166.0 86.8 L168.3 86.6 L170.7 86.8 L173.0 87.4 L175.1 88.3 L177.1 89.5 L178.9 91.0 L180.5 92.8 L181.7 94.8 L182.6 97.0 L183.1 99.3 Z M181.2 101.6 L180.9 104.5 L179.9 107.2 L178.4 109.7 L176.4 111.7 L173.9 113.3 L171.2 114.2 L168.3 114.5 L165.4 114.2 L162.7 113.3 L160.3 111.7 L158.2 109.7 L156.7 107.2 L155.7 104.5 L155.4 101.6 L155.7 98.8 L156.7 96.1 L158.2 93.6 L160.3 91.6 L162.7 90.0 L165.4 89.1 L168.3 88.7 L171.2 89.1 L173.9 90.0 L176.4 91.6 L178.4 93.6 L179.9 96.1 L180.9 98.8 Z" fill-rule="evenodd"/>
<path d="M174.6 101.6 L174.3 103.6 L173.4 105.4 L172.0 106.7 L170.3 107.6 L168.3 107.9 L166.4 107.6 L164.6 106.7 L163.2 105.4 L162.3 103.6 L162.0 101.6 L162.3 99.7 L163.2 97.9 L164.6 96.6 L166.4 95.7 L168.3 95.3 L170.3 95.7 L172.0 96.6 L173.4 97.9 L174.3 99.7 Z"/>
<path d="M126.8 107.0 L128.7 52.4 L131.3 52.4 L133.2 107.0 Z"/>
<path d="M114.0 52.4 L146.0 52.4 L146.0 55.4 L114.0 55.4 Z"/>
<path d="M141.0 107.0 L140.9 108.7 L140.5 110.4 L139.8 112.0 L138.9 113.5 L137.8 114.8 L136.5 115.9 L135.0 116.8 L133.4 117.5 L131.7 117.9 L130.0 118.0 L128.3 117.9 L126.6 117.5 L125.0 116.8 L123.5 115.9 L122.2 114.8 L121.1 113.5 L120.2 112.0 L119.5 110.4 L119.1 108.7 L119.0 107.0 L119.1 105.3 L119.5 103.6 L120.2 102.0 L121.1 100.5 L122.2 99.2 L123.5 98.1 L125.0 97.2 L126.6 96.5 L128.3 96.1 L130.0 96.0 L131.7 96.1 L133.4 96.5 L135.0 97.2 L136.5 98.1 L137.8 99.2 L138.9 100.5 L139.8 102.0 L140.5 103.6 L140.9 105.3 Z M124.3 105.5 L135.7 105.5 L135.7 107.3 L124.3 107.3 Z" fill-rule="evenodd"/>
</g></svg>
