<svg xmlns="http://www.w3.org/2000/svg" viewBox="0 68 260 53"><g id="sil" fill="currentColor">
<path d="M14.0 108.8 L126.5 102.6 L133.5 102.6 L246.0 108.8 L246.0 111.1 L133.5 107.6 L126.5 107.6 L14.0 111.1 Z"/>
<path d="M106.4 104.8 L109.6 104.8 L109.6 113.1 L106.4 113.1 Z"/>
<path d="M101.2 108.2 L114.7 108.2 L114.7 118.0 L101.2 118.0 L102.8 110.5 L113.1 110.5 L113.1 115.9 L102.8 115.9 Z"/>
<path d="M150.4 104.8 L153.6 104.8 L153.6 113.1 L150.4 113.1 Z"/>
<path d="M145.3 108.2 L158.8 108.2 L158.8 118.0 L145.3 118.0 L146.9 110.5 L157.2 110.5 L157.2 115.9 L146.9 115.9 Z"/>
<path d="M90.8 100.1 L86.0 71.4 L90.6 71.4 L102.2 100.1 Z"/>
<path d="M157.8 100.1 L169.4 71.4 L174.0 71.4 L169.2 100.1 Z"/>
<path d="M115.0 94.9 L145.0 94.9 L145.0 98.7 L115.0 98.7 Z"/>
<path d="M145.1 100.1 L144.9 102.6 L144.3 105.1 L143.4 107.5 L142.2 109.7 L140.7 111.6 L138.8 113.4 L136.9 114.6 L134.7 115.6 L132.3 116.2 L130.0 116.4 L127.7 116.2 L125.3 115.6 L123.1 114.6 L121.2 113.4 L119.3 111.6 L117.8 109.7 L116.6 107.5 L115.7 105.1 L115.0 102.6 L114.9 100.1 L115.0 97.6 L115.7 95.1 L116.6 92.7 L117.8 90.4 L119.3 88.5 L121.2 86.8 L123.1 85.5 L125.3 84.5 L127.7 83.9 L130.0 83.8 L132.3 83.9 L134.7 84.5 L136.9 85.5 L138.8 86.8 L140.7 88.5 L142.2 90.4 L143.4 92.7 L144.3 95.1 L144.9 97.6 Z"/>
</g></svg>