<svg xmlns="http://www.w3.org/2000/svg" viewBox="0 64 260 56"><g id="sil" fill="currentColor">
<path d="M15.5 97.9 L126.4 107.9 L133.6 107.9 L244.5 97.9 L244.5 99.7 L133.6 112.5 L126.4 112.5 L15.5 99.7 Z"/>
<path d="M15.5 97.9 L14.0 88.9 L18.0 88.9 L20.0 99.7 Z"/>
<path d="M244.5 97.9 L246.0 88.9 L242.0 88.9 L240.0 99.7 Z"/>
<path d="M85.1 104.9 L88.3 104.9 L88.3 112.0 L85.1 112.0 Z"/>
<path d="M92.7 112.0 L92.6 112.9 L92.4 113.8 L92.0 114.7 L91.6 115.5 L90.9 116.2 L90.2 116.8 L89.4 117.3 L88.6 117.7 L87.6 117.9 L86.7 118.0 L85.8 117.9 L84.8 117.7 L84.0 117.3 L83.2 116.8 L82.5 116.2 L81.8 115.5 L81.4 114.7 L81.0 113.8 L80.8 112.9 L80.7 112.0 L80.8 111.1 L81.0 110.1 L81.4 109.3 L81.8 108.5 L82.5 107.8 L83.2 107.1 L84.0 106.6 L84.8 106.3 L85.8 106.1 L86.7 106.0 L87.6 106.1 L88.6 106.3 L89.4 106.6 L90.2 107.1 L90.9 107.8 L91.6 108.5 L92.0 109.3 L92.4 110.1 L92.6 111.1 Z M90.0 112.0 L89.9 112.8 L89.6 113.6 L89.0 114.3 L88.4 114.9 L87.6 115.2 L86.7 115.3 L85.8 115.2 L85.1 114.9 L84.4 114.3 L83.8 113.6 L83.5 112.8 L83.4 112.0 L83.5 111.1 L83.8 110.3 L84.4 109.7 L85.1 109.1 L85.8 108.8 L86.7 108.7 L87.6 108.8 L88.4 109.1 L89.0 109.7 L89.6 110.3 L89.9 111.1 Z" fill-rule="evenodd"/>
<path d="M171.7 104.9 L174.9 104.9 L174.9 112.0 L171.7 112.0 Z"/>
<path d="M179.3 112.0 L179.2 112.9 L179.0 113.8 L178.6 114.7 L178.2 115.5 L177.5 116.2 L176.8 116.8 L176.0 117.3 L175.2 117.7 L174.2 117.9 L173.3 118.0 L172.4 117.9 L171.4 117.7 L170.6 117.3 L169.8 116.8 L169.1 116.2 L168.4 115.5 L168.0 114.7 L167.6 113.8 L167.4 112.9 L167.3 112.0 L167.4 111.1 L167.6 110.1 L168.0 109.3 L168.4 108.5 L169.1 107.8 L169.8 107.1 L170.6 106.6 L171.4 106.3 L172.4 106.1 L173.3 106.0 L174.2 106.1 L175.2 106.3 L176.0 106.6 L176.8 107.1 L177.5 107.8 L178.2 108.5 L178.6 109.3 L179.0 110.1 L179.2 111.1 Z M176.6 112.0 L176.5 112.8 L176.2 113.6 L175.6 114.3 L174.9 114.9 L174.2 115.2 L173.3 115.3 L172.4 115.2 L171.6 114.9 L171.0 114.3 L170.4 113.6 L170.1 112.8 L170.0 112.0 L170.1 111.1 L170.4 110.3 L171.0 109.7 L171.6 109.1 L172.4 108.8 L173.3 108.7 L174.2 108.8 L174.9 109.1 L175.6 109.7 L176.2 110.3 L176.5 111.1 Z" fill-rule="evenodd"/>
<path d="M126.4 103.9 L128.6 67 L131.4 67 L133.6 103.9 Z"/>
<path d="M142.1 103.9 L142.0 105.9 L141.5 107.9 L140.8 109.8 L139.8 111.5 L138.6 113.1 L137.1 114.4 L135.5 115.4 L133.8 116.2 L131.9 116.7 L130.0 116.8 L128.1 116.7 L126.2 116.2 L124.5 115.4 L122.9 114.4 L121.4 113.1 L120.2 111.5 L119.2 109.8 L118.5 107.9 L118.0 105.9 L117.9 103.9 L118.0 101.9 L118.5 99.9 L119.2 98.0 L120.2 96.3 L121.4 94.7 L122.9 93.4 L124.5 92.4 L126.2 91.6 L128.1 91.1 L130.0 91.0 L131.9 91.1 L133.8 91.6 L135.5 92.4 L137.1 93.4 L138.6 94.7 L139.8 96.3 L140.8 98.0 L141.5 99.9 L142.0 101.9 Z M123.7 103.5 L136.3 103.5 L136.3 105.3 L123.7 105.3 Z" fill-rule="evenodd"/>
</g></svg>
