<svg xmlns="http://www.w3.org/2000/svg" viewBox="0 37 260 84"><g id="sil" fill="currentColor">
<path d="M14.0 97.4 L126.5 108.4 L133.5 108.4 L246.0 97.4 L246.0 99.4 L133.5 113.6 L126.5 113.6 L14.0 99.4 Z"/>
<path d="M85.4 105.1 L88.6 105.1 L88.6 112.4 L85.4 112.4 Z"/>
<path d="M92.6 112.4 L92.5 113.2 L92.3 114.1 L92.0 114.9 L91.5 115.7 L91.0 116.3 L90.3 116.9 L89.5 117.4 L88.7 117.7 L87.9 117.9 L87.0 118.0 L86.1 117.9 L85.3 117.7 L84.5 117.4 L83.7 116.9 L83.0 116.3 L82.5 115.7 L82.0 114.9 L81.7 114.1 L81.5 113.2 L81.4 112.4 L81.5 111.5 L81.7 110.6 L82.0 109.8 L82.5 109.1 L83.0 108.4 L83.7 107.8 L84.5 107.4 L85.3 107.0 L86.1 106.8 L87.0 106.8 L87.9 106.8 L88.7 107.0 L89.5 107.4 L90.3 107.8 L91.0 108.4 L91.5 109.1 L92.0 109.8 L92.3 110.6 L92.5 111.5 Z M90.1 112.4 L90.0 113.2 L89.7 113.9 L89.2 114.5 L88.5 115.0 L87.8 115.3 L87.0 115.4 L86.2 115.3 L85.5 115.0 L84.8 114.5 L84.3 113.9 L84.0 113.2 L83.9 112.4 L84.0 111.6 L84.3 110.8 L84.8 110.2 L85.5 109.7 L86.2 109.4 L87.0 109.3 L87.8 109.4 L88.5 109.7 L89.2 110.2 L89.7 110.8 L90.0 111.6 Z" fill-rule="evenodd"/>
<path d="M171.4 105.1 L174.6 105.1 L174.6 112.4 L171.4 112.4 Z"/>
<path d="M178.6 112.4 L178.5 113.2 L178.3 114.1 L178.0 114.9 L177.5 115.7 L177.0 116.3 L176.3 116.9 L175.5 117.4 L174.7 117.7 L173.9 117.9 L173.0 118.0 L172.1 117.9 L171.3 117.7 L170.5 117.4 L169.7 116.9 L169.0 116.3 L168.5 115.7 L168.0 114.9 L167.7 114.1 L167.5 113.2 L167.4 112.4 L167.5 111.5 L167.7 110.6 L168.0 109.8 L168.5 109.1 L169.0 108.4 L169.7 107.8 L170.5 107.4 L171.3 107.0 L172.1 106.8 L173.0 106.8 L173.9 106.8 L174.7 107.0 L175.5 107.4 L176.3 107.8 L177.0 108.4 L177.5 109.1 L178.0 109.8 L178.3 110.6 L178.5 111.5 Z M176.1 112.4 L176.0 113.2 L175.7 113.9 L175.2 114.5 L174.5 115.0 L173.8 115.3 L173.0 115.4 L172.2 115.3 L171.5 115.0 L170.8 114.5 L170.3 113.9 L170.0 113.2 L169.9 112.4 L170.0 111.6 L170.3 110.8 L170.8 110.2 L171.5 109.7 L172.2 109.4 L173.0 109.3 L173.8 109.4 L174.5 109.7 L175.2 110.2 L175.7 110.8 L176.0 111.6 Z" fill-rule="evenodd"/>
<path d="M51.0 101.9 L54.2 101.9 L54.2 107.7 L51.0 107.7 Z"/>
<path d="M57.6 107.7 L57.5 108.5 L57.3 109.3 L57.0 110.0 L56.6 110.7 L56.1 111.3 L55.5 111.8 L54.9 112.2 L54.1 112.5 L53.4 112.7 L52.6 112.7 L51.8 112.7 L51.0 112.5 L50.3 112.2 L49.6 111.8 L49.1 111.3 L48.5 110.7 L48.1 110.0 L47.8 109.3 L47.6 108.5 L47.6 107.7 L47.6 106.9 L47.8 106.2 L48.1 105.5 L48.5 104.8 L49.1 104.2 L49.6 103.7 L50.3 103.3 L51.0 103.0 L51.8 102.8 L52.6 102.7 L53.4 102.8 L54.1 103.0 L54.9 103.3 L55.5 103.7 L56.1 104.2 L56.6 104.8 L57.0 105.5 L57.3 106.2 L57.5 106.9 Z M55.3 107.7 L55.2 108.4 L55.0 109.1 L54.5 109.7 L54.0 110.1 L53.3 110.4 L52.6 110.5 L51.9 110.4 L51.2 110.1 L50.6 109.7 L50.2 109.1 L49.9 108.4 L49.8 107.7 L49.9 107.0 L50.2 106.3 L50.6 105.8 L51.2 105.3 L51.9 105.1 L52.6 105.0 L53.3 105.1 L54.0 105.3 L54.5 105.8 L55.0 106.3 L55.2 107.0 Z" fill-rule="evenodd"/>
<path d="M205.8 101.9 L209.0 101.9 L209.0 107.7 L205.8 107.7 Z"/>
<path d="M212.4 107.7 L212.4 108.5 L212.2 109.3 L211.9 110.0 L211.5 110.7 L210.9 111.3 L210.4 111.8 L209.7 112.2 L209.0 112.5 L208.2 112.7 L207.4 112.7 L206.6 112.7 L205.9 112.5 L205.1 112.2 L204.5 111.8 L203.9 111.3 L203.4 110.7 L203.0 110.0 L202.7 109.3 L202.5 108.5 L202.4 107.7 L202.5 106.9 L202.7 106.2 L203.0 105.5 L203.4 104.8 L203.9 104.2 L204.5 103.7 L205.1 103.3 L205.9 103.0 L206.6 102.8 L207.4 102.7 L208.2 102.8 L209.0 103.0 L209.7 103.3 L210.4 103.7 L210.9 104.2 L211.5 104.8 L211.9 105.5 L212.2 106.2 L212.4 106.9 Z M210.2 107.7 L210.1 108.4 L209.8 109.1 L209.4 109.7 L208.8 110.1 L208.1 110.4 L207.4 110.5 L206.7 110.4 L206.0 110.1 L205.5 109.7 L205.0 109.1 L204.8 108.4 L204.7 107.7 L204.8 107.0 L205.0 106.3 L205.5 105.8 L206.0 105.3 L206.7 105.1 L207.4 105.0 L208.1 105.1 L208.8 105.3 L209.4 105.8 L209.8 106.3 L210.1 107.0 Z" fill-rule="evenodd"/>
<path d="M126.6 96.0 L128.6 40.4 L131.4 40.4 L133.4 96.0 Z"/>
<path d="M141.5 107.3 L142.4 105.8 L143.0 104.1 L143.4 102.4 L143.7 100.6 L143.6 98.8 L143.4 97.1 L142.9 95.4 L142.2 93.7 L141.3 92.2 L140.2 90.8 L139.0 89.5 L137.6 88.5 L136.0 87.6 L134.4 86.9 L132.6 86.5 L130.9 86.2 L129.1 86.2 L127.4 86.5 L125.6 86.9 L124.0 87.6 L122.4 88.5 L121.0 89.5 L119.8 90.8 L118.7 92.2 L117.8 93.7 L117.1 95.4 L116.6 97.1 L116.4 98.8 L116.3 100.6 L116.6 102.4 L117.0 104.1 L117.6 105.8 L118.5 107.3 L118.5 107.3 L118.9 108.8 L119.5 110.2 L120.2 111.6 L121.2 112.8 L122.3 113.9 L123.5 114.8 L124.8 115.6 L126.2 116.2 L127.7 116.6 L129.2 116.8 L130.8 116.8 L132.3 116.6 L133.8 116.2 L135.2 115.6 L136.5 114.8 L137.7 113.9 L138.8 112.8 L139.8 111.6 L140.5 110.2 L141.1 108.8 L141.5 107.3 Z M123.5 100.5 L136.5 100.5 L136.5 103.0 L123.5 103.0 Z" fill-rule="evenodd"/>
</g></svg>
