<svg xmlns="http://www.w3.org/2000/svg" viewBox="0 39 260 82"><g id="sil" fill="currentColor">
<path d="M16.0 105.3 L125.6 97.3 L134.4 97.3 L244.0 105.3 L244.0 107.6 L134.4 102.9 L125.6 102.9 L16.0 107.6 Z"/>
<path d="M16.5 101.3 L14.0 101.3 L14.0 110.6 L16.5 110.6 Z"/>
<path d="M243.5 101.3 L246.0 101.3 L246.0 110.6 L243.5 110.6 Z"/>
<path d="M87.3 101.0 L90.5 101.0 L90.5 108.4 L87.3 108.4 Z"/>
<path d="M94.1 108.4 L94.0 109.2 L93.8 110.0 L93.5 110.7 L93.1 111.4 L92.6 112.0 L91.9 112.6 L91.3 113.0 L90.5 113.3 L89.7 113.5 L88.9 113.6 L88.1 113.5 L87.3 113.3 L86.5 113.0 L85.8 112.6 L85.2 112.0 L84.7 111.4 L84.3 110.7 L83.9 110.0 L83.8 109.2 L83.7 108.4 L83.8 107.5 L83.9 106.8 L84.3 106.0 L84.7 105.3 L85.2 104.7 L85.8 104.2 L86.5 103.7 L87.3 103.4 L88.1 103.2 L88.9 103.2 L89.7 103.2 L90.5 103.4 L91.3 103.7 L91.9 104.2 L92.6 104.7 L93.1 105.3 L93.5 106.0 L93.8 106.8 L94.0 107.5 Z M91.8 108.4 L91.7 109.1 L91.4 109.8 L90.9 110.4 L90.3 110.8 L89.6 111.1 L88.9 111.2 L88.2 111.1 L87.5 110.8 L86.9 110.4 L86.4 109.8 L86.1 109.1 L86.0 108.4 L86.1 107.6 L86.4 106.9 L86.9 106.3 L87.5 105.9 L88.2 105.6 L88.9 105.5 L89.6 105.6 L90.3 105.9 L90.9 106.3 L91.4 106.9 L91.7 107.6 Z" fill-rule="evenodd"/>
<path d="M169.5 101.0 L172.7 101.0 L172.7 108.4 L169.5 108.4 Z"/>
<path d="M176.3 108.4 L176.2 109.2 L176.1 110.0 L175.7 110.7 L175.3 111.4 L174.8 112.0 L174.2 112.6 L173.5 113.0 L172.7 113.3 L171.9 113.5 L171.1 113.6 L170.3 113.5 L169.5 113.3 L168.7 113.0 L168.1 112.6 L167.4 112.0 L166.9 111.4 L166.5 110.7 L166.2 110.0 L166.0 109.2 L165.9 108.4 L166.0 107.5 L166.2 106.8 L166.5 106.0 L166.9 105.3 L167.4 104.7 L168.1 104.2 L168.7 103.7 L169.5 103.4 L170.3 103.2 L171.1 103.2 L171.9 103.2 L172.7 103.4 L173.5 103.7 L174.2 104.2 L174.8 104.7 L175.3 105.3 L175.7 106.0 L176.1 106.8 L176.2 107.5 Z M174.0 108.4 L173.9 109.1 L173.6 109.8 L173.1 110.4 L172.5 110.8 L171.8 111.1 L171.1 111.2 L170.4 111.1 L169.7 110.8 L169.1 110.4 L168.6 109.8 L168.3 109.1 L168.2 108.4 L168.3 107.6 L168.6 106.9 L169.1 106.3 L169.7 105.9 L170.4 105.6 L171.1 105.5 L171.8 105.6 L172.5 105.9 L173.1 106.3 L173.6 106.9 L173.9 107.6 Z" fill-rule="evenodd"/>
<path d="M54.9 103.3 L58.1 103.3 L58.1 109.4 L54.9 109.4 Z"/>
<path d="M61.3 109.4 L61.2 110.2 L61.1 110.9 L60.8 111.6 L60.4 112.2 L59.9 112.8 L59.3 113.3 L58.7 113.7 L58.0 114.0 L57.3 114.2 L56.5 114.2 L55.8 114.2 L55.0 114.0 L54.3 113.7 L53.7 113.3 L53.1 112.8 L52.6 112.2 L52.2 111.6 L51.9 110.9 L51.8 110.2 L51.7 109.4 L51.8 108.7 L51.9 107.9 L52.2 107.2 L52.6 106.6 L53.1 106.0 L53.7 105.5 L54.3 105.1 L55.0 104.9 L55.8 104.7 L56.5 104.6 L57.3 104.7 L58.0 104.9 L58.7 105.1 L59.3 105.5 L59.9 106.0 L60.4 106.6 L60.8 107.2 L61.1 107.9 L61.2 108.7 Z M59.1 109.4 L59.1 110.1 L58.8 110.7 L58.4 111.3 L57.8 111.7 L57.2 112.0 L56.5 112.1 L55.8 112.0 L55.2 111.7 L54.6 111.3 L54.2 110.7 L54.0 110.1 L53.9 109.4 L54.0 108.7 L54.2 108.1 L54.6 107.6 L55.2 107.1 L55.8 106.9 L56.5 106.8 L57.2 106.9 L57.8 107.1 L58.4 107.6 L58.8 108.1 L59.1 108.7 Z" fill-rule="evenodd"/>
<path d="M201.9 103.3 L205.1 103.3 L205.1 109.4 L201.9 109.4 Z"/>
<path d="M208.3 109.4 L208.2 110.2 L208.1 110.9 L207.8 111.6 L207.4 112.2 L206.9 112.8 L206.3 113.3 L205.7 113.7 L205.0 114.0 L204.2 114.2 L203.5 114.2 L202.7 114.2 L202.0 114.0 L201.3 113.7 L200.7 113.3 L200.1 112.8 L199.6 112.2 L199.2 111.6 L198.9 110.9 L198.8 110.2 L198.7 109.4 L198.8 108.7 L198.9 107.9 L199.2 107.2 L199.6 106.6 L200.1 106.0 L200.7 105.5 L201.3 105.1 L202.0 104.9 L202.7 104.7 L203.5 104.6 L204.2 104.7 L205.0 104.9 L205.7 105.1 L206.3 105.5 L206.9 106.0 L207.4 106.6 L207.8 107.2 L208.1 107.9 L208.2 108.7 Z M206.1 109.4 L206.0 110.1 L205.8 110.7 L205.4 111.3 L204.8 111.7 L204.2 112.0 L203.5 112.1 L202.8 112.0 L202.2 111.7 L201.6 111.3 L201.2 110.7 L200.9 110.1 L200.9 109.4 L200.9 108.7 L201.2 108.1 L201.6 107.6 L202.2 107.1 L202.8 106.9 L203.5 106.8 L204.2 106.9 L204.8 107.1 L205.4 107.6 L205.8 108.1 L206.0 108.7 Z" fill-rule="evenodd"/>
<path d="M126.7 102.3 L128.7 42.7 L131.3 42.7 L133.3 102.3 Z"/>
<path d="M114.0 42.7 L146.0 42.7 L146.0 45.7 L114.0 45.7 Z"/>
<path d="M144.8 102.3 L144.6 104.8 L144.1 107.1 L143.2 109.4 L142.0 111.5 L140.5 113.4 L138.7 115.0 L136.7 116.3 L134.6 117.2 L132.3 117.8 L130.0 118.0 L127.7 117.8 L125.4 117.2 L123.3 116.3 L121.3 115.0 L119.5 113.4 L118.0 111.5 L116.8 109.4 L115.9 107.1 L115.4 104.8 L115.2 102.3 L115.4 99.8 L115.9 97.5 L116.8 95.2 L118.0 93.1 L119.5 91.2 L121.3 89.6 L123.3 88.3 L125.4 87.4 L127.7 86.8 L130.0 86.6 L132.3 86.8 L134.6 87.4 L136.7 88.3 L138.7 89.6 L140.5 91.2 L142.0 93.1 L143.2 95.2 L144.1 97.5 L144.6 99.8 Z" fill-rule="evenodd"/>
</g></svg>
