<svg xmlns="http://www.w3.org/2000/svg" viewBox="0 32 260 89"><g id="sil" fill="currentColor">
<path d="M14.0 98.7 L126.6 108.7 L133.4 108.7 L246.0 98.7 L246.0 100.5 L133.4 113.3 L126.6 113.3 L14.0 100.5 Z"/>
<path d="M83.5 105.6 L86.7 105.6 L86.7 112.4 L83.5 112.4 Z"/>
<path d="M90.7 112.4 L90.6 113.3 L90.4 114.1 L90.1 114.9 L89.6 115.7 L89.0 116.3 L88.4 116.9 L87.6 117.4 L86.8 117.7 L86.0 117.9 L85.1 118.0 L84.2 117.9 L83.4 117.7 L82.5 117.4 L81.8 116.9 L81.1 116.3 L80.6 115.7 L80.1 114.9 L79.8 114.1 L79.6 113.3 L79.5 112.4 L79.6 111.5 L79.8 110.6 L80.1 109.8 L80.6 109.1 L81.1 108.4 L81.8 107.8 L82.5 107.4 L83.4 107.0 L84.2 106.8 L85.1 106.8 L86.0 106.8 L86.8 107.0 L87.6 107.4 L88.4 107.8 L89.0 108.4 L89.6 109.1 L90.1 109.8 L90.4 110.6 L90.6 111.5 Z M88.2 112.4 L88.1 113.2 L87.8 113.9 L87.3 114.6 L86.6 115.0 L85.9 115.4 L85.1 115.5 L84.3 115.4 L83.5 115.0 L82.9 114.6 L82.4 113.9 L82.1 113.2 L82.0 112.4 L82.1 111.6 L82.4 110.8 L82.9 110.2 L83.5 109.7 L84.3 109.4 L85.1 109.3 L85.9 109.4 L86.6 109.7 L87.3 110.2 L87.8 110.8 L88.1 111.6 Z" fill-rule="evenodd"/>
<path d="M173.3 105.6 L176.5 105.6 L176.5 112.4 L173.3 112.4 Z"/>
<path d="M180.5 112.4 L180.4 113.3 L180.2 114.1 L179.9 114.9 L179.4 115.7 L178.9 116.3 L178.2 116.9 L177.5 117.4 L176.6 117.7 L175.8 117.9 L174.9 118.0 L174.0 117.9 L173.2 117.7 L172.4 117.4 L171.6 116.9 L171.0 116.3 L170.4 115.7 L169.9 114.9 L169.6 114.1 L169.4 113.3 L169.3 112.4 L169.4 111.5 L169.6 110.6 L169.9 109.8 L170.4 109.1 L171.0 108.4 L171.6 107.8 L172.4 107.4 L173.2 107.0 L174.0 106.8 L174.9 106.8 L175.8 106.8 L176.6 107.0 L177.5 107.4 L178.2 107.8 L178.9 108.4 L179.4 109.1 L179.9 109.8 L180.2 110.6 L180.4 111.5 Z M178.0 112.4 L177.9 113.2 L177.6 113.9 L177.1 114.6 L176.5 115.0 L175.7 115.4 L174.9 115.5 L174.1 115.4 L173.4 115.0 L172.7 114.6 L172.2 113.9 L171.9 113.2 L171.8 112.4 L171.9 111.6 L172.2 110.8 L172.7 110.2 L173.4 109.7 L174.1 109.4 L174.9 109.3 L175.7 109.4 L176.5 109.7 L177.1 110.2 L177.6 110.8 L177.9 111.6 Z" fill-rule="evenodd"/>
<path d="M126.2 104.7 L128.5 35.3 L131.5 35.3 L133.8 104.7 Z"/>
<path d="M141.5 104.7 L141.3 106.7 L140.9 108.6 L140.2 110.4 L139.3 112.0 L138.1 113.5 L136.7 114.8 L135.2 115.8 L133.5 116.6 L131.8 117.0 L130.0 117.2 L128.2 117.0 L126.5 116.6 L124.8 115.8 L123.3 114.8 L121.9 113.5 L120.7 112.0 L119.8 110.4 L119.1 108.6 L118.7 106.7 L118.5 104.7 L118.7 102.7 L119.1 100.8 L119.8 99.0 L120.7 97.4 L121.9 95.9 L123.3 94.6 L124.8 93.6 L126.5 92.8 L128.2 92.4 L130.0 92.2 L131.8 92.4 L133.5 92.8 L135.2 93.6 L136.7 94.6 L138.1 95.9 L139.3 97.4 L140.2 99.0 L140.9 100.8 L141.3 102.7 Z M124.0 104.2 L136.0 104.2 L136.0 106.0 L124.0 106.0 Z" fill-rule="evenodd"/>
</g></svg>
