<svg xmlns="http://www.w3.org/2000/svg" viewBox="0 64 260 57"><g id="sil" fill="currentColor">
<path d="M14.0 113.0 L127.7 104.0 L132.3 104.0 L246.0 113.0 L246.0 114.9 L132.3 108.8 L127.7 108.8 L14.0 114.9 Z"/>
<path d="M98.9 107.1 L102.1 107.1 L102.1 112.8 L98.9 112.8 Z"/>
<path d="M100.6 112.8 L100.6 113.3 L100.4 113.8 L100.2 114.3 L100.0 114.8 L99.6 115.2 L99.2 115.5 L98.8 115.8 L98.3 116.0 L97.7 116.2 L97.2 116.2 L96.7 116.2 L96.2 116.0 L95.7 115.8 L95.2 115.5 L94.8 115.2 L94.5 114.8 L94.2 114.3 L94.0 113.8 L93.9 113.3 L93.8 112.8 L93.9 112.3 L94.0 111.7 L94.2 111.3 L94.5 110.8 L94.8 110.4 L95.2 110.0 L95.7 109.8 L96.2 109.6 L96.7 109.4 L97.2 109.4 L97.7 109.4 L98.3 109.6 L98.8 109.8 L99.2 110.0 L99.6 110.4 L100.0 110.8 L100.2 111.3 L100.4 111.7 L100.6 112.3 Z M99.0 112.8 L98.9 113.3 L98.7 113.8 L98.4 114.1 L97.9 114.4 L97.5 114.5 L97.0 114.5 L96.5 114.4 L96.1 114.1 L95.7 113.8 L95.5 113.3 L95.4 112.8 L95.5 112.3 L95.7 111.8 L96.1 111.5 L96.5 111.2 L97.0 111.0 L97.5 111.0 L97.9 111.2 L98.4 111.5 L98.7 111.8 L98.9 112.3 Z" fill-rule="evenodd"/>
<path d="M107.3 112.8 L107.2 113.3 L107.1 113.8 L106.9 114.3 L106.6 114.8 L106.3 115.2 L105.9 115.5 L105.4 115.8 L104.9 116.0 L104.4 116.2 L103.9 116.2 L103.3 116.2 L102.8 116.0 L102.3 115.8 L101.9 115.5 L101.5 115.2 L101.1 114.8 L100.9 114.3 L100.6 113.8 L100.5 113.3 L100.5 112.8 L100.5 112.3 L100.6 111.7 L100.9 111.3 L101.1 110.8 L101.5 110.4 L101.9 110.0 L102.3 109.8 L102.8 109.6 L103.3 109.4 L103.9 109.4 L104.4 109.4 L104.9 109.6 L105.4 109.8 L105.9 110.0 L106.3 110.4 L106.6 110.8 L106.9 111.3 L107.1 111.7 L107.2 112.3 Z M105.6 112.8 L105.6 113.3 L105.4 113.8 L105.0 114.1 L104.6 114.4 L104.1 114.5 L103.6 114.5 L103.1 114.4 L102.7 114.1 L102.4 113.8 L102.2 113.3 L102.1 112.8 L102.2 112.3 L102.4 111.8 L102.7 111.5 L103.1 111.2 L103.6 111.0 L104.1 111.0 L104.6 111.2 L105.0 111.5 L105.4 111.8 L105.6 112.3 Z" fill-rule="evenodd"/>
<path d="M157.9 107.1 L161.1 107.1 L161.1 112.8 L157.9 112.8 Z"/>
<path d="M159.5 112.8 L159.5 113.3 L159.4 113.8 L159.1 114.3 L158.9 114.8 L158.5 115.2 L158.1 115.5 L157.7 115.8 L157.2 116.0 L156.7 116.2 L156.1 116.2 L155.6 116.2 L155.1 116.0 L154.6 115.8 L154.1 115.5 L153.7 115.2 L153.4 114.8 L153.1 114.3 L152.9 113.8 L152.8 113.3 L152.7 112.8 L152.8 112.3 L152.9 111.7 L153.1 111.3 L153.4 110.8 L153.7 110.4 L154.1 110.0 L154.6 109.8 L155.1 109.6 L155.6 109.4 L156.1 109.4 L156.7 109.4 L157.2 109.6 L157.7 109.8 L158.1 110.0 L158.5 110.4 L158.9 110.8 L159.1 111.3 L159.4 111.7 L159.5 112.3 Z M157.9 112.8 L157.8 113.3 L157.6 113.8 L157.3 114.1 L156.9 114.4 L156.4 114.5 L155.9 114.5 L155.4 114.4 L155.0 114.1 L154.6 113.8 L154.4 113.3 L154.4 112.8 L154.4 112.3 L154.6 111.8 L155.0 111.5 L155.4 111.2 L155.9 111.0 L156.4 111.0 L156.9 111.2 L157.3 111.5 L157.6 111.8 L157.8 112.3 Z" fill-rule="evenodd"/>
<path d="M166.2 112.8 L166.1 113.3 L166.0 113.8 L165.8 114.3 L165.5 114.8 L165.2 115.2 L164.8 115.5 L164.3 115.8 L163.8 116.0 L163.3 116.2 L162.8 116.2 L162.3 116.2 L161.7 116.0 L161.2 115.8 L160.8 115.5 L160.4 115.2 L160.0 114.8 L159.8 114.3 L159.6 113.8 L159.4 113.3 L159.4 112.8 L159.4 112.3 L159.6 111.7 L159.8 111.3 L160.0 110.8 L160.4 110.4 L160.8 110.0 L161.2 109.8 L161.7 109.6 L162.3 109.4 L162.8 109.4 L163.3 109.4 L163.8 109.6 L164.3 109.8 L164.8 110.0 L165.2 110.4 L165.5 110.8 L165.8 111.3 L166.0 111.7 L166.1 112.3 Z M164.6 112.8 L164.5 113.3 L164.3 113.8 L163.9 114.1 L163.5 114.4 L163.0 114.5 L162.5 114.5 L162.1 114.4 L161.6 114.1 L161.3 113.8 L161.1 113.3 L161.0 112.8 L161.1 112.3 L161.3 111.8 L161.6 111.5 L162.1 111.2 L162.5 111.0 L163.0 111.0 L163.5 111.2 L163.9 111.5 L164.3 111.8 L164.5 112.3 Z" fill-rule="evenodd"/>
<path d="M70.8 109.3 L74.0 109.3 L74.0 114.1 L70.8 114.1 Z"/>
<path d="M72.5 114.1 L72.4 114.6 L72.3 115.1 L72.1 115.6 L71.9 116.0 L71.5 116.4 L71.2 116.7 L70.7 117.0 L70.3 117.2 L69.8 117.3 L69.3 117.3 L68.8 117.3 L68.3 117.2 L67.8 117.0 L67.4 116.7 L67.0 116.4 L66.7 116.0 L66.4 115.6 L66.2 115.1 L66.1 114.6 L66.1 114.1 L66.1 113.6 L66.2 113.1 L66.4 112.7 L66.7 112.3 L67.0 111.9 L67.4 111.5 L67.8 111.3 L68.3 111.1 L68.8 111.0 L69.3 110.9 L69.8 111.0 L70.3 111.1 L70.7 111.3 L71.2 111.5 L71.5 111.9 L71.9 112.3 L72.1 112.7 L72.3 113.1 L72.4 113.6 Z M70.9 114.1 L70.9 114.6 L70.7 115.0 L70.4 115.4 L70.0 115.6 L69.5 115.8 L69.0 115.8 L68.6 115.6 L68.2 115.4 L67.9 115.0 L67.7 114.6 L67.6 114.1 L67.7 113.7 L67.9 113.2 L68.2 112.9 L68.6 112.6 L69.0 112.5 L69.5 112.5 L70.0 112.6 L70.4 112.9 L70.7 113.2 L70.9 113.7 Z" fill-rule="evenodd"/>
<path d="M78.8 114.1 L78.7 114.6 L78.6 115.1 L78.4 115.6 L78.1 116.0 L77.8 116.4 L77.4 116.7 L77.0 117.0 L76.5 117.2 L76.1 117.3 L75.6 117.3 L75.1 117.3 L74.6 117.2 L74.1 117.0 L73.7 116.7 L73.3 116.4 L73.0 116.0 L72.7 115.6 L72.5 115.1 L72.4 114.6 L72.4 114.1 L72.4 113.6 L72.5 113.1 L72.7 112.7 L73.0 112.3 L73.3 111.9 L73.7 111.5 L74.1 111.3 L74.6 111.1 L75.1 111.0 L75.6 110.9 L76.1 111.0 L76.5 111.1 L77.0 111.3 L77.4 111.5 L77.8 111.9 L78.1 112.3 L78.4 112.7 L78.6 113.1 L78.7 113.6 Z M77.2 114.1 L77.2 114.6 L77.0 115.0 L76.6 115.4 L76.2 115.6 L75.8 115.8 L75.3 115.8 L74.9 115.6 L74.5 115.4 L74.2 115.0 L74.0 114.6 L73.9 114.1 L74.0 113.7 L74.2 113.2 L74.5 112.9 L74.9 112.6 L75.3 112.5 L75.8 112.5 L76.2 112.6 L76.6 112.9 L77.0 113.2 L77.2 113.7 Z" fill-rule="evenodd"/>
<path d="M186.0 109.3 L189.2 109.3 L189.2 114.1 L186.0 114.1 Z"/>
<path d="M187.6 114.1 L187.6 114.6 L187.5 115.1 L187.3 115.6 L187.0 116.0 L186.7 116.4 L186.3 116.7 L185.9 117.0 L185.4 117.2 L184.9 117.3 L184.4 117.3 L183.9 117.3 L183.5 117.2 L183.0 117.0 L182.6 116.7 L182.2 116.4 L181.9 116.0 L181.6 115.6 L181.4 115.1 L181.3 114.6 L181.2 114.1 L181.3 113.6 L181.4 113.1 L181.6 112.7 L181.9 112.3 L182.2 111.9 L182.6 111.5 L183.0 111.3 L183.5 111.1 L183.9 111.0 L184.4 110.9 L184.9 111.0 L185.4 111.1 L185.9 111.3 L186.3 111.5 L186.7 111.9 L187.0 112.3 L187.3 112.7 L187.5 113.1 L187.6 113.6 Z M186.1 114.1 L186.0 114.6 L185.8 115.0 L185.5 115.4 L185.1 115.6 L184.7 115.8 L184.2 115.8 L183.8 115.6 L183.4 115.4 L183.0 115.0 L182.8 114.6 L182.8 114.1 L182.8 113.7 L183.0 113.2 L183.4 112.9 L183.8 112.6 L184.2 112.5 L184.7 112.5 L185.1 112.6 L185.5 112.9 L185.8 113.2 L186.0 113.7 Z" fill-rule="evenodd"/>
<path d="M193.9 114.1 L193.9 114.6 L193.8 115.1 L193.6 115.6 L193.3 116.0 L193.0 116.4 L192.6 116.7 L192.2 117.0 L191.7 117.2 L191.2 117.3 L190.7 117.3 L190.2 117.3 L189.7 117.2 L189.3 117.0 L188.8 116.7 L188.5 116.4 L188.1 116.0 L187.9 115.6 L187.7 115.1 L187.6 114.6 L187.5 114.1 L187.6 113.6 L187.7 113.1 L187.9 112.7 L188.1 112.3 L188.5 111.9 L188.8 111.5 L189.3 111.3 L189.7 111.1 L190.2 111.0 L190.7 110.9 L191.2 111.0 L191.7 111.1 L192.2 111.3 L192.6 111.5 L193.0 111.9 L193.3 112.3 L193.6 112.7 L193.8 113.1 L193.9 113.6 Z M192.4 114.1 L192.3 114.6 L192.1 115.0 L191.8 115.4 L191.4 115.6 L191.0 115.8 L190.5 115.8 L190.0 115.6 L189.6 115.4 L189.3 115.0 L189.1 114.6 L189.1 114.1 L189.1 113.7 L189.3 113.2 L189.6 112.9 L190.0 112.6 L190.5 112.5 L191.0 112.5 L191.4 112.6 L191.8 112.9 L192.1 113.2 L192.3 113.7 Z" fill-rule="evenodd"/>
<path d="M126.8 109.0 L128.7 67.0 L131.3 67.0 L133.2 109.0 Z"/>
<path d="M137.8 109.0 L137.7 110.4 L137.4 111.8 L137.0 113.1 L136.3 114.3 L135.5 115.4 L134.6 116.3 L133.5 117.1 L132.4 117.6 L131.2 117.9 L130.0 118.0 L128.8 117.9 L127.6 117.6 L126.5 117.1 L125.4 116.3 L124.5 115.4 L123.7 114.3 L123.0 113.1 L122.6 111.8 L122.3 110.4 L122.2 109.0 L122.3 107.6 L122.6 106.2 L123.0 104.9 L123.7 103.7 L124.5 102.6 L125.4 101.7 L126.5 100.9 L127.6 100.4 L128.8 100.1 L130.0 100.0 L131.2 100.1 L132.4 100.4 L133.5 100.9 L134.6 101.7 L135.5 102.6 L136.3 103.7 L137.0 104.9 L137.4 106.2 L137.7 107.6 Z" fill-rule="evenodd"/>
</g></svg>
