<svg xmlns="http://www.w3.org/2000/svg" viewBox="0 49 260 72"><g id="sil" fill="currentColor">
<path d="M20.0 94.4 L126.7 108.4 L133.3 108.4 L240.0 94.4 L240.0 96.2 L133.3 113.4 L126.7 113.4 L20.0 96.2 Z"/>
<path d="M20.0 94.4 L14.0 89.4 L17.0 89.4 L23.0 96.2 Z"/>
<path d="M240.0 94.4 L246.0 89.4 L243.0 89.4 L237.0 96.2 Z"/>
<path d="M82.7 103.4 L85.9 103.4 L85.9 111.2 L82.7 111.2 Z"/>
<path d="M91.1 111.2 L91.0 112.3 L90.7 113.3 L90.3 114.3 L89.8 115.2 L89.1 116.0 L88.3 116.7 L87.3 117.3 L86.4 117.7 L85.3 117.9 L84.3 118.0 L83.2 117.9 L82.2 117.7 L81.2 117.3 L80.3 116.7 L79.5 116.0 L78.8 115.2 L78.2 114.3 L77.8 113.3 L77.5 112.3 L77.5 111.2 L77.5 110.1 L77.8 109.1 L78.2 108.1 L78.8 107.2 L79.5 106.4 L80.3 105.7 L81.2 105.2 L82.2 104.7 L83.2 104.5 L84.3 104.4 L85.3 104.5 L86.4 104.7 L87.3 105.2 L88.3 105.7 L89.1 106.4 L89.8 107.2 L90.3 108.1 L90.7 109.1 L91.0 110.1 Z M88.0 111.2 L87.9 112.2 L87.5 113.1 L86.9 113.9 L86.1 114.5 L85.2 114.8 L84.3 115.0 L83.3 114.8 L82.4 114.5 L81.6 113.9 L81.0 113.1 L80.6 112.2 L80.5 111.2 L80.6 110.2 L81.0 109.3 L81.6 108.6 L82.4 108.0 L83.3 107.6 L84.3 107.5 L85.2 107.6 L86.1 108.0 L86.9 108.6 L87.5 109.3 L87.9 110.2 Z" fill-rule="evenodd"/>
<path d="M174.1 103.4 L177.3 103.4 L177.3 111.2 L174.1 111.2 Z"/>
<path d="M182.5 111.2 L182.5 112.3 L182.2 113.3 L181.8 114.3 L181.2 115.2 L180.5 116.0 L179.7 116.7 L178.8 117.3 L177.8 117.7 L176.8 117.9 L175.7 118.0 L174.7 117.9 L173.6 117.7 L172.7 117.3 L171.7 116.7 L170.9 116.0 L170.2 115.2 L169.7 114.3 L169.3 113.3 L169.0 112.3 L168.9 111.2 L169.0 110.1 L169.3 109.1 L169.7 108.1 L170.2 107.2 L170.9 106.4 L171.7 105.7 L172.7 105.2 L173.6 104.7 L174.7 104.5 L175.7 104.4 L176.8 104.5 L177.8 104.7 L178.8 105.2 L179.7 105.7 L180.5 106.4 L181.2 107.2 L181.8 108.1 L182.2 109.1 L182.5 110.1 Z M179.5 111.2 L179.4 112.2 L179.0 113.1 L178.4 113.9 L177.6 114.5 L176.7 114.8 L175.7 115.0 L174.8 114.8 L173.9 114.5 L173.1 113.9 L172.5 113.1 L172.1 112.2 L172.0 111.2 L172.1 110.2 L172.5 109.3 L173.1 108.6 L173.9 108.0 L174.8 107.6 L175.7 107.5 L176.7 107.6 L177.6 108.0 L178.4 108.6 L179.0 109.3 L179.4 110.2 Z" fill-rule="evenodd"/>
<path d="M126.8 104.4 L128.7 52.3 L131.3 52.3 L133.2 104.4 Z"/>
<path d="M141.1 104.4 L141.0 106.2 L140.6 107.9 L139.9 109.6 L139.0 111.1 L137.9 112.5 L136.5 113.7 L135.1 114.6 L133.4 115.3 L131.7 115.7 L130.0 115.9 L128.3 115.7 L126.6 115.3 L124.9 114.6 L123.5 113.7 L122.1 112.5 L121.0 111.1 L120.1 109.6 L119.4 107.9 L119.0 106.2 L118.9 104.4 L119.0 102.6 L119.4 100.9 L120.1 99.2 L121.0 97.7 L122.1 96.3 L123.5 95.1 L124.9 94.2 L126.6 93.5 L128.3 93.1 L130.0 92.9 L131.7 93.1 L133.4 93.5 L135.1 94.2 L136.5 95.1 L137.9 96.3 L139.0 97.7 L139.9 99.2 L140.6 100.9 L141.0 102.6 Z M124.2 104.0 L135.8 104.0 L135.8 105.8 L124.2 105.8 Z" fill-rule="evenodd"/>
</g></svg>
