<svg xmlns="http://www.w3.org/2000/svg" viewBox="0 48 260 73"><g id="sil" fill="currentColor">
<path d="M20.0 94.4 L126.7 105.4 L133.3 105.4 L240.0 94.4 L240.0 96.5 L133.3 110.8 L126.7 110.8 L20.0 96.5 Z"/>
<path d="M20.0 94.4 L14.0 89.4 L17.0 89.4 L23.0 96.5 Z"/>
<path d="M240.0 94.4 L246.0 89.4 L243.0 89.4 L237.0 96.5 Z"/>
<path d="M82.7 101.6 L85.9 101.6 L85.9 110.4 L82.7 110.4 Z"/>
<path d="M91.9 110.4 L91.8 111.6 L91.5 112.7 L91.1 113.9 L90.4 114.9 L89.7 115.8 L88.8 116.5 L87.7 117.2 L86.6 117.6 L85.5 117.9 L84.3 118.0 L83.1 117.9 L81.9 117.6 L80.8 117.2 L79.8 116.5 L78.9 115.8 L78.1 114.9 L77.5 113.9 L77.1 112.7 L76.8 111.6 L76.7 110.4 L76.8 109.2 L77.1 108.1 L77.5 106.9 L78.1 105.9 L78.9 105.0 L79.8 104.3 L80.8 103.6 L81.9 103.2 L83.1 102.9 L84.3 102.8 L85.5 102.9 L86.6 103.2 L87.7 103.6 L88.8 104.3 L89.7 105.0 L90.4 105.9 L91.1 106.9 L91.5 108.1 L91.8 109.2 Z M88.5 110.4 L88.3 111.5 L87.9 112.5 L87.2 113.4 L86.4 114.0 L85.4 114.4 L84.3 114.6 L83.2 114.4 L82.2 114.0 L81.3 113.4 L80.7 112.5 L80.2 111.5 L80.1 110.4 L80.2 109.3 L80.7 108.3 L81.3 107.4 L82.2 106.8 L83.2 106.4 L84.3 106.2 L85.4 106.4 L86.4 106.8 L87.2 107.4 L87.9 108.3 L88.3 109.3 Z" fill-rule="evenodd"/>
<path d="M174.1 101.6 L177.3 101.6 L177.3 110.4 L174.1 110.4 Z"/>
<path d="M183.3 110.4 L183.2 111.6 L182.9 112.7 L182.5 113.9 L181.9 114.9 L181.1 115.8 L180.2 116.5 L179.2 117.2 L178.1 117.6 L176.9 117.9 L175.7 118.0 L174.5 117.9 L173.4 117.6 L172.3 117.2 L171.2 116.5 L170.3 115.8 L169.6 114.9 L168.9 113.9 L168.5 112.7 L168.2 111.6 L168.1 110.4 L168.2 109.2 L168.5 108.1 L168.9 106.9 L169.6 105.9 L170.3 105.0 L171.2 104.3 L172.3 103.6 L173.4 103.2 L174.5 102.9 L175.7 102.8 L176.9 102.9 L178.1 103.2 L179.2 103.6 L180.2 104.3 L181.1 105.0 L181.9 105.9 L182.5 106.9 L182.9 108.1 L183.2 109.2 Z M179.9 110.4 L179.8 111.5 L179.3 112.5 L178.7 113.4 L177.8 114.0 L176.8 114.4 L175.7 114.6 L174.6 114.4 L173.6 114.0 L172.8 113.4 L172.1 112.5 L171.7 111.5 L171.5 110.4 L171.7 109.3 L172.1 108.3 L172.8 107.4 L173.6 106.8 L174.6 106.4 L175.7 106.2 L176.8 106.4 L177.8 106.8 L178.7 107.4 L179.3 108.3 L179.8 109.3 Z" fill-rule="evenodd"/>
<path d="M126.8 101.4 L128.7 51.8 L131.3 51.8 L133.2 101.4 Z"/>
<path d="M141.1 101.4 L141.0 103.1 L140.6 104.8 L139.9 106.4 L139.0 107.9 L137.8 109.2 L136.5 110.4 L135.0 111.3 L133.4 112.0 L131.7 112.4 L130.0 112.5 L128.3 112.4 L126.6 112.0 L125.0 111.3 L123.5 110.4 L122.2 109.2 L121.0 107.9 L120.1 106.4 L119.4 104.8 L119.0 103.1 L118.9 101.4 L119.0 99.7 L119.4 98.0 L120.1 96.4 L121.0 94.9 L122.2 93.6 L123.5 92.4 L125.0 91.5 L126.6 90.8 L128.3 90.4 L130.0 90.3 L131.7 90.4 L133.4 90.8 L135.0 91.5 L136.5 92.4 L137.8 93.6 L139.0 94.9 L139.9 96.4 L140.6 98.0 L141.0 99.7 Z M124.2 101.0 L135.8 101.0 L135.8 102.8 L124.2 102.8 Z" fill-rule="evenodd"/>
</g></svg>
