<svg xmlns="http://www.w3.org/2000/svg" viewBox="0 39 260 82"><g id="sil" fill="currentColor">
<path d="M20.0 96.6 L126.6 108.6 L133.4 108.6 L240.0 96.6 L240.0 98.5 L133.4 113.6 L126.6 113.6 L20.0 98.5 Z"/>
<path d="M20.0 96.6 L14.0 91.6 L17.0 91.6 L23.0 98.5 Z"/>
<path d="M240.0 96.6 L246.0 91.6 L243.0 91.6 L237.0 98.5 Z"/>
<path d="M82.6 104.4 L85.8 104.4 L85.8 111.8 L82.6 111.8 Z"/>
<path d="M90.4 111.8 L90.3 112.8 L90.1 113.8 L89.7 114.7 L89.2 115.5 L88.6 116.2 L87.8 116.9 L87.0 117.4 L86.1 117.7 L85.2 118.0 L84.2 118.0 L83.2 118.0 L82.3 117.7 L81.4 117.4 L80.5 116.9 L79.8 116.2 L79.2 115.5 L78.7 114.7 L78.3 113.8 L78.1 112.8 L78.0 111.8 L78.1 110.9 L78.3 109.9 L78.7 109.0 L79.2 108.2 L79.8 107.5 L80.5 106.8 L81.4 106.3 L82.3 105.9 L83.2 105.7 L84.2 105.6 L85.2 105.7 L86.1 105.9 L87.0 106.3 L87.8 106.8 L88.6 107.5 L89.2 108.2 L89.7 109.0 L90.1 109.9 L90.3 110.9 Z M87.6 111.8 L87.5 112.7 L87.1 113.5 L86.6 114.3 L85.9 114.8 L85.1 115.1 L84.2 115.3 L83.3 115.1 L82.5 114.8 L81.8 114.3 L81.2 113.5 L80.9 112.7 L80.8 111.8 L80.9 111.0 L81.2 110.1 L81.8 109.4 L82.5 108.9 L83.3 108.5 L84.2 108.4 L85.1 108.5 L85.9 108.9 L86.6 109.4 L87.1 110.1 L87.5 111.0 Z" fill-rule="evenodd"/>
<path d="M174.2 104.4 L177.4 104.4 L177.4 111.8 L174.2 111.8 Z"/>
<path d="M182.0 111.8 L181.9 112.8 L181.7 113.8 L181.3 114.7 L180.8 115.5 L180.2 116.2 L179.5 116.9 L178.6 117.4 L177.7 117.7 L176.8 118.0 L175.8 118.0 L174.8 118.0 L173.9 117.7 L173.0 117.4 L172.2 116.9 L171.4 116.2 L170.8 115.5 L170.3 114.7 L169.9 113.8 L169.7 112.8 L169.6 111.8 L169.7 110.9 L169.9 109.9 L170.3 109.0 L170.8 108.2 L171.4 107.5 L172.2 106.8 L173.0 106.3 L173.9 105.9 L174.8 105.7 L175.8 105.6 L176.8 105.7 L177.7 105.9 L178.6 106.3 L179.5 106.8 L180.2 107.5 L180.8 108.2 L181.3 109.0 L181.7 109.9 L181.9 110.9 Z M179.2 111.8 L179.1 112.7 L178.8 113.5 L178.2 114.3 L177.5 114.8 L176.7 115.1 L175.8 115.3 L174.9 115.1 L174.1 114.8 L173.4 114.3 L172.9 113.5 L172.5 112.7 L172.4 111.8 L172.5 111.0 L172.9 110.1 L173.4 109.4 L174.1 108.9 L174.9 108.5 L175.8 108.4 L176.7 108.5 L177.5 108.9 L178.2 109.4 L178.8 110.1 L179.1 111.0 Z" fill-rule="evenodd"/>
<path d="M126.6 104.6 L128.6 42.6 L131.4 42.6 L133.4 104.6 Z"/>
<path d="M141.2 104.6 L141.1 106.5 L140.7 108.3 L140.0 110.1 L139.1 111.7 L137.9 113.1 L136.6 114.4 L135.1 115.4 L133.5 116.1 L131.8 116.5 L130.0 116.7 L128.2 116.5 L126.5 116.1 L124.9 115.4 L123.4 114.4 L122.1 113.1 L120.9 111.7 L120.0 110.1 L119.3 108.3 L118.9 106.5 L118.8 104.6 L118.9 102.7 L119.3 100.9 L120.0 99.1 L120.9 97.5 L122.1 96.1 L123.4 94.8 L124.9 93.8 L126.5 93.1 L128.2 92.7 L130.0 92.5 L131.8 92.7 L133.5 93.1 L135.1 93.8 L136.6 94.8 L137.9 96.1 L139.1 97.5 L140.0 99.1 L140.7 100.9 L141.1 102.7 Z M124.2 104.2 L135.8 104.2 L135.8 106.0 L124.2 106.0 Z" fill-rule="evenodd"/>
</g></svg>
