<svg xmlns="http://www.w3.org/2000/svg" viewBox="0 49 260 72"><g id="sil" fill="currentColor">
<path d="M14.0 96.4 L126.7 108.4 L133.3 108.4 L246.0 96.4 L246.0 98.4 L133.3 113.6 L126.7 113.6 L14.0 98.4 Z"/>
<path d="M85.9 104.8 L89.1 104.8 L89.1 112.2 L85.9 112.2 Z"/>
<path d="M93.3 112.2 L93.2 113.1 L93.0 114.0 L92.7 114.8 L92.2 115.6 L91.6 116.3 L90.9 116.9 L90.1 117.4 L89.3 117.7 L88.4 117.9 L87.5 118.0 L86.6 117.9 L85.7 117.7 L84.9 117.4 L84.1 116.9 L83.4 116.3 L82.8 115.6 L82.3 114.8 L82.0 114.0 L81.8 113.1 L81.7 112.2 L81.8 111.3 L82.0 110.4 L82.3 109.6 L82.8 108.8 L83.4 108.1 L84.1 107.5 L84.9 107.0 L85.7 106.7 L86.6 106.5 L87.5 106.4 L88.4 106.5 L89.3 106.7 L90.1 107.0 L90.9 107.5 L91.6 108.1 L92.2 108.8 L92.7 109.6 L93.0 110.4 L93.2 111.3 Z M90.7 112.2 L90.6 113.0 L90.2 113.8 L89.7 114.5 L89.1 115.0 L88.3 115.3 L87.5 115.4 L86.7 115.3 L85.9 115.0 L85.2 114.5 L84.7 113.8 L84.4 113.0 L84.3 112.2 L84.4 111.4 L84.7 110.6 L85.2 109.9 L85.9 109.4 L86.7 109.1 L87.5 109.0 L88.3 109.1 L89.1 109.4 L89.7 109.9 L90.2 110.6 L90.6 111.4 Z" fill-rule="evenodd"/>
<path d="M170.9 104.8 L174.1 104.8 L174.1 112.2 L170.9 112.2 Z"/>
<path d="M178.3 112.2 L178.2 113.1 L178.0 114.0 L177.7 114.8 L177.2 115.6 L176.6 116.3 L175.9 116.9 L175.1 117.4 L174.3 117.7 L173.4 117.9 L172.5 118.0 L171.6 117.9 L170.7 117.7 L169.9 117.4 L169.1 116.9 L168.4 116.3 L167.8 115.6 L167.3 114.8 L167.0 114.0 L166.8 113.1 L166.7 112.2 L166.8 111.3 L167.0 110.4 L167.3 109.6 L167.8 108.8 L168.4 108.1 L169.1 107.5 L169.9 107.0 L170.7 106.7 L171.6 106.5 L172.5 106.4 L173.4 106.5 L174.3 106.7 L175.1 107.0 L175.9 107.5 L176.6 108.1 L177.2 108.8 L177.7 109.6 L178.0 110.4 L178.2 111.3 Z M175.7 112.2 L175.6 113.0 L175.3 113.8 L174.8 114.5 L174.1 115.0 L173.3 115.3 L172.5 115.4 L171.7 115.3 L170.9 115.0 L170.3 114.5 L169.8 113.8 L169.4 113.0 L169.3 112.2 L169.4 111.4 L169.8 110.6 L170.3 109.9 L170.9 109.4 L171.7 109.1 L172.5 109.0 L173.3 109.1 L174.1 109.4 L174.8 109.9 L175.3 110.6 L175.6 111.4 Z" fill-rule="evenodd"/>
<path d="M51.2 101.2 L54.4 101.2 L54.4 107.2 L51.2 107.2 Z"/>
<path d="M58.0 107.2 L58.0 108.0 L57.8 108.8 L57.5 109.6 L57.0 110.3 L56.5 110.9 L55.9 111.4 L55.2 111.9 L54.4 112.2 L53.7 112.4 L52.8 112.4 L52.0 112.4 L51.2 112.2 L50.5 111.9 L49.8 111.4 L49.2 110.9 L48.6 110.3 L48.2 109.6 L47.9 108.8 L47.7 108.0 L47.6 107.2 L47.7 106.4 L47.9 105.6 L48.2 104.9 L48.6 104.2 L49.2 103.6 L49.8 103.0 L50.5 102.6 L51.2 102.3 L52.0 102.1 L52.8 102.0 L53.7 102.1 L54.4 102.3 L55.2 102.6 L55.9 103.0 L56.5 103.6 L57.0 104.2 L57.5 104.9 L57.8 105.6 L58.0 106.4 Z M55.7 107.2 L55.6 108.0 L55.3 108.7 L54.9 109.3 L54.3 109.7 L53.6 110.0 L52.8 110.1 L52.1 110.0 L51.4 109.7 L50.8 109.3 L50.4 108.7 L50.1 108.0 L50.0 107.2 L50.1 106.5 L50.4 105.8 L50.8 105.2 L51.4 104.8 L52.1 104.5 L52.8 104.4 L53.6 104.5 L54.3 104.8 L54.9 105.2 L55.3 105.8 L55.6 106.5 Z" fill-rule="evenodd"/>
<path d="M205.6 101.2 L208.8 101.2 L208.8 107.2 L205.6 107.2 Z"/>
<path d="M212.4 107.2 L212.3 108.0 L212.1 108.8 L211.8 109.6 L211.4 110.3 L210.8 110.9 L210.2 111.4 L209.5 111.9 L208.8 112.2 L208.0 112.4 L207.2 112.4 L206.3 112.4 L205.6 112.2 L204.8 111.9 L204.1 111.4 L203.5 110.9 L203.0 110.3 L202.5 109.6 L202.2 108.8 L202.0 108.0 L202.0 107.2 L202.0 106.4 L202.2 105.6 L202.5 104.9 L203.0 104.2 L203.5 103.6 L204.1 103.0 L204.8 102.6 L205.6 102.3 L206.3 102.1 L207.2 102.0 L208.0 102.1 L208.8 102.3 L209.5 102.6 L210.2 103.0 L210.8 103.6 L211.4 104.2 L211.8 104.9 L212.1 105.6 L212.3 106.4 Z M210.0 107.2 L209.9 108.0 L209.6 108.7 L209.2 109.3 L208.6 109.7 L207.9 110.0 L207.2 110.1 L206.4 110.0 L205.7 109.7 L205.1 109.3 L204.7 108.7 L204.4 108.0 L204.3 107.2 L204.4 106.5 L204.7 105.8 L205.1 105.2 L205.7 104.8 L206.4 104.5 L207.2 104.4 L207.9 104.5 L208.6 104.8 L209.2 105.2 L209.6 105.8 L209.9 106.5 Z" fill-rule="evenodd"/>
<path d="M126.8 104.4 L128.7 52.2 L131.3 52.2 L133.2 104.4 Z"/>
<path d="M137.8 93.2 L137.7 94.1 L137.4 95.0 L137.0 95.8 L136.3 96.6 L135.5 97.3 L134.6 97.9 L133.5 98.3 L132.4 98.7 L131.2 98.9 L130.0 99.0 L128.8 98.9 L127.6 98.7 L126.5 98.3 L125.4 97.9 L124.5 97.3 L123.7 96.6 L123.0 95.8 L122.6 95.0 L122.3 94.1 L122.2 93.2 L122.3 92.3 L122.6 91.4 L123.0 90.6 L123.7 89.8 L124.5 89.1 L125.4 88.5 L126.5 88.1 L127.6 87.7 L128.8 87.5 L130.0 87.4 L131.2 87.5 L132.4 87.7 L133.5 88.1 L134.6 88.5 L135.5 89.1 L136.3 89.8 L137.0 90.6 L137.4 91.4 L137.7 92.3 Z"/>
<path d="M141.0 104.4 L140.9 106.2 L140.5 108.0 L139.8 109.7 L138.9 111.3 L137.8 112.7 L136.5 113.9 L135.0 114.8 L133.4 115.5 L131.7 116.0 L130.0 116.1 L128.3 116.0 L126.6 115.5 L125.0 114.8 L123.5 113.9 L122.2 112.7 L121.1 111.3 L120.2 109.7 L119.5 108.0 L119.1 106.2 L119.0 104.4 L119.1 102.6 L119.5 100.8 L120.2 99.1 L121.1 97.5 L122.2 96.1 L123.5 94.9 L125.0 94.0 L126.6 93.3 L128.3 92.8 L130.0 92.7 L131.7 92.8 L133.4 93.3 L135.0 94.0 L136.5 94.9 L137.8 96.1 L138.9 97.5 L139.8 99.1 L140.5 100.8 L140.9 102.6 Z M124.3 105.0 L135.7 105.0 L135.7 106.8 L124.3 106.8 Z" fill-rule="evenodd"/>
</g></svg>
