<svg xmlns="http://www.w3.org/2000/svg" viewBox="0 51 260 70"><g id="sil" fill="currentColor">
<path d="M20.0 92.8 L127.0 104.8 L133.0 104.8 L240.0 92.8 L240.0 94.7 L133.0 110.0 L127.0 110.0 L20.0 94.7 Z"/>
<path d="M20.0 92.8 L14.0 87.8 L17.0 87.8 L23.0 94.7 Z"/>
<path d="M240.0 92.8 L246.0 87.8 L243.0 87.8 L237.0 94.7 Z"/>
<path d="M86.6 101.0 L89.8 101.0 L89.8 110.0 L86.6 110.0 Z"/>
<path d="M96.2 110.0 L96.1 111.3 L95.8 112.5 L95.3 113.6 L94.7 114.7 L93.8 115.7 L92.9 116.5 L91.8 117.1 L90.7 117.6 L89.4 117.9 L88.2 118.0 L86.9 117.9 L85.7 117.6 L84.6 117.1 L83.5 116.5 L82.5 115.7 L81.7 114.7 L81.1 113.6 L80.6 112.5 L80.3 111.3 L80.2 110.0 L80.3 108.8 L80.6 107.5 L81.1 106.4 L81.7 105.3 L82.5 104.4 L83.5 103.5 L84.6 102.9 L85.7 102.4 L86.9 102.1 L88.2 102.0 L89.4 102.1 L90.7 102.4 L91.8 102.9 L92.9 103.5 L93.8 104.4 L94.7 105.3 L95.3 106.4 L95.8 107.5 L96.1 108.8 Z M92.6 110.0 L92.4 111.1 L92.0 112.2 L91.3 113.1 L90.4 113.8 L89.3 114.3 L88.2 114.4 L87.0 114.3 L86.0 113.8 L85.1 113.1 L84.4 112.2 L83.9 111.1 L83.8 110.0 L83.9 108.9 L84.4 107.8 L85.1 106.9 L86.0 106.2 L87.0 105.8 L88.2 105.6 L89.3 105.8 L90.4 106.2 L91.3 106.9 L92.0 107.8 L92.4 108.9 Z" fill-rule="evenodd"/>
<path d="M170.2 101.0 L173.4 101.0 L173.4 110.0 L170.2 110.0 Z"/>
<path d="M179.8 110.0 L179.7 111.3 L179.4 112.5 L178.9 113.6 L178.3 114.7 L177.5 115.7 L176.5 116.5 L175.4 117.1 L174.3 117.6 L173.1 117.9 L171.8 118.0 L170.6 117.9 L169.3 117.6 L168.2 117.1 L167.1 116.5 L166.2 115.7 L165.3 114.7 L164.7 113.6 L164.2 112.5 L163.9 111.3 L163.8 110.0 L163.9 108.8 L164.2 107.5 L164.7 106.4 L165.3 105.3 L166.2 104.4 L167.1 103.5 L168.2 102.9 L169.3 102.4 L170.6 102.1 L171.8 102.0 L173.1 102.1 L174.3 102.4 L175.4 102.9 L176.5 103.5 L177.5 104.4 L178.3 105.3 L178.9 106.4 L179.4 107.5 L179.7 108.8 Z M176.2 110.0 L176.1 111.1 L175.6 112.2 L174.9 113.1 L174.0 113.8 L173.0 114.3 L171.8 114.4 L170.7 114.3 L169.6 113.8 L168.7 113.1 L168.0 112.2 L167.6 111.1 L167.4 110.0 L167.6 108.9 L168.0 107.8 L168.7 106.9 L169.6 106.2 L170.7 105.8 L171.8 105.6 L173.0 105.8 L174.0 106.2 L174.9 106.9 L175.6 107.8 L176.1 108.9 Z" fill-rule="evenodd"/>
<path d="M126.8 100.8 L128.7 54.4 L131.3 54.4 L133.2 100.8 Z"/>
<path d="M140.0 100.8 L139.9 102.4 L139.5 103.9 L138.9 105.4 L138.1 106.7 L137.1 107.9 L135.9 108.9 L134.6 109.7 L133.1 110.3 L131.6 110.7 L130.0 110.8 L128.4 110.7 L126.9 110.3 L125.4 109.7 L124.1 108.9 L122.9 107.9 L121.9 106.7 L121.1 105.4 L120.5 103.9 L120.1 102.4 L120.0 100.8 L120.1 99.2 L120.5 97.7 L121.1 96.2 L121.9 94.9 L122.9 93.7 L124.1 92.7 L125.4 91.9 L126.9 91.3 L128.4 90.9 L130.0 90.8 L131.6 90.9 L133.1 91.3 L134.6 91.9 L135.9 92.7 L137.1 93.7 L138.1 94.9 L138.9 96.2 L139.5 97.7 L139.9 99.2 Z M124.8 100.4 L135.2 100.4 L135.2 102.2 L124.8 102.2 Z" fill-rule="evenodd"/>
</g></svg>
