<svg xmlns="http://www.w3.org/2000/svg" viewBox="0 42 260 79"><g id="sil" fill="currentColor">
<path d="M14.0 100.6 L126.0 108.6 L134.0 108.6 L246.0 100.6 L246.0 102.4 L134.0 113.0 L126.0 113.0 L14.0 102.4 Z"/>
<path d="M116.9 98.5 L116.9 99.1 L116.8 99.7 L116.5 100.2 L116.2 100.7 L115.9 101.1 L115.4 101.5 L115.0 101.8 L114.4 102.0 L113.9 102.1 L113.3 102.1 L112.8 102.1 L112.2 102.0 L111.7 101.8 L111.2 101.5 L110.8 101.1 L110.4 100.7 L110.1 100.2 L109.9 99.7 L109.8 99.1 L109.7 98.5 L109.8 98.0 L109.9 97.4 L110.1 96.9 L110.4 96.4 L110.8 96.0 L111.2 95.6 L111.7 95.3 L112.2 95.1 L112.8 95.0 L113.3 94.9 L113.9 95.0 L114.4 95.1 L115.0 95.3 L115.4 95.6 L115.9 96.0 L116.2 96.4 L116.5 96.9 L116.8 97.4 L116.9 98.0 Z M115.2 98.5 L115.1 99.1 L114.9 99.6 L114.6 100.0 L114.1 100.2 L113.6 100.4 L113.1 100.4 L112.6 100.2 L112.1 100.0 L111.8 99.6 L111.5 99.1 L111.5 98.5 L111.5 98.0 L111.8 97.5 L112.1 97.1 L112.6 96.8 L113.1 96.7 L113.6 96.7 L114.1 96.8 L114.6 97.1 L114.9 97.5 L115.1 98.0 Z" fill-rule="evenodd"/>
<path d="M150.3 98.5 L150.2 99.1 L150.1 99.7 L149.9 100.2 L149.6 100.7 L149.2 101.1 L148.8 101.5 L148.3 101.8 L147.8 102.0 L147.2 102.1 L146.7 102.1 L146.1 102.1 L145.6 102.0 L145.0 101.8 L144.6 101.5 L144.1 101.1 L143.8 100.7 L143.5 100.2 L143.2 99.7 L143.1 99.1 L143.1 98.5 L143.1 98.0 L143.2 97.4 L143.5 96.9 L143.8 96.4 L144.1 96.0 L144.6 95.6 L145.0 95.3 L145.6 95.1 L146.1 95.0 L146.7 94.9 L147.2 95.0 L147.8 95.1 L148.3 95.3 L148.8 95.6 L149.2 96.0 L149.6 96.4 L149.9 96.9 L150.1 97.4 L150.2 98.0 Z M148.5 98.5 L148.5 99.1 L148.2 99.6 L147.9 100.0 L147.4 100.2 L146.9 100.4 L146.4 100.4 L145.9 100.2 L145.4 100.0 L145.1 99.6 L144.9 99.1 L144.8 98.5 L144.9 98.0 L145.1 97.5 L145.4 97.1 L145.9 96.8 L146.4 96.7 L146.9 96.7 L147.4 96.8 L147.9 97.1 L148.2 97.5 L148.5 98.0 Z" fill-rule="evenodd"/>
<path d="M133.6 87.2 L133.6 87.7 L133.4 88.3 L133.2 88.8 L132.9 89.3 L132.5 89.7 L132.1 90.1 L131.6 90.4 L131.1 90.6 L130.6 90.7 L130.0 90.8 L129.4 90.7 L128.9 90.6 L128.4 90.4 L127.9 90.1 L127.5 89.7 L127.1 89.3 L126.8 88.8 L126.6 88.3 L126.4 87.7 L126.4 87.2 L126.4 86.6 L126.6 86.1 L126.8 85.5 L127.1 85.1 L127.5 84.6 L127.9 84.3 L128.4 84.0 L128.9 83.7 L129.4 83.6 L130.0 83.6 L130.6 83.6 L131.1 83.7 L131.6 84.0 L132.1 84.3 L132.5 84.6 L132.9 85.1 L133.2 85.5 L133.4 86.1 L133.6 86.6 Z M131.9 87.2 L131.8 87.7 L131.6 88.2 L131.2 88.6 L130.8 88.9 L130.3 89.0 L129.7 89.0 L129.2 88.9 L128.8 88.6 L128.4 88.2 L128.2 87.7 L128.1 87.2 L128.2 86.6 L128.4 86.2 L128.8 85.8 L129.2 85.5 L129.7 85.3 L130.3 85.3 L130.8 85.5 L131.2 85.8 L131.6 86.2 L131.8 86.6 Z" fill-rule="evenodd"/>
<path d="M126.8 103.6 L128.7 45.0 L131.3 45.0 L133.2 103.6 Z"/>
<path d="M114.0 45.0 L146.0 45.0 L146.0 48.0 L114.0 48.0 Z"/>
<path d="M143.2 103.6 L143.1 105.9 L142.6 108.1 L141.8 110.2 L140.7 112.1 L139.4 113.8 L137.8 115.3 L136.0 116.5 L134.1 117.3 L132.1 117.9 L130.0 118.0 L127.9 117.9 L125.9 117.3 L124.0 116.5 L122.2 115.3 L120.6 113.8 L119.3 112.1 L118.2 110.2 L117.4 108.1 L116.9 105.9 L116.8 103.6 L116.9 101.3 L117.4 99.1 L118.2 97.0 L119.3 95.1 L120.6 93.4 L122.2 91.9 L124.0 90.7 L125.9 89.9 L127.9 89.3 L130.0 89.2 L132.1 89.3 L134.1 89.9 L136.0 90.7 L137.8 91.9 L139.4 93.4 L140.7 95.1 L141.8 97.0 L142.6 99.1 L143.1 101.3 Z M123.1 103.1 L136.9 103.1 L136.9 104.9 L123.1 104.9 Z" fill-rule="evenodd"/>
</g></svg>
