<svg xmlns="http://www.w3.org/2000/svg" viewBox="0 64 260 57"><g id="sil" fill="currentColor">
<path d="M14.0 102.9 L127.5 108.9 L132.5 108.9 L246.0 102.9 L246.0 105.2 L132.5 114.9 L127.5 114.9 L14.0 105.2 Z"/>
<path d="M104.0 109.9 L104.0 110.5 L103.9 111.1 L103.6 111.7 L103.3 112.2 L102.9 112.7 L102.4 113.1 L101.9 113.4 L101.3 113.7 L100.7 113.8 L100.0 113.9 L99.4 113.8 L98.8 113.7 L98.2 113.4 L97.7 113.1 L97.2 112.7 L96.8 112.2 L96.5 111.7 L96.2 111.1 L96.1 110.5 L96.0 109.9 L96.1 109.2 L96.2 108.6 L96.5 108.1 L96.8 107.5 L97.2 107.0 L97.7 106.6 L98.2 106.3 L98.8 106.1 L99.4 105.9 L100.0 105.9 L100.7 105.9 L101.3 106.1 L101.9 106.3 L102.4 106.6 L102.9 107.0 L103.3 107.5 L103.6 108.1 L103.9 108.6 L104.0 109.2 Z M103.5 109.9 L103.4 110.6 L103.1 111.4 L102.7 112.0 L102.2 112.6 L101.5 113.0 L100.8 113.2 L100.0 113.3 L99.3 113.2 L98.6 113.0 L97.9 112.6 L97.4 112.0 L96.9 111.4 L96.7 110.6 L96.6 109.9 L96.7 109.1 L96.9 108.4 L97.4 107.7 L97.9 107.2 L98.6 106.8 L99.3 106.5 L100.0 106.4 L100.8 106.5 L101.5 106.8 L102.2 107.2 L102.7 107.7 L103.1 108.4 L103.4 109.1 Z" fill-rule="evenodd"/>
<path d="M101.7 109.9 L101.6 110.4 L101.4 110.9 L101.0 111.2 L100.6 111.5 L100.0 111.6 L99.5 111.5 L99.1 111.2 L98.7 110.9 L98.5 110.4 L98.4 109.9 L98.5 109.4 L98.7 108.9 L99.1 108.5 L99.5 108.3 L100.0 108.2 L100.6 108.3 L101.0 108.5 L101.4 108.9 L101.6 109.4 Z"/>
<path d="M164.0 109.9 L163.9 110.5 L163.8 111.1 L163.5 111.7 L163.2 112.2 L162.8 112.7 L162.3 113.1 L161.8 113.4 L161.2 113.7 L160.6 113.8 L160.0 113.9 L159.3 113.8 L158.7 113.7 L158.1 113.4 L157.6 113.1 L157.1 112.7 L156.7 112.2 L156.4 111.7 L156.1 111.1 L156.0 110.5 L156.0 109.9 L156.0 109.2 L156.1 108.6 L156.4 108.1 L156.7 107.5 L157.1 107.0 L157.6 106.6 L158.1 106.3 L158.7 106.1 L159.3 105.9 L160.0 105.9 L160.6 105.9 L161.2 106.1 L161.8 106.3 L162.3 106.6 L162.8 107.0 L163.2 107.5 L163.5 108.1 L163.8 108.6 L163.9 109.2 Z M163.4 109.9 L163.3 110.6 L163.1 111.4 L162.6 112.0 L162.1 112.6 L161.4 113.0 L160.7 113.2 L160.0 113.3 L159.2 113.2 L158.5 113.0 L157.8 112.6 L157.3 112.0 L156.9 111.4 L156.6 110.6 L156.5 109.9 L156.6 109.1 L156.9 108.4 L157.3 107.7 L157.8 107.2 L158.5 106.8 L159.2 106.5 L160.0 106.4 L160.7 106.5 L161.4 106.8 L162.1 107.2 L162.6 107.7 L163.1 108.4 L163.3 109.1 Z" fill-rule="evenodd"/>
<path d="M161.6 109.9 L161.5 110.4 L161.3 110.9 L160.9 111.2 L160.5 111.5 L160.0 111.6 L159.4 111.5 L159.0 111.2 L158.6 110.9 L158.4 110.4 L158.3 109.9 L158.4 109.4 L158.6 108.9 L159.0 108.5 L159.4 108.3 L160.0 108.2 L160.5 108.3 L160.9 108.5 L161.3 108.9 L161.5 109.4 Z"/>
<path d="M78.0 108.1 L78.0 108.7 L77.8 109.3 L77.6 109.9 L77.3 110.4 L76.9 110.8 L76.5 111.2 L76.0 111.5 L75.4 111.7 L74.8 111.9 L74.2 111.9 L73.6 111.9 L73.1 111.7 L72.5 111.5 L72.0 111.2 L71.5 110.8 L71.2 110.4 L70.8 109.9 L70.6 109.3 L70.5 108.7 L70.4 108.1 L70.5 107.5 L70.6 107.0 L70.8 106.4 L71.2 105.9 L71.5 105.4 L72.0 105.1 L72.5 104.7 L73.1 104.5 L73.6 104.4 L74.2 104.3 L74.8 104.4 L75.4 104.5 L76.0 104.7 L76.5 105.1 L76.9 105.4 L77.3 105.9 L77.6 106.4 L77.8 107.0 L78.0 107.5 Z M77.5 108.1 L77.4 108.9 L77.2 109.5 L76.8 110.2 L76.3 110.7 L75.7 111.1 L75.0 111.3 L74.2 111.4 L73.5 111.3 L72.8 111.1 L72.2 110.7 L71.7 110.2 L71.3 109.5 L71.0 108.9 L71.0 108.1 L71.0 107.4 L71.3 106.7 L71.7 106.1 L72.2 105.6 L72.8 105.2 L73.5 104.9 L74.2 104.9 L75.0 104.9 L75.7 105.2 L76.3 105.6 L76.8 106.1 L77.2 106.7 L77.4 107.4 Z" fill-rule="evenodd"/>
<path d="M75.8 108.1 L75.8 108.6 L75.5 109.1 L75.2 109.4 L74.7 109.6 L74.2 109.7 L73.7 109.6 L73.3 109.4 L72.9 109.1 L72.7 108.6 L72.6 108.1 L72.7 107.6 L72.9 107.2 L73.3 106.8 L73.7 106.6 L74.2 106.5 L74.7 106.6 L75.2 106.8 L75.5 107.2 L75.8 107.6 Z"/>
<path d="M189.6 108.1 L189.5 108.7 L189.4 109.3 L189.2 109.9 L188.8 110.4 L188.5 110.8 L188.0 111.2 L187.5 111.5 L186.9 111.7 L186.4 111.9 L185.8 111.9 L185.2 111.9 L184.6 111.7 L184.0 111.5 L183.5 111.2 L183.1 110.8 L182.7 110.4 L182.4 109.9 L182.2 109.3 L182.0 108.7 L182.0 108.1 L182.0 107.5 L182.2 107.0 L182.4 106.4 L182.7 105.9 L183.1 105.4 L183.5 105.1 L184.0 104.7 L184.6 104.5 L185.2 104.4 L185.8 104.3 L186.4 104.4 L186.9 104.5 L187.5 104.7 L188.0 105.1 L188.5 105.4 L188.8 105.9 L189.2 106.4 L189.4 107.0 L189.5 107.5 Z M189.0 108.1 L189.0 108.9 L188.7 109.5 L188.3 110.2 L187.8 110.7 L187.2 111.1 L186.5 111.3 L185.8 111.4 L185.0 111.3 L184.3 111.1 L183.7 110.7 L183.2 110.2 L182.8 109.5 L182.6 108.9 L182.5 108.1 L182.6 107.4 L182.8 106.7 L183.2 106.1 L183.7 105.6 L184.3 105.2 L185.0 104.9 L185.8 104.9 L186.5 104.9 L187.2 105.2 L187.8 105.6 L188.3 106.1 L188.7 106.7 L189.0 107.4 Z" fill-rule="evenodd"/>
<path d="M187.4 108.1 L187.3 108.6 L187.1 109.1 L186.7 109.4 L186.3 109.6 L185.8 109.7 L185.3 109.6 L184.8 109.4 L184.5 109.1 L184.2 108.6 L184.2 108.1 L184.2 107.6 L184.5 107.2 L184.8 106.8 L185.3 106.6 L185.8 106.5 L186.3 106.6 L186.7 106.8 L187.1 107.2 L187.3 107.6 Z"/>
<path d="M126.8 107.9 L128.7 67.6 L131.3 67.6 L133.2 107.9 Z"/>
<path d="M138.4 107.9 L138.3 109.5 L138.0 111.0 L137.5 112.5 L136.8 113.8 L136.0 115.0 L135.0 116.1 L133.8 116.9 L132.6 117.5 L131.3 117.9 L130.0 118.0 L128.7 117.9 L127.4 117.5 L126.2 116.9 L125.0 116.1 L124.0 115.0 L123.2 113.8 L122.5 112.5 L122.0 111.0 L121.7 109.5 L121.6 107.9 L121.7 106.3 L122.0 104.8 L122.5 103.3 L123.2 102.0 L124.0 100.8 L125.0 99.7 L126.2 98.9 L127.4 98.3 L128.7 97.9 L130.0 97.8 L131.3 97.9 L132.6 98.3 L133.8 98.9 L135.0 99.7 L136.0 100.8 L136.8 102.0 L137.5 103.3 L138.0 104.8 L138.3 106.3 Z M125.6 107.4 L134.4 107.4 L134.4 109.2 L125.6 109.2 Z" fill-rule="evenodd"/>
</g></svg>
