<svg xmlns="http://www.w3.org/2000/svg" viewBox="0 40 260 88"><g id="sil" fill="currentColor">
<path d="M150.4 90.7 L150.0 94.2 L149.1 97.7 L147.6 100.9 L145.6 103.8 L143.1 106.3 L140.2 108.3 L137.0 109.8 L133.5 110.7 L130.0 111.0 L126.5 110.7 L123.0 109.8 L119.8 108.3 L116.9 106.3 L114.4 103.8 L112.4 100.9 L110.9 97.7 L110.0 94.2 L109.6 90.7 L110.0 87.2 L110.9 83.7 L112.4 80.5 L114.4 77.6 L116.9 75.1 L119.8 73.1 L123.0 71.6 L126.5 70.6 L130.0 70.3 L133.5 70.6 L137.0 71.6 L140.2 73.1 L143.1 75.1 L145.6 77.6 L147.6 80.5 L149.1 83.7 L150.0 87.2 Z M148.6 90.7 L148.3 93.9 L147.4 97.0 L146.1 100.0 L144.2 102.6 L141.9 104.9 L139.3 106.8 L136.3 108.1 L133.2 109.0 L130.0 109.3 L126.8 109.0 L123.7 108.1 L120.7 106.8 L118.1 104.9 L115.8 102.6 L113.9 100.0 L112.6 97.0 L111.7 93.9 L111.4 90.7 L111.7 87.5 L112.6 84.3 L113.9 81.4 L115.8 78.8 L118.1 76.5 L120.7 74.6 L123.7 73.3 L126.8 72.4 L130.0 72.1 L133.2 72.4 L136.3 73.3 L139.3 74.6 L141.9 76.5 L144.2 78.8 L146.1 81.4 L147.4 84.3 L148.3 87.5 Z" fill-rule="evenodd"/>
<path d="M14.0 81.3 L116.3 80.2 L143.7 80.2 L246.0 81.3 L246.0 84.2 L143.7 83.8 L116.3 83.8 L14.0 84.2 Z"/>
<path d="M119.5 97.5 L76.6 83.8 L76.6 86.1 L119.5 99.9 Z"/>
<path d="M140.5 97.5 L183.4 83.8 L183.4 86.1 L140.5 99.9 Z"/>
<path d="M127.3 90.7 L128.6 58.6 L131.4 58.6 L132.7 90.7 Z"/>
<path d="M128.7 96.9 L131.3 96.9 L131.3 109.7 L128.7 109.7 Z"/>
<path d="M133.4 112.6 L133.2 113.7 L132.7 114.6 L132.0 115.4 L131.0 115.8 L130.0 116.0 L129.0 115.8 L128.0 115.4 L127.3 114.6 L126.8 113.7 L126.6 112.6 L126.8 111.6 L127.3 110.6 L128.0 109.9 L129.0 109.4 L130.0 109.3 L131.0 109.4 L132.0 109.9 L132.7 110.6 L133.2 111.6 Z"/>
<path d="M122.5 99.7 L103.6 108.8 L100.9 108.8 L120.0 99.7 Z"/>
<path d="M107.6 112.0 L107.4 113.2 L106.9 114.3 L106.0 115.2 L104.9 115.8 L103.6 116.0 L102.4 115.8 L101.3 115.2 L100.4 114.3 L99.8 113.2 L99.6 112.0 L99.8 110.8 L100.4 109.6 L101.3 108.8 L102.4 108.2 L103.6 108.0 L104.9 108.2 L106.0 108.8 L106.9 109.6 L107.4 110.8 Z"/>
<path d="M137.5 99.7 L156.4 108.8 L159.1 108.8 L140.0 99.7 Z"/>
<path d="M160.4 112.0 L160.2 113.2 L159.6 114.3 L158.7 115.2 L157.6 115.8 L156.4 116.0 L155.1 115.8 L154.0 115.2 L153.1 114.3 L152.6 113.2 L152.4 112.0 L152.6 110.8 L153.1 109.6 L154.0 108.8 L155.1 108.2 L156.4 108.0 L157.6 108.2 L158.7 108.8 L159.6 109.6 L160.2 110.8 Z"/>
<path d="M142.4 90.7 L142.3 92.9 L141.7 94.9 L140.8 96.9 L139.5 98.7 L138.0 100.2 L136.2 101.5 L134.3 102.4 L132.2 102.9 L130.0 103.1 L127.8 102.9 L125.7 102.4 L123.8 101.5 L122.0 100.2 L120.5 98.7 L119.2 96.9 L118.3 94.9 L117.7 92.9 L117.6 90.7 L117.7 88.5 L118.3 86.4 L119.2 84.5 L120.5 82.7 L122.0 81.2 L123.8 79.9 L125.7 79.0 L127.8 78.4 L130.0 78.2 L132.2 78.4 L134.3 79.0 L136.2 79.9 L138.0 81.2 L139.5 82.7 L140.8 84.5 L141.7 86.4 L142.3 88.5 Z M122.3 88.8 L137.7 88.8 L137.7 92.6 L122.3 92.6 Z" fill-rule="evenodd"/>
</g></svg>
