<svg xmlns="http://www.w3.org/2000/svg" viewBox="0 71 260 50"><g id="sil" fill="currentColor">
<path d="M14.0 109.3 L126.5 103.3 L133.5 103.3 L246.0 109.3 L246.0 111.4 L133.5 108.1 L126.5 108.1 L14.0 111.4 Z"/>
<path d="M106.4 105.4 L109.6 105.4 L109.6 113.3 L106.4 113.3 Z"/>
<path d="M101.2 108.7 L114.7 108.7 L114.7 118.0 L101.2 118.0 L102.8 110.8 L113.1 110.8 L113.1 116.0 L102.8 116.0 Z"/>
<path d="M150.4 105.4 L153.6 105.4 L153.6 113.3 L150.4 113.3 Z"/>
<path d="M145.3 108.7 L158.8 108.7 L158.8 118.0 L145.3 118.0 L146.9 110.8 L157.2 110.8 L157.2 116.0 L146.9 116.0 Z"/>
<path d="M94.4 100.9 L86.9 74.7 L91.0 74.7 L104.6 100.9 Z"/>
<path d="M155.4 100.9 L169.0 74.7 L173.1 74.7 L165.6 100.9 Z"/>
<path d="M115.0 96.0 L145.0 96.0 L145.0 99.6 L115.0 99.6 Z"/>
<path d="M144.4 100.9 L144.3 103.3 L143.6 105.7 L142.8 107.9 L141.7 110.1 L140.2 111.9 L138.4 113.6 L136.6 114.8 L134.5 115.7 L132.2 116.3 L130.0 116.4 L127.8 116.3 L125.5 115.7 L123.4 114.8 L121.6 113.6 L119.8 111.9 L118.3 110.1 L117.2 107.9 L116.4 105.7 L115.7 103.3 L115.6 100.9 L115.7 98.5 L116.4 96.1 L117.2 93.8 L118.3 91.7 L119.8 89.9 L121.6 88.2 L123.4 87.0 L125.5 86.0 L127.8 85.4 L130.0 85.3 L132.2 85.4 L134.5 86.0 L136.6 87.0 L138.4 88.2 L140.2 89.9 L141.7 91.7 L142.8 93.8 L143.6 96.1 L144.3 98.5 Z"/>
<path d="M76.6 113.7 L128.4 107.7 L131.6 107.7 L183.4 113.7 L183.4 115.8 L131.6 112.5 L128.4 112.5 L76.6 115.8 Z"/>
</g></svg>