<svg xmlns="http://www.w3.org/2000/svg" viewBox="0 40 260 88"><g id="sil" fill="currentColor">
<path d="M14.0 99.8 L112.7 98.9 L147.3 98.9 L246.0 99.8 L246.0 102.3 L147.3 102.0 L112.7 102.0 L14.0 102.3 Z"/>
<path d="M128.9 97.3 L131.1 97.3 L131.1 110.5 L128.9 110.5 Z"/>
<path d="M133.0 113.0 L132.8 114.1 L132.3 114.9 L131.5 115.6 L130.5 116.0 L129.5 116.0 L128.5 115.6 L127.7 114.9 L127.2 114.1 L127.0 113.0 L127.2 112.0 L127.7 111.2 L128.5 110.5 L129.5 110.1 L130.5 110.1 L131.5 110.5 L132.3 111.2 L132.8 112.0 Z"/>
<path d="M120.6 100.8 L100.5 109.7 L98.1 109.7 L118.4 100.8 Z"/>
<path d="M103.8 112.7 L103.6 113.8 L103.0 114.8 L102.2 115.6 L101.1 115.9 L99.9 115.9 L98.8 115.6 L97.9 114.8 L97.3 113.8 L97.1 112.7 L97.3 111.5 L97.9 110.5 L98.8 109.8 L99.9 109.4 L101.1 109.4 L102.2 109.8 L103.0 110.5 L103.6 111.5 Z"/>
<path d="M139.4 100.8 L159.5 109.7 L161.9 109.7 L141.6 100.8 Z"/>
<path d="M162.9 112.7 L162.7 113.8 L162.1 114.8 L161.2 115.6 L160.1 115.9 L158.9 115.9 L157.8 115.6 L157.0 114.8 L156.4 113.8 L156.2 112.7 L156.4 111.5 L157.0 110.5 L157.8 109.8 L158.9 109.4 L160.1 109.4 L161.2 109.8 L162.1 110.5 L162.7 111.5 Z"/>
<path d="M128.0 78.4 L94.0 50.7 L89.7 50.7 L122.1 78.4 Z"/>
<path d="M132.0 78.4 L166.0 50.7 L170.3 50.7 L137.9 78.4 Z"/>
<path d="M145.7 89.4 L145.5 92.2 L144.8 94.8 L143.6 97.3 L142.1 99.6 L140.1 101.5 L137.9 103.1 L135.4 104.2 L132.7 104.9 L130.0 105.2 L127.3 104.9 L124.6 104.2 L122.1 103.1 L119.9 101.5 L117.9 99.6 L116.4 97.3 L115.2 94.8 L114.5 92.2 L114.3 89.4 L114.5 86.7 L115.2 84.1 L116.4 81.6 L117.9 79.3 L119.9 77.4 L122.1 75.8 L124.6 74.6 L127.3 73.9 L130.0 73.7 L132.7 73.9 L135.4 74.6 L137.9 75.8 L140.1 77.4 L142.1 79.3 L143.6 81.6 L144.8 84.1 L145.5 86.7 Z M120.6 87.7 L139.4 87.7 L139.4 91.2 L120.6 91.2 Z" fill-rule="evenodd"/>
<path d="M142.2 69.9 L142.0 72.3 L141.3 74.6 L140.1 76.7 L138.6 78.5 L136.8 80.1 L134.7 81.2 L132.4 81.9 L130.0 82.1 L127.6 81.9 L125.3 81.2 L123.2 80.1 L121.4 78.5 L119.9 76.7 L118.7 74.6 L118.0 72.3 L117.8 69.9 L118.0 67.5 L118.7 65.2 L119.9 63.1 L121.4 61.3 L123.2 59.8 L125.3 58.6 L127.6 57.9 L130.0 57.7 L132.4 57.9 L134.7 58.6 L136.8 59.8 L138.6 61.3 L140.1 63.1 L141.3 65.2 L142.0 67.5 Z M140.2 69.9 L140.0 71.9 L139.5 73.8 L138.5 75.6 L137.2 77.2 L135.7 78.4 L133.9 79.4 L132.0 80.0 L130.0 80.1 L128.0 80.0 L126.1 79.4 L124.3 78.4 L122.8 77.2 L121.5 75.6 L120.5 73.8 L120.0 71.9 L119.8 69.9 L120.0 67.9 L120.5 66.0 L121.5 64.2 L122.8 62.7 L124.3 61.4 L126.1 60.5 L128.0 59.9 L130.0 59.7 L132.0 59.9 L133.9 60.5 L135.7 61.4 L137.2 62.7 L138.5 64.2 L139.5 66.0 L140.0 67.9 Z" fill-rule="evenodd"/>
</g></svg>
