<svg xmlns="http://www.w3.org/2000/svg" viewBox="0 37 260 84"><g id="sil" fill="currentColor">
<path d="M15.5 99.0 L126.2 108.0 L133.8 108.0 L244.5 99.0 L244.5 100.8 L133.8 112.4 L126.2 112.4 L15.5 100.8 Z"/>
<path d="M15.5 99.0 L14.0 90.0 L18.0 90.0 L20.0 100.8 Z"/>
<path d="M244.5 99.0 L246.0 90.0 L242.0 90.0 L240.0 100.8 Z"/>
<path d="M84.6 105.4 L87.8 105.4 L87.8 112.2 L84.6 112.2 Z"/>
<path d="M92.0 112.2 L91.9 113.1 L91.7 113.9 L91.4 114.8 L90.9 115.6 L90.3 116.3 L89.6 116.8 L88.9 117.3 L88.0 117.7 L87.1 117.9 L86.2 118.0 L85.3 117.9 L84.4 117.7 L83.6 117.3 L82.8 116.8 L82.1 116.3 L81.5 115.6 L81.1 114.8 L80.7 113.9 L80.5 113.1 L80.4 112.2 L80.5 111.2 L80.7 110.4 L81.1 109.5 L81.5 108.7 L82.1 108.1 L82.8 107.5 L83.6 107.0 L84.4 106.6 L85.3 106.4 L86.2 106.4 L87.1 106.4 L88.0 106.6 L88.9 107.0 L89.6 107.5 L90.3 108.1 L90.9 108.7 L91.4 109.5 L91.7 110.4 L91.9 111.2 Z M89.4 112.2 L89.3 113.0 L89.0 113.7 L88.5 114.4 L87.8 114.9 L87.0 115.2 L86.2 115.3 L85.4 115.2 L84.6 114.9 L84.0 114.4 L83.5 113.7 L83.1 113.0 L83.0 112.2 L83.1 111.3 L83.5 110.6 L84.0 109.9 L84.6 109.4 L85.4 109.1 L86.2 109.0 L87.0 109.1 L87.8 109.4 L88.5 109.9 L89.0 110.6 L89.3 111.3 Z" fill-rule="evenodd"/>
<path d="M172.2 105.4 L175.4 105.4 L175.4 112.2 L172.2 112.2 Z"/>
<path d="M179.6 112.2 L179.5 113.1 L179.3 113.9 L178.9 114.8 L178.5 115.6 L177.9 116.3 L177.2 116.8 L176.4 117.3 L175.6 117.7 L174.7 117.9 L173.8 118.0 L172.9 117.9 L172.0 117.7 L171.1 117.3 L170.4 116.8 L169.7 116.3 L169.1 115.6 L168.6 114.8 L168.3 113.9 L168.1 113.1 L168.0 112.2 L168.1 111.2 L168.3 110.4 L168.6 109.5 L169.1 108.7 L169.7 108.1 L170.4 107.5 L171.1 107.0 L172.0 106.6 L172.9 106.4 L173.8 106.4 L174.7 106.4 L175.6 106.6 L176.4 107.0 L177.2 107.5 L177.9 108.1 L178.5 108.7 L178.9 109.5 L179.3 110.4 L179.5 111.2 Z M177.0 112.2 L176.9 113.0 L176.5 113.7 L176.0 114.4 L175.4 114.9 L174.6 115.2 L173.8 115.3 L173.0 115.2 L172.2 114.9 L171.5 114.4 L171.0 113.7 L170.7 113.0 L170.6 112.2 L170.7 111.3 L171.0 110.6 L171.5 109.9 L172.2 109.4 L173.0 109.1 L173.8 109.0 L174.6 109.1 L175.4 109.4 L176.0 109.9 L176.5 110.6 L176.9 111.3 Z" fill-rule="evenodd"/>
<path d="M126.5 104.0 L128.6 40.6 L131.4 40.6 L133.5 104.0 Z"/>
<path d="M142.8 104.0 L142.7 106.1 L142.2 108.2 L141.4 110.1 L140.4 111.9 L139.1 113.6 L137.5 114.9 L135.8 116.0 L134.0 116.9 L132.0 117.3 L130.0 117.5 L128.0 117.3 L126.0 116.9 L124.2 116.0 L122.5 114.9 L120.9 113.6 L119.6 111.9 L118.6 110.1 L117.8 108.2 L117.3 106.1 L117.2 104.0 L117.3 101.9 L117.8 99.8 L118.6 97.9 L119.6 96.1 L120.9 94.4 L122.5 93.1 L124.2 92.0 L126.0 91.1 L128.0 90.7 L130.0 90.5 L132.0 90.7 L134.0 91.1 L135.8 92.0 L137.5 93.1 L139.1 94.4 L140.4 96.1 L141.4 97.9 L142.2 99.8 L142.7 101.9 Z M123.3 103.5 L136.7 103.5 L136.7 105.3 L123.3 105.3 Z" fill-rule="evenodd"/>
</g></svg>
