<svg xmlns="http://www.w3.org/2000/svg" viewBox="0 63 260 57"><g id="sil" fill="currentColor">
<path d="M14.0 111.5 L126.1 107.5 L133.9 107.5 L246.0 111.5 L246.0 113.0 L133.9 110.9 L126.1 110.9 L14.0 113.0 Z"/>
<path d="M84.5 109.8 L87.7 109.8 L87.7 114.9 L84.5 114.9 Z"/>
<path d="M80.6 111.7 L91.6 111.7 L91.6 118.0 L80.6 118.0 Z M81.9 113.1 L90.2 113.1 L90.2 116.6 L81.9 116.6 Z" fill-rule="evenodd"/>
<path d="M172.3 109.8 L175.5 109.8 L175.5 114.9 L172.3 114.9 Z"/>
<path d="M168.4 111.7 L179.4 111.7 L179.4 118.0 L168.4 118.0 Z M169.8 113.1 L178.1 113.1 L178.1 116.6 L169.8 116.6 Z" fill-rule="evenodd"/>
<path d="M125.0 98.5 L128.0 66 L132.0 66 L135.0 98.5 Z"/>
<path d="M143.1 98.5 L142.9 100.8 L142.4 103.1 L141.6 105.3 L140.6 107.3 L139.2 109.1 L137.7 110.6 L135.9 111.8 L134.0 112.7 L132.0 113.3 L130.0 113.5 L128.0 113.3 L126.0 112.7 L124.1 111.8 L122.3 110.6 L120.8 109.1 L119.4 107.3 L118.4 105.3 L117.6 103.1 L117.1 100.8 L117.0 98.5 L117.1 96.2 L117.6 93.9 L118.4 91.7 L119.4 89.7 L120.8 87.9 L122.3 86.4 L124.1 85.2 L126.0 84.3 L128.0 83.7 L130.0 83.5 L132.0 83.7 L134.0 84.3 L135.9 85.2 L137.7 86.4 L139.2 87.9 L140.6 89.7 L141.6 91.7 L142.4 93.9 L142.9 96.2 Z M123.2 97.8 L136.8 97.8 L136.8 99.6 L123.2 99.6 Z" fill-rule="evenodd"/>
</g></svg>
