<svg xmlns="http://www.w3.org/2000/svg" viewBox="0 41 260 80"><g id="sil" fill="currentColor">
<path d="M14.0 105.4 L126.5 96.7 L133.5 96.7 L246.0 105.4 L246.0 108.5 L133.5 103.6 L126.5 103.6 L14.0 108.5 Z"/>
<path d="M112.1 99.8 L114.5 99.8 L114.5 111.3 L112.1 111.3 Z"/>
<path d="M108.1 104.5 L118.4 104.5 L118.4 118.0 L108.1 118.0 L109.3 107.6 L117.2 107.6 L117.2 115.1 L109.3 115.1 Z"/>
<path d="M145.5 99.8 L147.9 99.8 L147.9 111.3 L145.5 111.3 Z"/>
<path d="M141.6 104.5 L151.9 104.5 L151.9 118.0 L141.6 118.0 L142.8 107.6 L150.7 107.6 L150.7 115.1 L142.8 115.1 Z"/>
<path d="M124.6 93.3 L127.8 44.7 L132.2 44.7 L135.4 93.3 Z"/>
<path d="M115.0 86.2 L145.0 86.2 L145.0 91.4 L115.0 91.4 Z"/>
<path d="M144.4 93.3 L144.3 96.7 L143.6 100.2 L142.8 103.5 L141.7 106.6 L140.2 109.2 L138.4 111.6 L136.6 113.3 L134.5 114.7 L132.2 115.6 L130.0 115.8 L127.8 115.6 L125.5 114.7 L123.4 113.3 L121.6 111.6 L119.8 109.2 L118.3 106.6 L117.2 103.5 L116.4 100.2 L115.7 96.7 L115.6 93.3 L115.7 89.8 L116.4 86.3 L117.2 83.1 L118.3 79.9 L119.8 77.3 L121.6 74.9 L123.4 73.2 L125.5 71.8 L127.8 70.9 L130.0 70.8 L132.2 70.9 L134.5 71.8 L136.6 73.2 L138.4 74.9 L140.2 77.3 L141.7 79.9 L142.8 83.1 L143.6 86.3 L144.3 89.8 Z"/>
<path d="M85.9 111.8 L128.7 103.1 L131.3 103.1 L174.1 111.8 L174.1 114.9 L131.3 110.0 L128.7 110.0 L85.9 114.9 Z"/>
</g></svg>