<svg xmlns="http://www.w3.org/2000/svg" viewBox="0 46 260 75"><g id="sil" fill="currentColor">
<path d="M14.0 102.0 L126.7 99.0 L133.3 99.0 L246.0 102.0 L246.0 104.4 L133.3 104.0 L126.7 104.0 L14.0 104.4 Z"/>
<path d="M106.7 102.1 L106.5 104.4 L106.0 106.7 L105.1 108.9 L103.9 110.9 L102.3 112.7 L100.5 114.2 L98.5 115.4 L96.4 116.3 L94.1 116.9 L91.7 117.1 L89.4 116.9 L87.1 116.3 L84.9 115.4 L82.9 114.2 L81.1 112.7 L79.6 110.9 L78.4 108.9 L77.4 106.7 L76.9 104.4 L76.7 102.1 L76.9 99.7 L77.4 97.4 L78.4 95.3 L79.6 93.2 L81.1 91.5 L82.9 89.9 L84.9 88.7 L87.1 87.8 L89.4 87.2 L91.7 87.1 L94.1 87.2 L96.4 87.8 L98.5 88.7 L100.5 89.9 L102.3 91.5 L103.9 93.2 L105.1 95.3 L106.0 97.4 L106.5 99.7 Z M104.6 102.1 L104.3 104.9 L103.3 107.7 L101.8 110.1 L99.8 112.1 L97.3 113.7 L94.6 114.6 L91.7 115.0 L88.8 114.6 L86.1 113.7 L83.7 112.1 L81.6 110.1 L80.1 107.7 L79.1 104.9 L78.8 102.1 L79.1 99.2 L80.1 96.5 L81.6 94.0 L83.7 92.0 L86.1 90.4 L88.8 89.5 L91.7 89.2 L94.6 89.5 L97.3 90.4 L99.8 92.0 L101.8 94.0 L103.3 96.5 L104.3 99.2 Z" fill-rule="evenodd"/>
<path d="M98.0 102.1 L97.7 104.0 L96.8 105.8 L95.4 107.2 L93.7 108.1 L91.7 108.4 L89.8 108.1 L88.0 107.2 L86.6 105.8 L85.7 104.0 L85.4 102.1 L85.7 100.1 L86.6 98.4 L88.0 97.0 L89.8 96.1 L91.7 95.8 L93.7 96.1 L95.4 97.0 L96.8 98.4 L97.7 100.1 Z"/>
<path d="M183.3 102.1 L183.1 104.4 L182.6 106.7 L181.6 108.9 L180.4 110.9 L178.9 112.7 L177.1 114.2 L175.1 115.4 L172.9 116.3 L170.6 116.9 L168.3 117.1 L165.9 116.9 L163.6 116.3 L161.5 115.4 L159.5 114.2 L157.7 112.7 L156.1 110.9 L154.9 108.9 L154.0 106.7 L153.5 104.4 L153.3 102.1 L153.5 99.7 L154.0 97.4 L154.9 95.3 L156.1 93.2 L157.7 91.5 L159.5 89.9 L161.5 88.7 L163.6 87.8 L165.9 87.2 L168.3 87.1 L170.6 87.2 L172.9 87.8 L175.1 88.7 L177.1 89.9 L178.9 91.5 L180.4 93.2 L181.6 95.3 L182.6 97.4 L183.1 99.7 Z M181.2 102.1 L180.9 104.9 L179.9 107.7 L178.4 110.1 L176.3 112.1 L173.9 113.7 L171.2 114.6 L168.3 115.0 L165.4 114.6 L162.7 113.7 L160.2 112.1 L158.2 110.1 L156.7 107.7 L155.7 104.9 L155.4 102.1 L155.7 99.2 L156.7 96.5 L158.2 94.0 L160.2 92.0 L162.7 90.4 L165.4 89.5 L168.3 89.2 L171.2 89.5 L173.9 90.4 L176.3 92.0 L178.4 94.0 L179.9 96.5 L180.9 99.2 Z" fill-rule="evenodd"/>
<path d="M174.6 102.1 L174.3 104.0 L173.4 105.8 L172.0 107.2 L170.2 108.1 L168.3 108.4 L166.3 108.1 L164.6 107.2 L163.2 105.8 L162.3 104.0 L162.0 102.1 L162.3 100.1 L163.2 98.4 L164.6 97.0 L166.3 96.1 L168.3 95.8 L170.2 96.1 L172.0 97.0 L173.4 98.4 L174.3 100.1 Z"/>
<path d="M126.8 107.0 L128.7 49.9 L131.3 49.9 L133.2 107.0 Z"/>
<path d="M114.0 49.9 L146.0 49.9 L146.0 52.9 L114.0 52.9 Z"/>
<path d="M141.0 107.0 L140.8 108.7 L140.4 110.4 L139.8 112.0 L138.9 113.5 L137.8 114.8 L136.5 115.9 L135.0 116.8 L133.4 117.4 L131.7 117.8 L130.0 118.0 L128.3 117.8 L126.6 117.4 L125.0 116.8 L123.5 115.9 L122.2 114.8 L121.1 113.5 L120.2 112.0 L119.6 110.4 L119.2 108.7 L119.0 107.0 L119.2 105.3 L119.6 103.6 L120.2 102.0 L121.1 100.5 L122.2 99.2 L123.5 98.1 L125.0 97.2 L126.6 96.6 L128.3 96.2 L130.0 96.0 L131.7 96.2 L133.4 96.6 L135.0 97.2 L136.5 98.1 L137.8 99.2 L138.9 100.5 L139.8 102.0 L140.4 103.6 L140.8 105.3 Z M124.3 105.5 L135.7 105.5 L135.7 107.3 L124.3 107.3 Z" fill-rule="evenodd"/>
</g></svg>
