<svg xmlns="http://www.w3.org/2000/svg" viewBox="0 40 260 88"><g id="sil" fill="currentColor">
<path d="M149.0 97.6 L148.7 100.9 L147.8 104.1 L146.4 107.1 L144.5 109.8 L142.2 112.2 L139.5 114.1 L136.5 115.5 L133.3 116.3 L130.0 116.6 L126.7 116.3 L123.5 115.5 L120.5 114.1 L117.8 112.2 L115.5 109.8 L113.6 107.1 L112.2 104.1 L111.3 100.9 L111.0 97.6 L111.3 94.4 L112.2 91.2 L113.6 88.2 L115.5 85.5 L117.8 83.1 L120.5 81.2 L123.5 79.8 L126.7 79.0 L130.0 78.7 L133.3 79.0 L136.5 79.8 L139.5 81.2 L142.2 83.1 L144.5 85.5 L146.4 88.2 L147.8 91.2 L148.7 94.4 Z M147.3 97.6 L147.0 100.6 L146.2 103.5 L144.9 106.3 L143.2 108.7 L141.1 110.9 L138.6 112.6 L135.9 113.9 L133.0 114.6 L130.0 114.9 L127.0 114.6 L124.1 113.9 L121.4 112.6 L118.9 110.9 L116.8 108.7 L115.1 106.3 L113.8 103.5 L113.0 100.6 L112.7 97.6 L113.0 94.7 L113.8 91.7 L115.1 89.0 L116.8 86.6 L118.9 84.4 L121.4 82.7 L124.1 81.4 L127.0 80.7 L130.0 80.4 L133.0 80.7 L135.9 81.4 L138.6 82.7 L141.1 84.4 L143.2 86.6 L144.9 89.0 L146.2 91.7 L147.0 94.7 Z" fill-rule="evenodd"/>
<path d="M14.0 105.2 L117.9 104.2 L142.1 104.2 L246.0 105.2 L246.0 108.0 L142.1 107.6 L117.9 107.6 L14.0 108.0 Z"/>
<path d="M127.4 97.6 L128.7 76.7 L131.3 76.7 L132.6 97.6 Z"/>
<path d="M103.3 76.7 L156.7 76.7 L156.7 79.7 L103.3 79.7 Z"/>
<path d="M128.8 103.1 L131.2 103.1 L131.2 110.0 L128.8 110.0 Z"/>
<path d="M133.2 112.8 L133.0 113.8 L132.6 114.7 L131.9 115.4 L131.0 115.8 L130.0 116.0 L129.0 115.8 L128.1 115.4 L127.4 114.7 L127.0 113.8 L126.8 112.8 L127.0 111.8 L127.4 110.9 L128.1 110.2 L129.0 109.8 L130.0 109.6 L131.0 109.8 L131.9 110.2 L132.6 110.9 L133.0 111.8 Z"/>
<path d="M123.4 105.5 L110.7 109.2 L108.1 109.2 L121.0 105.5 Z"/>
<path d="M114.4 112.2 L114.3 113.4 L113.7 114.4 L112.9 115.3 L111.8 115.8 L110.7 116.0 L109.5 115.8 L108.4 115.3 L107.6 114.4 L107.0 113.4 L106.9 112.2 L107.0 111.0 L107.6 110.0 L108.4 109.1 L109.5 108.6 L110.7 108.4 L111.8 108.6 L112.9 109.1 L113.7 110.0 L114.3 111.0 Z"/>
<path d="M136.6 105.5 L149.3 109.2 L151.9 109.2 L139.0 105.5 Z"/>
<path d="M153.1 112.2 L153.0 113.4 L152.4 114.4 L151.6 115.3 L150.5 115.8 L149.3 116.0 L148.2 115.8 L147.1 115.3 L146.3 114.4 L145.7 113.4 L145.6 112.2 L145.7 111.0 L146.3 110.0 L147.1 109.1 L148.2 108.6 L149.3 108.4 L150.5 108.6 L151.6 109.1 L152.4 110.0 L153.0 111.0 Z"/>
<path d="M141.0 97.6 L140.8 99.6 L140.3 101.4 L139.5 103.1 L138.4 104.7 L137.1 106.1 L135.5 107.1 L133.8 108.0 L131.9 108.5 L130.0 108.6 L128.1 108.5 L126.2 108.0 L124.5 107.1 L122.9 106.1 L121.6 104.7 L120.5 103.1 L119.7 101.4 L119.2 99.6 L119.0 97.6 L119.2 95.7 L119.7 93.9 L120.5 92.2 L121.6 90.6 L122.9 89.2 L124.5 88.1 L126.2 87.3 L128.1 86.8 L130.0 86.7 L131.9 86.8 L133.8 87.3 L135.5 88.1 L137.1 89.2 L138.4 90.6 L139.5 92.2 L140.3 93.9 L140.8 95.7 Z M123.2 95.9 L136.8 95.9 L136.8 99.4 L123.2 99.4 Z" fill-rule="evenodd"/>
</g></svg>
