<svg xmlns="http://www.w3.org/2000/svg" viewBox="0 47 260 74"><g id="sil" fill="currentColor">
<path d="M14.0 100.4 L127.1 110.4 L132.9 110.4 L246.0 100.4 L246.0 102.2 L132.9 114.8 L127.1 114.8 L14.0 102.2 Z"/>
<path d="M91.2 108.0 L94.4 108.0 L94.4 113.8 L91.2 113.8 Z"/>
<path d="M97.0 113.8 L96.9 114.4 L96.8 115.1 L96.5 115.7 L96.2 116.2 L95.7 116.7 L95.2 117.2 L94.7 117.5 L94.1 117.8 L93.4 117.9 L92.8 118.0 L92.1 117.9 L91.5 117.8 L90.9 117.5 L90.3 117.2 L89.8 116.7 L89.4 116.2 L89.0 115.7 L88.8 115.1 L88.6 114.4 L88.6 113.8 L88.6 113.1 L88.8 112.5 L89.0 111.9 L89.4 111.3 L89.8 110.8 L90.3 110.4 L90.9 110.0 L91.5 109.8 L92.1 109.6 L92.8 109.6 L93.4 109.6 L94.1 109.8 L94.7 110.0 L95.2 110.4 L95.7 110.8 L96.2 111.3 L96.5 111.9 L96.8 112.5 L96.9 113.1 Z M95.1 113.8 L95.0 114.4 L94.8 114.9 L94.4 115.4 L93.9 115.8 L93.4 116.0 L92.8 116.1 L92.2 116.0 L91.6 115.8 L91.1 115.4 L90.8 114.9 L90.5 114.4 L90.5 113.8 L90.5 113.2 L90.8 112.6 L91.1 112.1 L91.6 111.8 L92.2 111.5 L92.8 111.5 L93.4 111.5 L93.9 111.8 L94.4 112.1 L94.8 112.6 L95.0 113.2 Z" fill-rule="evenodd"/>
<path d="M165.6 108.0 L168.8 108.0 L168.8 113.8 L165.6 113.8 Z"/>
<path d="M171.4 113.8 L171.4 114.4 L171.2 115.1 L171.0 115.7 L170.6 116.2 L170.2 116.7 L169.7 117.2 L169.1 117.5 L168.5 117.8 L167.9 117.9 L167.2 118.0 L166.6 117.9 L165.9 117.8 L165.3 117.5 L164.8 117.2 L164.3 116.7 L163.8 116.2 L163.5 115.7 L163.2 115.1 L163.1 114.4 L163.0 113.8 L163.1 113.1 L163.2 112.5 L163.5 111.9 L163.8 111.3 L164.3 110.8 L164.8 110.4 L165.3 110.0 L165.9 109.8 L166.6 109.6 L167.2 109.6 L167.9 109.6 L168.5 109.8 L169.1 110.0 L169.7 110.4 L170.2 110.8 L170.6 111.3 L171.0 111.9 L171.2 112.5 L171.4 113.1 Z M169.5 113.8 L169.5 114.4 L169.2 114.9 L168.9 115.4 L168.4 115.8 L167.8 116.0 L167.2 116.1 L166.6 116.0 L166.1 115.8 L165.6 115.4 L165.2 114.9 L165.0 114.4 L164.9 113.8 L165.0 113.2 L165.2 112.6 L165.6 112.1 L166.1 111.8 L166.6 111.5 L167.2 111.5 L167.8 111.5 L168.4 111.8 L168.9 112.1 L169.2 112.6 L169.5 113.2 Z" fill-rule="evenodd"/>
<path d="M59.2 105.2 L62.4 105.2 L62.4 110.1 L59.2 110.1 Z"/>
<path d="M64.7 110.1 L64.7 110.7 L64.5 111.3 L64.3 111.9 L64.0 112.4 L63.6 112.9 L63.1 113.2 L62.6 113.6 L62.0 113.8 L61.4 113.9 L60.8 114.0 L60.2 113.9 L59.6 113.8 L59.1 113.6 L58.5 113.2 L58.1 112.9 L57.7 112.4 L57.4 111.9 L57.1 111.3 L57.0 110.7 L56.9 110.1 L57.0 109.5 L57.1 108.9 L57.4 108.3 L57.7 107.8 L58.1 107.3 L58.5 106.9 L59.1 106.6 L59.6 106.4 L60.2 106.2 L60.8 106.2 L61.4 106.2 L62.0 106.4 L62.6 106.6 L63.1 106.9 L63.6 107.3 L64.0 107.8 L64.3 108.3 L64.5 108.9 L64.7 109.5 Z M63.0 110.1 L62.9 110.6 L62.7 111.2 L62.3 111.6 L61.9 112.0 L61.4 112.2 L60.8 112.2 L60.3 112.2 L59.8 112.0 L59.3 111.6 L59.0 111.2 L58.8 110.6 L58.7 110.1 L58.8 109.5 L59.0 109.0 L59.3 108.6 L59.8 108.2 L60.3 108.0 L60.8 107.9 L61.4 108.0 L61.9 108.2 L62.3 108.6 L62.7 109.0 L62.9 109.5 Z" fill-rule="evenodd"/>
<path d="M197.6 105.2 L200.8 105.2 L200.8 110.1 L197.6 110.1 Z"/>
<path d="M203.1 110.1 L203.0 110.7 L202.9 111.3 L202.6 111.9 L202.3 112.4 L201.9 112.9 L201.5 113.2 L200.9 113.6 L200.4 113.8 L199.8 113.9 L199.2 114.0 L198.6 113.9 L198.0 113.8 L197.4 113.6 L196.9 113.2 L196.4 112.9 L196.0 112.4 L195.7 111.9 L195.5 111.3 L195.3 110.7 L195.3 110.1 L195.3 109.5 L195.5 108.9 L195.7 108.3 L196.0 107.8 L196.4 107.3 L196.9 106.9 L197.4 106.6 L198.0 106.4 L198.6 106.2 L199.2 106.2 L199.8 106.2 L200.4 106.4 L200.9 106.6 L201.5 106.9 L201.9 107.3 L202.3 107.8 L202.6 108.3 L202.9 108.9 L203.0 109.5 Z M201.3 110.1 L201.2 110.6 L201.0 111.2 L200.7 111.6 L200.2 112.0 L199.7 112.2 L199.2 112.2 L198.6 112.2 L198.1 112.0 L197.7 111.6 L197.3 111.2 L197.1 110.6 L197.0 110.1 L197.1 109.5 L197.3 109.0 L197.7 108.6 L198.1 108.2 L198.6 108.0 L199.2 107.9 L199.7 108.0 L200.2 108.2 L200.7 108.6 L201.0 109.0 L201.2 109.5 Z" fill-rule="evenodd"/>
<path d="M126.8 106.4 L128.7 50.8 L131.3 50.8 L133.2 106.4 Z"/>
<path d="M139.6 106.4 L139.4 108.0 L139.1 109.6 L138.5 111.2 L137.7 112.6 L136.8 113.8 L135.6 114.9 L134.3 115.8 L133.0 116.4 L131.5 116.8 L130.0 116.9 L128.5 116.8 L127.0 116.4 L125.7 115.8 L124.4 114.9 L123.2 113.8 L122.3 112.6 L121.5 111.2 L120.9 109.6 L120.6 108.0 L120.4 106.4 L120.6 104.8 L120.9 103.2 L121.5 101.6 L122.3 100.2 L123.2 99.0 L124.4 97.9 L125.7 97.0 L127.0 96.4 L128.5 96.0 L130.0 95.9 L131.5 96.0 L133.0 96.4 L134.3 97.0 L135.6 97.9 L136.8 99.0 L137.7 100.2 L138.5 101.6 L139.1 103.2 L139.4 104.8 Z M125.0 105.9 L135.0 105.9 L135.0 107.7 L125.0 107.7 Z" fill-rule="evenodd"/>
</g></svg>
