<svg xmlns="http://www.w3.org/2000/svg" viewBox="0 43 260 78"><g id="sil" fill="currentColor">
<path d="M20.0 99.6 L127.0 108.6 L133.0 108.6 L240.0 99.6 L240.0 101.3 L133.0 112.6 L127.0 112.6 L20.0 101.3 Z"/>
<path d="M20.0 99.6 L14.0 94.6 L17.0 94.6 L23.0 101.3 Z"/>
<path d="M240.0 99.6 L246.0 94.6 L243.0 94.6 L237.0 101.3 Z"/>
<path d="M86.6 106.0 L89.8 106.0 L89.8 112.4 L86.6 112.4 Z"/>
<path d="M93.8 112.4 L93.8 113.3 L93.6 114.1 L93.2 114.9 L92.8 115.7 L92.2 116.3 L91.5 116.9 L90.8 117.4 L90.0 117.7 L89.1 117.9 L88.2 118.0 L87.4 117.9 L86.5 117.7 L85.7 117.4 L84.9 116.9 L84.3 116.3 L83.7 115.7 L83.2 114.9 L82.9 114.1 L82.7 113.3 L82.6 112.4 L82.7 111.5 L82.9 110.7 L83.2 109.8 L83.7 109.1 L84.3 108.4 L84.9 107.9 L85.7 107.4 L86.5 107.1 L87.4 106.9 L88.2 106.8 L89.1 106.9 L90.0 107.1 L90.8 107.4 L91.5 107.9 L92.2 108.4 L92.8 109.1 L93.2 109.8 L93.6 110.7 L93.8 111.5 Z M91.3 112.4 L91.2 113.2 L90.9 113.9 L90.4 114.6 L89.8 115.1 L89.0 115.4 L88.2 115.5 L87.4 115.4 L86.7 115.1 L86.1 114.6 L85.6 113.9 L85.3 113.2 L85.2 112.4 L85.3 111.6 L85.6 110.8 L86.1 110.2 L86.7 109.7 L87.4 109.4 L88.2 109.3 L89.0 109.4 L89.8 109.7 L90.4 110.2 L90.9 110.8 L91.2 111.6 Z" fill-rule="evenodd"/>
<path d="M170.2 106.0 L173.4 106.0 L173.4 112.4 L170.2 112.4 Z"/>
<path d="M177.4 112.4 L177.3 113.3 L177.1 114.1 L176.8 114.9 L176.3 115.7 L175.7 116.3 L175.1 116.9 L174.3 117.4 L173.5 117.7 L172.6 117.9 L171.8 118.0 L170.9 117.9 L170.0 117.7 L169.2 117.4 L168.5 116.9 L167.8 116.3 L167.2 115.7 L166.8 114.9 L166.4 114.1 L166.2 113.3 L166.2 112.4 L166.2 111.5 L166.4 110.7 L166.8 109.8 L167.2 109.1 L167.8 108.4 L168.5 107.9 L169.2 107.4 L170.0 107.1 L170.9 106.9 L171.8 106.8 L172.6 106.9 L173.5 107.1 L174.3 107.4 L175.1 107.9 L175.7 108.4 L176.3 109.1 L176.8 109.8 L177.1 110.7 L177.3 111.5 Z M174.8 112.4 L174.7 113.2 L174.4 113.9 L173.9 114.6 L173.3 115.1 L172.6 115.4 L171.8 115.5 L171.0 115.4 L170.2 115.1 L169.6 114.6 L169.1 113.9 L168.8 113.2 L168.7 112.4 L168.8 111.6 L169.1 110.8 L169.6 110.2 L170.2 109.7 L171.0 109.4 L171.8 109.3 L172.6 109.4 L173.3 109.7 L173.9 110.2 L174.4 110.8 L174.7 111.6 Z" fill-rule="evenodd"/>
<path d="M126.8 104.6 L128.7 46.0 L131.3 46.0 L133.2 104.6 Z"/>
<path d="M139.9 104.6 L139.8 106.3 L139.5 108.0 L138.9 109.6 L138.0 111.1 L137.0 112.4 L135.8 113.6 L134.5 114.5 L133.1 115.1 L131.6 115.5 L130.0 115.7 L128.4 115.5 L126.9 115.1 L125.5 114.5 L124.2 113.6 L123.0 112.4 L122.0 111.1 L121.1 109.6 L120.5 108.0 L120.2 106.3 L120.1 104.6 L120.2 102.9 L120.5 101.2 L121.1 99.6 L122.0 98.1 L123.0 96.8 L124.2 95.6 L125.5 94.7 L126.9 94.1 L128.4 93.7 L130.0 93.5 L131.6 93.7 L133.1 94.1 L134.5 94.7 L135.8 95.6 L137.0 96.8 L138.0 98.1 L138.9 99.6 L139.5 101.2 L139.8 102.9 Z M124.8 104.1 L135.2 104.1 L135.2 105.9 L124.8 105.9 Z" fill-rule="evenodd"/>
</g></svg>
