<svg xmlns="http://www.w3.org/2000/svg" viewBox="0 41 260 80"><g id="sil" fill="currentColor">
<path d="M14.0 105.7 L126.5 97.2 L133.5 97.2 L246.0 105.7 L246.0 108.7 L133.5 104.0 L126.5 104.0 L14.0 108.7 Z"/>
<path d="M112.1 100.3 L114.5 100.3 L114.5 111.4 L112.1 111.4 Z"/>
<path d="M108.1 104.8 L118.4 104.8 L118.4 118.0 L108.1 118.0 L109.3 107.9 L117.2 107.9 L117.2 115.1 L109.3 115.1 Z"/>
<path d="M145.5 100.3 L147.9 100.3 L147.9 111.4 L145.5 111.4 Z"/>
<path d="M141.6 104.8 L151.9 104.8 L151.9 118.0 L141.6 118.0 L142.8 107.9 L150.7 107.9 L150.7 115.1 L142.8 115.1 Z"/>
<path d="M124.6 93.9 L127.8 44.7 L132.2 44.7 L135.4 93.9 Z"/>
<path d="M115.0 87.0 L145.0 87.0 L145.0 92.0 L115.0 92.0 Z"/>
<path d="M144.2 93.9 L144.0 97.2 L143.4 100.6 L142.6 103.8 L141.5 106.9 L140.0 109.4 L138.3 111.8 L136.5 113.4 L134.4 114.8 L132.2 115.6 L130.0 115.8 L127.8 115.6 L125.6 114.8 L123.5 113.4 L121.7 111.8 L120.0 109.4 L118.5 106.9 L117.4 103.8 L116.6 100.6 L116.0 97.2 L115.8 93.9 L116.0 90.5 L116.6 87.1 L117.4 83.9 L118.5 80.9 L120.0 78.3 L121.7 76.0 L123.5 74.3 L125.6 72.9 L127.8 72.1 L130.0 71.9 L132.2 72.1 L134.4 72.9 L136.5 74.3 L138.3 76.0 L140.0 78.3 L141.5 80.9 L142.6 83.9 L143.4 87.1 L144.0 90.5 Z"/>
<path d="M83.6 111.9 L128.6 103.5 L131.4 103.5 L176.4 111.9 L176.4 114.9 L131.4 110.2 L128.6 110.2 L83.6 114.9 Z"/>
</g></svg>