<svg xmlns="http://www.w3.org/2000/svg" viewBox="0 83 260 38"><g id="sil" fill="currentColor">
<path d="M14.0 110.5 L126.5 107.0 L133.5 107.0 L246.0 110.5 L246.0 112.1 L133.5 110.6 L126.5 110.6 L14.0 112.1 Z"/>
<path d="M102.9 108.6 L106.5 108.6 L106.5 114.5 L102.9 114.5 Z"/>
<path d="M96.9 111.0 L112.4 111.0 L112.4 118.0 L96.9 118.0 L98.7 112.6 L110.6 112.6 L110.6 116.5 L98.7 116.5 Z"/>
<path d="M153.5 108.6 L157.1 108.6 L157.1 114.5 L153.5 114.5 Z"/>
<path d="M147.6 111.0 L163.1 111.0 L163.1 118.0 L147.6 118.0 L149.4 112.6 L161.3 112.6 L161.3 116.5 L149.4 116.5 Z"/>
<path d="M73.6 105.2 L76.8 86.7 L81.2 86.7 L84.4 105.2 Z"/>
<path d="M175.6 105.2 L178.8 86.7 L183.2 86.7 L186.4 105.2 Z"/>
<path d="M115.0 101.6 L145.0 101.6 L145.0 104.3 L115.0 104.3 Z"/>
<path d="M145.1 105.2 L144.9 107.0 L144.3 108.8 L143.4 110.5 L142.2 112.1 L140.7 113.4 L138.8 114.7 L136.9 115.6 L134.7 116.3 L132.3 116.8 L130.0 116.8 L127.7 116.8 L125.3 116.3 L123.1 115.6 L121.2 114.7 L119.3 113.4 L117.8 112.1 L116.6 110.5 L115.7 108.8 L115.0 107.0 L114.9 105.2 L115.0 103.5 L115.7 101.7 L116.6 100.0 L117.8 98.4 L119.3 97.0 L121.2 95.8 L123.1 94.9 L125.3 94.2 L127.7 93.7 L130.0 93.6 L132.3 93.7 L134.7 94.2 L136.9 94.9 L138.8 95.8 L140.7 97.0 L142.2 98.4 L143.4 100.0 L144.3 101.7 L144.9 103.5 Z"/>
</g></svg>