<svg xmlns="http://www.w3.org/2000/svg" viewBox="0 35 260 86"><g id="sil" fill="currentColor">
<path d="M14.0 105.5 L126.5 96.9 L133.5 96.9 L246.0 105.5 L246.0 108.6 L133.5 103.8 L126.5 103.8 L14.0 108.6 Z"/>
<path d="M111.1 100.0 L113.7 100.0 L113.7 111.3 L111.1 111.3 Z"/>
<path d="M107.0 104.6 L117.8 104.6 L117.8 118.0 L107.0 118.0 L108.2 107.7 L116.5 107.7 L116.5 115.1 L108.2 115.1 Z"/>
<path d="M146.3 100.0 L148.9 100.0 L148.9 111.3 L146.3 111.3 Z"/>
<path d="M142.2 104.6 L153.0 104.6 L153.0 118.0 L142.2 118.0 L143.5 107.7 L151.8 107.7 L151.8 115.1 L143.5 115.1 Z"/>
<path d="M124.3 93.5 L127.7 38.2 L132.3 38.2 L135.7 93.5 Z"/>
<path d="M115.0 86.5 L145.0 86.5 L145.0 91.6 L115.0 91.6 Z"/>
<path d="M145.5 93.5 L145.4 96.9 L144.7 100.3 L143.8 103.6 L142.6 106.7 L141.0 109.3 L139.1 111.7 L137.1 113.4 L134.8 114.7 L132.4 115.6 L130.0 115.8 L127.6 115.6 L125.2 114.7 L122.9 113.4 L120.9 111.7 L119.0 109.3 L117.4 106.7 L116.2 103.6 L115.3 100.3 L114.6 96.9 L114.5 93.5 L114.6 90.1 L115.3 86.6 L116.2 83.4 L117.4 80.3 L119.0 77.7 L120.9 75.3 L122.9 73.6 L125.2 72.2 L127.6 71.4 L130.0 71.2 L132.4 71.4 L134.8 72.2 L137.1 73.6 L139.1 75.3 L141.0 77.7 L142.6 80.3 L143.8 83.4 L144.7 86.6 L145.4 90.1 Z"/>
</g></svg>