<svg xmlns="http://www.w3.org/2000/svg" viewBox="0 82 260 39"><g id="sil" fill="currentColor">
<path d="M14.0 111.6 L126.5 107.3 L133.5 107.3 L246.0 111.6 L246.0 113.2 L133.5 110.8 L126.5 110.8 L14.0 113.2 Z"/>
<path d="M106.4 108.8 L109.6 108.8 L109.6 114.6 L106.4 114.6 Z"/>
<path d="M101.2 111.2 L114.7 111.2 L114.7 118.0 L101.2 118.0 L102.8 112.8 L113.1 112.8 L113.1 116.5 L102.8 116.5 Z"/>
<path d="M150.4 108.8 L153.6 108.8 L153.6 114.6 L150.4 114.6 Z"/>
<path d="M145.3 111.2 L158.8 111.2 L158.8 118.0 L145.3 118.0 L146.9 112.8 L157.2 112.8 L157.2 116.5 L146.9 116.5 Z"/>
<path d="M89.8 105.5 L92.2 85.5 L96.7 85.5 L101.2 105.5 Z"/>
<path d="M158.8 105.5 L163.3 85.5 L167.8 85.5 L170.2 105.5 Z"/>
<path d="M115.0 101.9 L145.0 101.9 L145.0 104.5 L115.0 104.5 Z"/>
<path d="M148.0 105.5 L147.8 107.3 L147.1 109.0 L146.0 110.7 L144.6 112.2 L142.7 113.5 L140.5 114.8 L138.2 115.6 L135.6 116.3 L132.8 116.8 L130.0 116.9 L127.2 116.8 L124.4 116.3 L121.8 115.6 L119.5 114.8 L117.3 113.5 L115.4 112.2 L114.0 110.7 L113.0 109.0 L112.2 107.3 L112.0 105.5 L112.2 103.8 L113.0 102.0 L114.0 100.4 L115.4 98.8 L117.3 97.5 L119.5 96.3 L121.8 95.4 L124.4 94.7 L127.2 94.2 L130.0 94.2 L132.8 94.2 L135.6 94.7 L138.2 95.4 L140.5 96.3 L142.7 97.5 L144.6 98.8 L146.0 100.4 L147.1 102.0 L147.8 103.8 Z"/>
</g></svg>