<svg xmlns="http://www.w3.org/2000/svg" viewBox="0 30 260 98"><g id="sil" fill="currentColor">
<path d="M14.0 96.7 L113.7 95.8 L146.3 95.8 L246.0 96.7 L246.0 99.2 L146.3 98.9 L113.7 98.9 L14.0 99.2 Z"/>
<path d="M128.9 93.7 L131.1 93.7 L131.1 110.6 L128.9 110.6 Z"/>
<path d="M132.9 113.1 L132.7 114.1 L132.2 115.0 L131.4 115.6 L130.5 116.0 L129.5 116.0 L128.6 115.6 L127.8 115.0 L127.3 114.1 L127.1 113.1 L127.3 112.1 L127.8 111.3 L128.6 110.6 L129.5 110.3 L130.5 110.3 L131.4 110.6 L132.2 111.3 L132.7 112.1 Z"/>
<path d="M121.1 97.0 L99.4 109.9 L97.1 109.9 L119.0 97.0 Z"/>
<path d="M102.6 112.7 L102.4 113.9 L101.9 114.8 L101.0 115.6 L99.9 116.0 L98.8 116.0 L97.7 115.6 L96.9 114.8 L96.3 113.9 L96.1 112.7 L96.3 111.6 L96.9 110.7 L97.7 109.9 L98.8 109.5 L99.9 109.5 L101.0 109.9 L101.9 110.7 L102.4 111.6 Z"/>
<path d="M138.9 97.0 L160.6 109.9 L162.9 109.9 L141.0 97.0 Z"/>
<path d="M163.9 112.7 L163.7 113.9 L163.1 114.8 L162.3 115.6 L161.2 116.0 L160.1 116.0 L159.0 115.6 L158.1 114.8 L157.6 113.9 L157.4 112.7 L157.6 111.6 L158.1 110.7 L159.0 109.9 L160.1 109.5 L161.2 109.5 L162.3 109.9 L163.1 110.7 L163.7 111.6 Z"/>
<path d="M127.3 86.3 L128.8 33.7 L131.2 33.7 L132.7 86.3 Z"/>
<path d="M105.6 33.7 L154.4 33.7 L154.4 36.4 L105.6 36.4 Z"/>
<path d="M144.8 86.3 L144.6 88.9 L143.9 91.4 L142.8 93.7 L141.4 95.9 L139.5 97.7 L137.4 99.2 L135.1 100.3 L132.6 100.9 L130.0 101.2 L127.4 100.9 L124.9 100.3 L122.6 99.2 L120.5 97.7 L118.6 95.9 L117.2 93.7 L116.1 91.4 L115.4 88.9 L115.2 86.3 L115.4 83.8 L116.1 81.3 L117.2 78.9 L118.6 76.8 L120.5 75.0 L122.6 73.5 L124.9 72.4 L127.4 71.7 L130.0 71.5 L132.6 71.7 L135.1 72.4 L137.4 73.5 L139.5 75.0 L141.4 76.8 L142.8 78.9 L143.9 81.3 L144.6 83.8 Z M121.1 84.6 L138.9 84.6 L138.9 88.1 L121.1 88.1 Z" fill-rule="evenodd"/>
<path d="M83.1 77.4 L86.9 77.4 L86.9 98.9 L83.1 98.9 Z"/>
<path d="M95.0 77.4 L94.8 79.4 L94.2 81.2 L93.3 83.0 L92.1 84.5 L90.5 85.7 L88.8 86.6 L87.0 87.2 L85.0 87.4 L83.1 87.2 L81.2 86.6 L79.5 85.7 L78.0 84.5 L76.7 83.0 L75.8 81.2 L75.3 79.4 L75.1 77.4 L75.3 75.5 L75.8 73.6 L76.7 71.9 L78.0 70.4 L79.5 69.2 L81.2 68.2 L83.1 67.7 L85.0 67.5 L87.0 67.7 L88.8 68.2 L90.5 69.2 L92.1 70.4 L93.3 71.9 L94.2 73.6 L94.8 75.5 Z M93.1 77.4 L92.9 79.0 L92.4 80.5 L91.7 81.9 L90.7 83.1 L89.5 84.1 L88.1 84.9 L86.6 85.3 L85.0 85.5 L83.4 85.3 L81.9 84.9 L80.5 84.1 L79.3 83.1 L78.3 81.9 L77.6 80.5 L77.1 79.0 L77.0 77.4 L77.1 75.9 L77.6 74.4 L78.3 73.0 L79.3 71.7 L80.5 70.7 L81.9 70.0 L83.4 69.5 L85.0 69.4 L86.6 69.5 L88.1 70.0 L89.5 70.7 L90.7 71.7 L91.7 73.0 L92.4 74.4 L92.9 75.9 Z" fill-rule="evenodd"/>
<path d="M173.1 77.4 L176.9 77.4 L176.9 98.9 L173.1 98.9 Z"/>
<path d="M184.9 77.4 L184.7 79.4 L184.2 81.2 L183.3 83.0 L182.0 84.5 L180.5 85.7 L178.8 86.6 L176.9 87.2 L175.0 87.4 L173.0 87.2 L171.2 86.6 L169.5 85.7 L167.9 84.5 L166.7 83.0 L165.8 81.2 L165.2 79.4 L165.0 77.4 L165.2 75.5 L165.8 73.6 L166.7 71.9 L167.9 70.4 L169.5 69.2 L171.2 68.2 L173.0 67.7 L175.0 67.5 L176.9 67.7 L178.8 68.2 L180.5 69.2 L182.0 70.4 L183.3 71.9 L184.2 73.6 L184.7 75.5 Z M183.0 77.4 L182.9 79.0 L182.4 80.5 L181.7 81.9 L180.7 83.1 L179.5 84.1 L178.1 84.9 L176.6 85.3 L175.0 85.5 L173.4 85.3 L171.9 84.9 L170.5 84.1 L169.3 83.1 L168.3 81.9 L167.6 80.5 L167.1 79.0 L166.9 77.4 L167.1 75.9 L167.6 74.4 L168.3 73.0 L169.3 71.7 L170.5 70.7 L171.9 70.0 L173.4 69.5 L175.0 69.4 L176.6 69.5 L178.1 70.0 L179.5 70.7 L180.7 71.7 L181.7 73.0 L182.4 74.4 L182.9 75.9 Z" fill-rule="evenodd"/>
</g></svg>
