<svg xmlns="http://www.w3.org/2000/svg" viewBox="0 57 260 64"><g id="sil" fill="currentColor">
<path d="M14.0 95.1 L127.3 99.1 L132.7 99.1 L246.0 95.1 L246.0 97.3 L132.7 104.9 L127.3 104.9 L14.0 97.3 Z"/>
<path d="M109.4 100.8 L109.3 101.3 L109.2 101.9 L109.0 102.3 L108.7 102.8 L108.4 103.2 L108.0 103.6 L107.5 103.8 L107.0 104.0 L106.5 104.2 L106.0 104.2 L105.5 104.2 L104.9 104.0 L104.4 103.8 L104.0 103.6 L103.6 103.2 L103.2 102.8 L103.0 102.3 L102.8 101.9 L102.6 101.3 L102.6 100.8 L102.6 100.3 L102.8 99.7 L103.0 99.3 L103.2 98.8 L103.6 98.4 L104.0 98.0 L104.4 97.8 L104.9 97.6 L105.5 97.4 L106.0 97.4 L106.5 97.4 L107.0 97.6 L107.5 97.8 L108.0 98.0 L108.4 98.4 L108.7 98.8 L109.0 99.3 L109.2 99.7 L109.3 100.3 Z M108.9 100.8 L108.8 101.5 L108.6 102.1 L108.3 102.6 L107.8 103.1 L107.3 103.4 L106.6 103.7 L106.0 103.7 L105.3 103.7 L104.7 103.4 L104.2 103.1 L103.7 102.6 L103.4 102.1 L103.1 101.5 L103.1 100.8 L103.1 100.1 L103.4 99.5 L103.7 99.0 L104.2 98.5 L104.7 98.2 L105.3 97.9 L106.0 97.9 L106.6 97.9 L107.3 98.2 L107.8 98.5 L108.3 99.0 L108.6 99.5 L108.8 100.1 Z" fill-rule="evenodd"/>
<path d="M107.4 100.8 L107.3 101.2 L107.1 101.6 L106.8 102.0 L106.4 102.2 L106.0 102.2 L105.5 102.2 L105.1 102.0 L104.8 101.6 L104.6 101.2 L104.6 100.8 L104.6 100.4 L104.8 100.0 L105.1 99.6 L105.5 99.4 L106.0 99.4 L106.4 99.4 L106.8 99.6 L107.1 100.0 L107.3 100.4 Z"/>
<path d="M157.4 100.8 L157.4 101.3 L157.2 101.9 L157.0 102.3 L156.8 102.8 L156.4 103.2 L156.0 103.6 L155.6 103.8 L155.1 104.0 L154.5 104.2 L154.0 104.2 L153.5 104.2 L153.0 104.0 L152.5 103.8 L152.0 103.6 L151.6 103.2 L151.3 102.8 L151.0 102.3 L150.8 101.9 L150.7 101.3 L150.6 100.8 L150.7 100.3 L150.8 99.7 L151.0 99.3 L151.3 98.8 L151.6 98.4 L152.0 98.0 L152.5 97.8 L153.0 97.6 L153.5 97.4 L154.0 97.4 L154.5 97.4 L155.1 97.6 L155.6 97.8 L156.0 98.0 L156.4 98.4 L156.8 98.8 L157.0 99.3 L157.2 99.7 L157.4 100.3 Z M156.9 100.8 L156.9 101.5 L156.6 102.1 L156.3 102.6 L155.8 103.1 L155.3 103.4 L154.7 103.7 L154.0 103.7 L153.4 103.7 L152.7 103.4 L152.2 103.1 L151.7 102.6 L151.4 102.1 L151.2 101.5 L151.1 100.8 L151.2 100.1 L151.4 99.5 L151.7 99.0 L152.2 98.5 L152.7 98.2 L153.4 97.9 L154.0 97.9 L154.7 97.9 L155.3 98.2 L155.8 98.5 L156.3 99.0 L156.6 99.5 L156.9 100.1 Z" fill-rule="evenodd"/>
<path d="M155.4 100.8 L155.4 101.2 L155.2 101.6 L154.9 102.0 L154.5 102.2 L154.0 102.2 L153.6 102.2 L153.2 102.0 L152.9 101.6 L152.7 101.2 L152.6 100.8 L152.7 100.4 L152.9 100.0 L153.2 99.6 L153.6 99.4 L154.0 99.4 L154.5 99.4 L154.9 99.6 L155.2 100.0 L155.4 100.4 Z"/>
<path d="M92.3 99.9 L92.2 100.5 L92.1 101.0 L91.9 101.5 L91.6 101.9 L91.3 102.3 L90.9 102.7 L90.4 103.0 L89.9 103.2 L89.4 103.3 L88.9 103.3 L88.3 103.3 L87.8 103.2 L87.3 103.0 L86.9 102.7 L86.5 102.3 L86.1 101.9 L85.8 101.5 L85.6 101.0 L85.5 100.5 L85.5 99.9 L85.5 99.4 L85.6 98.9 L85.8 98.4 L86.1 97.9 L86.5 97.5 L86.9 97.2 L87.3 96.9 L87.8 96.7 L88.3 96.6 L88.9 96.5 L89.4 96.6 L89.9 96.7 L90.4 96.9 L90.9 97.2 L91.3 97.5 L91.6 97.9 L91.9 98.4 L92.1 98.9 L92.2 99.4 Z M91.8 99.9 L91.7 100.6 L91.5 101.2 L91.2 101.8 L90.7 102.2 L90.1 102.6 L89.5 102.8 L88.9 102.9 L88.2 102.8 L87.6 102.6 L87.1 102.2 L86.6 101.8 L86.2 101.2 L86.0 100.6 L85.9 99.9 L86.0 99.3 L86.2 98.7 L86.6 98.1 L87.1 97.7 L87.6 97.3 L88.2 97.1 L88.9 97.0 L89.5 97.1 L90.1 97.3 L90.7 97.7 L91.2 98.1 L91.5 98.7 L91.7 99.3 Z" fill-rule="evenodd"/>
<path d="M90.3 99.9 L90.2 100.4 L90.0 100.8 L89.7 101.1 L89.3 101.3 L88.9 101.4 L88.4 101.3 L88.0 101.1 L87.7 100.8 L87.5 100.4 L87.4 99.9 L87.5 99.5 L87.7 99.1 L88.0 98.8 L88.4 98.6 L88.9 98.5 L89.3 98.6 L89.7 98.8 L90.0 99.1 L90.2 99.5 Z"/>
<path d="M174.5 99.9 L174.5 100.5 L174.4 101.0 L174.2 101.5 L173.9 101.9 L173.5 102.3 L173.1 102.7 L172.7 103.0 L172.2 103.2 L171.7 103.3 L171.1 103.3 L170.6 103.3 L170.1 103.2 L169.6 103.0 L169.1 102.7 L168.7 102.3 L168.4 101.9 L168.1 101.5 L167.9 101.0 L167.8 100.5 L167.7 99.9 L167.8 99.4 L167.9 98.9 L168.1 98.4 L168.4 97.9 L168.7 97.5 L169.1 97.2 L169.6 96.9 L170.1 96.7 L170.6 96.6 L171.1 96.5 L171.7 96.6 L172.2 96.7 L172.7 96.9 L173.1 97.2 L173.5 97.5 L173.9 97.9 L174.2 98.4 L174.4 98.9 L174.5 99.4 Z M174.1 99.9 L174.0 100.6 L173.8 101.2 L173.4 101.8 L172.9 102.2 L172.4 102.6 L171.8 102.8 L171.1 102.9 L170.5 102.8 L169.9 102.6 L169.3 102.2 L168.8 101.8 L168.5 101.2 L168.3 100.6 L168.2 99.9 L168.3 99.3 L168.5 98.7 L168.8 98.1 L169.3 97.7 L169.9 97.3 L170.5 97.1 L171.1 97.0 L171.8 97.1 L172.4 97.3 L172.9 97.7 L173.4 98.1 L173.8 98.7 L174.0 99.3 Z" fill-rule="evenodd"/>
<path d="M172.6 99.9 L172.5 100.4 L172.3 100.8 L172.0 101.1 L171.6 101.3 L171.1 101.4 L170.7 101.3 L170.3 101.1 L170.0 100.8 L169.8 100.4 L169.7 99.9 L169.8 99.5 L170.0 99.1 L170.3 98.8 L170.7 98.6 L171.1 98.5 L171.6 98.6 L172.0 98.8 L172.3 99.1 L172.5 99.5 Z"/>
<path d="M75.1 99.1 L75.0 99.6 L74.9 100.1 L74.7 100.6 L74.4 101.0 L74.1 101.4 L73.7 101.8 L73.3 102.0 L72.8 102.2 L72.3 102.3 L71.8 102.4 L71.2 102.3 L70.7 102.2 L70.3 102.0 L69.8 101.8 L69.4 101.4 L69.1 101.0 L68.8 100.6 L68.6 100.1 L68.5 99.6 L68.5 99.1 L68.5 98.6 L68.6 98.1 L68.8 97.6 L69.1 97.1 L69.4 96.8 L69.8 96.4 L70.3 96.1 L70.7 95.9 L71.2 95.8 L71.8 95.8 L72.3 95.8 L72.8 95.9 L73.3 96.1 L73.7 96.4 L74.1 96.8 L74.4 97.1 L74.7 97.6 L74.9 98.1 L75.0 98.6 Z M74.6 99.1 L74.5 99.7 L74.3 100.3 L74.0 100.9 L73.5 101.3 L73.0 101.6 L72.4 101.9 L71.8 101.9 L71.1 101.9 L70.5 101.6 L70.0 101.3 L69.5 100.9 L69.2 100.3 L69.0 99.7 L68.9 99.1 L69.0 98.5 L69.2 97.9 L69.5 97.3 L70.0 96.9 L70.5 96.5 L71.1 96.3 L71.8 96.2 L72.4 96.3 L73.0 96.5 L73.5 96.9 L74.0 97.3 L74.3 97.9 L74.5 98.5 Z" fill-rule="evenodd"/>
<path d="M73.1 99.1 L73.1 99.5 L72.9 99.9 L72.6 100.2 L72.2 100.4 L71.8 100.5 L71.3 100.4 L70.9 100.2 L70.6 99.9 L70.4 99.5 L70.4 99.1 L70.4 98.7 L70.6 98.3 L70.9 98.0 L71.3 97.8 L71.8 97.7 L72.2 97.8 L72.6 98.0 L72.9 98.3 L73.1 98.7 Z"/>
<path d="M191.5 99.1 L191.5 99.6 L191.4 100.1 L191.2 100.6 L190.9 101.0 L190.6 101.4 L190.2 101.8 L189.7 102.0 L189.3 102.2 L188.8 102.3 L188.2 102.4 L187.7 102.3 L187.2 102.2 L186.7 102.0 L186.3 101.8 L185.9 101.4 L185.6 101.0 L185.3 100.6 L185.1 100.1 L185.0 99.6 L184.9 99.1 L185.0 98.6 L185.1 98.1 L185.3 97.6 L185.6 97.1 L185.9 96.8 L186.3 96.4 L186.7 96.1 L187.2 95.9 L187.7 95.8 L188.2 95.8 L188.8 95.8 L189.3 95.9 L189.7 96.1 L190.2 96.4 L190.6 96.8 L190.9 97.1 L191.2 97.6 L191.4 98.1 L191.5 98.6 Z M191.1 99.1 L191.0 99.7 L190.8 100.3 L190.5 100.9 L190.0 101.3 L189.5 101.6 L188.9 101.9 L188.2 101.9 L187.6 101.9 L187.0 101.6 L186.5 101.3 L186.0 100.9 L185.7 100.3 L185.5 99.7 L185.4 99.1 L185.5 98.5 L185.7 97.9 L186.0 97.3 L186.5 96.9 L187.0 96.5 L187.6 96.3 L188.2 96.2 L188.9 96.3 L189.5 96.5 L190.0 96.9 L190.5 97.3 L190.8 97.9 L191.0 98.5 Z" fill-rule="evenodd"/>
<path d="M189.6 99.1 L189.6 99.5 L189.4 99.9 L189.1 100.2 L188.7 100.4 L188.2 100.5 L187.8 100.4 L187.4 100.2 L187.1 99.9 L186.9 99.5 L186.9 99.1 L186.9 98.7 L187.1 98.3 L187.4 98.0 L187.8 97.8 L188.2 97.7 L188.7 97.8 L189.1 98.0 L189.4 98.3 L189.6 98.7 Z"/>
<path d="M57.8 98.2 L57.8 98.7 L57.7 99.2 L57.5 99.7 L57.2 100.1 L56.9 100.5 L56.5 100.8 L56.1 101.1 L55.6 101.3 L55.1 101.4 L54.6 101.4 L54.1 101.4 L53.7 101.3 L53.2 101.1 L52.8 100.8 L52.4 100.5 L52.1 100.1 L51.8 99.7 L51.6 99.2 L51.5 98.7 L51.4 98.2 L51.5 97.7 L51.6 97.2 L51.8 96.8 L52.1 96.4 L52.4 96.0 L52.8 95.6 L53.2 95.4 L53.7 95.2 L54.1 95.1 L54.6 95.0 L55.1 95.1 L55.6 95.2 L56.1 95.4 L56.5 95.6 L56.9 96.0 L57.2 96.4 L57.5 96.8 L57.7 97.2 L57.8 97.7 Z M57.4 98.2 L57.3 98.8 L57.1 99.4 L56.8 99.9 L56.4 100.4 L55.8 100.7 L55.3 100.9 L54.6 101.0 L54.0 100.9 L53.5 100.7 L52.9 100.4 L52.5 99.9 L52.2 99.4 L52.0 98.8 L51.9 98.2 L52.0 97.6 L52.2 97.0 L52.5 96.5 L52.9 96.1 L53.5 95.8 L54.0 95.5 L54.6 95.5 L55.3 95.5 L55.8 95.8 L56.4 96.1 L56.8 96.5 L57.1 97.0 L57.3 97.6 Z" fill-rule="evenodd"/>
<path d="M56.0 98.2 L55.9 98.6 L55.7 99.0 L55.4 99.3 L55.1 99.5 L54.6 99.6 L54.2 99.5 L53.9 99.3 L53.6 99.0 L53.4 98.6 L53.3 98.2 L53.4 97.8 L53.6 97.4 L53.9 97.1 L54.2 97.0 L54.6 96.9 L55.1 97.0 L55.4 97.1 L55.7 97.4 L55.9 97.8 Z"/>
<path d="M208.6 98.2 L208.5 98.7 L208.4 99.2 L208.2 99.7 L207.9 100.1 L207.6 100.5 L207.2 100.8 L206.8 101.1 L206.3 101.3 L205.9 101.4 L205.4 101.4 L204.9 101.4 L204.4 101.3 L203.9 101.1 L203.5 100.8 L203.1 100.5 L202.8 100.1 L202.5 99.7 L202.3 99.2 L202.2 98.7 L202.2 98.2 L202.2 97.7 L202.3 97.2 L202.5 96.8 L202.8 96.4 L203.1 96.0 L203.5 95.6 L203.9 95.4 L204.4 95.2 L204.9 95.1 L205.4 95.0 L205.9 95.1 L206.3 95.2 L206.8 95.4 L207.2 95.6 L207.6 96.0 L207.9 96.4 L208.2 96.8 L208.4 97.2 L208.5 97.7 Z M208.1 98.2 L208.0 98.8 L207.8 99.4 L207.5 99.9 L207.1 100.4 L206.5 100.7 L206.0 100.9 L205.4 101.0 L204.7 100.9 L204.2 100.7 L203.6 100.4 L203.2 99.9 L202.9 99.4 L202.7 98.8 L202.6 98.2 L202.7 97.6 L202.9 97.0 L203.2 96.5 L203.6 96.1 L204.2 95.8 L204.7 95.5 L205.4 95.5 L206.0 95.5 L206.5 95.8 L207.1 96.1 L207.5 96.5 L207.8 97.0 L208.0 97.6 Z" fill-rule="evenodd"/>
<path d="M206.7 98.2 L206.6 98.6 L206.4 99.0 L206.1 99.3 L205.8 99.5 L205.4 99.6 L204.9 99.5 L204.6 99.3 L204.3 99.0 L204.1 98.6 L204.0 98.2 L204.1 97.8 L204.3 97.4 L204.6 97.1 L204.9 97.0 L205.4 96.9 L205.8 97.0 L206.1 97.1 L206.4 97.4 L206.6 97.8 Z"/>
<path d="M126.8 107.1 L128.7 60.5 L131.3 60.5 L133.2 107.1 Z"/>
<path d="M139.0 107.1 L138.9 108.8 L138.6 110.5 L138.1 112.1 L137.3 113.5 L136.4 114.8 L135.3 116.0 L134.1 116.8 L132.8 117.5 L131.4 117.9 L130.0 118.0 L128.6 117.9 L127.2 117.5 L125.9 116.8 L124.7 116.0 L123.6 114.8 L122.7 113.5 L121.9 112.1 L121.4 110.5 L121.1 108.8 L121.0 107.1 L121.1 105.4 L121.4 103.7 L121.9 102.1 L122.7 100.7 L123.6 99.4 L124.7 98.2 L125.9 97.4 L127.2 96.7 L128.6 96.3 L130.0 96.2 L131.4 96.3 L132.8 96.7 L134.1 97.4 L135.3 98.2 L136.4 99.4 L137.3 100.7 L138.1 102.1 L138.6 103.7 L138.9 105.4 Z" fill-rule="evenodd"/>
</g></svg>
