<svg xmlns="http://www.w3.org/2000/svg" viewBox="0 39 260 82"><g id="sil" fill="currentColor">
<path d="M14.0 97.3 L125.6 107.3 L134.4 107.3 L246.0 97.3 L246.0 99.4 L134.4 112.5 L125.6 112.5 L14.0 99.4 Z"/>
<path d="M87.4 104.6 L90.6 104.6 L90.6 111.5 L87.4 111.5 Z"/>
<path d="M94.0 111.5 L93.9 112.2 L93.7 113.0 L93.4 113.7 L93.0 114.4 L92.5 115.0 L91.9 115.5 L91.3 115.9 L90.5 116.2 L89.8 116.4 L89.0 116.5 L88.2 116.4 L87.4 116.2 L86.7 115.9 L86.0 115.5 L85.4 115.0 L84.9 114.4 L84.5 113.7 L84.2 113.0 L84.0 112.2 L84.0 111.5 L84.0 110.7 L84.2 109.9 L84.5 109.2 L84.9 108.5 L85.4 107.9 L86.0 107.4 L86.7 107.0 L87.4 106.7 L88.2 106.5 L89.0 106.5 L89.8 106.5 L90.5 106.7 L91.3 107.0 L91.9 107.4 L92.5 107.9 L93.0 108.5 L93.4 109.2 L93.7 109.9 L93.9 110.7 Z M91.7 111.5 L91.6 112.2 L91.4 112.8 L90.9 113.4 L90.4 113.8 L89.7 114.1 L89.0 114.2 L88.3 114.1 L87.6 113.8 L87.0 113.4 L86.6 112.8 L86.3 112.2 L86.2 111.5 L86.3 110.8 L86.6 110.1 L87.0 109.5 L87.6 109.1 L88.3 108.8 L89.0 108.7 L89.7 108.8 L90.4 109.1 L90.9 109.5 L91.4 110.1 L91.6 110.8 Z" fill-rule="evenodd"/>
<path d="M169.4 104.6 L172.6 104.6 L172.6 111.5 L169.4 111.5 Z"/>
<path d="M176.0 111.5 L176.0 112.2 L175.8 113.0 L175.5 113.7 L175.1 114.4 L174.6 115.0 L174.0 115.5 L173.3 115.9 L172.6 116.2 L171.8 116.4 L171.0 116.5 L170.2 116.4 L169.5 116.2 L168.7 115.9 L168.1 115.5 L167.5 115.0 L167.0 114.4 L166.6 113.7 L166.3 113.0 L166.1 112.2 L166.0 111.5 L166.1 110.7 L166.3 109.9 L166.6 109.2 L167.0 108.5 L167.5 107.9 L168.1 107.4 L168.7 107.0 L169.5 106.7 L170.2 106.5 L171.0 106.5 L171.8 106.5 L172.6 106.7 L173.3 107.0 L174.0 107.4 L174.6 107.9 L175.1 108.5 L175.5 109.2 L175.8 109.9 L176.0 110.7 Z M173.8 111.5 L173.7 112.2 L173.4 112.8 L173.0 113.4 L172.4 113.8 L171.7 114.1 L171.0 114.2 L170.3 114.1 L169.6 113.8 L169.1 113.4 L168.6 112.8 L168.4 112.2 L168.3 111.5 L168.4 110.8 L168.6 110.1 L169.1 109.5 L169.6 109.1 L170.3 108.8 L171.0 108.7 L171.7 108.8 L172.4 109.1 L173.0 109.5 L173.4 110.1 L173.7 110.8 Z" fill-rule="evenodd"/>
<path d="M55.0 101.8 L58.2 101.8 L58.2 107.5 L55.0 107.5 Z"/>
<path d="M61.2 107.5 L61.1 108.2 L60.9 108.9 L60.7 109.6 L60.3 110.2 L59.8 110.8 L59.3 111.2 L58.6 111.6 L58.0 111.9 L57.3 112.1 L56.6 112.1 L55.8 112.1 L55.1 111.9 L54.5 111.6 L53.9 111.2 L53.3 110.8 L52.8 110.2 L52.5 109.6 L52.2 108.9 L52.0 108.2 L52.0 107.5 L52.0 106.8 L52.2 106.1 L52.5 105.4 L52.8 104.8 L53.3 104.3 L53.9 103.8 L54.5 103.4 L55.1 103.1 L55.8 103.0 L56.6 102.9 L57.3 103.0 L58.0 103.1 L58.6 103.4 L59.3 103.8 L59.8 104.3 L60.3 104.8 L60.7 105.4 L60.9 106.1 L61.1 106.8 Z M59.1 107.5 L59.0 108.2 L58.7 108.8 L58.3 109.3 L57.8 109.7 L57.2 110.0 L56.6 110.0 L55.9 110.0 L55.3 109.7 L54.8 109.3 L54.4 108.8 L54.1 108.2 L54.0 107.5 L54.1 106.9 L54.4 106.3 L54.8 105.7 L55.3 105.3 L55.9 105.1 L56.6 105.0 L57.2 105.1 L57.8 105.3 L58.3 105.7 L58.7 106.3 L59.0 106.9 Z" fill-rule="evenodd"/>
<path d="M201.8 101.8 L205.0 101.8 L205.0 107.5 L201.8 107.5 Z"/>
<path d="M208.0 107.5 L208.0 108.2 L207.8 108.9 L207.5 109.6 L207.2 110.2 L206.7 110.8 L206.1 111.2 L205.5 111.6 L204.9 111.9 L204.2 112.1 L203.4 112.1 L202.7 112.1 L202.0 111.9 L201.4 111.6 L200.7 111.2 L200.2 110.8 L199.7 110.2 L199.3 109.6 L199.1 108.9 L198.9 108.2 L198.8 107.5 L198.9 106.8 L199.1 106.1 L199.3 105.4 L199.7 104.8 L200.2 104.3 L200.7 103.8 L201.4 103.4 L202.0 103.1 L202.7 103.0 L203.4 102.9 L204.2 103.0 L204.9 103.1 L205.5 103.4 L206.1 103.8 L206.7 104.3 L207.2 104.8 L207.5 105.4 L207.8 106.1 L208.0 106.8 Z M206.0 107.5 L205.9 108.2 L205.6 108.8 L205.2 109.3 L204.7 109.7 L204.1 110.0 L203.4 110.0 L202.8 110.0 L202.2 109.7 L201.7 109.3 L201.3 108.8 L201.0 108.2 L200.9 107.5 L201.0 106.9 L201.3 106.3 L201.7 105.7 L202.2 105.3 L202.8 105.1 L203.4 105.0 L204.1 105.1 L204.7 105.3 L205.2 105.7 L205.6 106.3 L205.9 106.9 Z" fill-rule="evenodd"/>
<path d="M126.6 103.3 L128.7 42.3 L131.3 42.3 L133.4 103.3 Z"/>
<path d="M144.7 103.3 L144.5 105.6 L144.0 107.8 L143.1 110.0 L141.9 111.9 L140.4 113.7 L138.6 115.2 L136.7 116.4 L134.5 117.3 L132.3 117.8 L130.0 118.0 L127.7 117.8 L125.5 117.3 L123.3 116.4 L121.4 115.2 L119.6 113.7 L118.1 111.9 L116.9 110.0 L116.0 107.8 L115.5 105.6 L115.3 103.3 L115.5 101.0 L116.0 98.8 L116.9 96.6 L118.1 94.7 L119.6 92.9 L121.4 91.4 L123.3 90.2 L125.5 89.3 L127.7 88.8 L130.0 88.6 L132.3 88.8 L134.5 89.3 L136.7 90.2 L138.6 91.4 L140.4 92.9 L141.9 94.7 L143.1 96.6 L144.0 98.8 L144.5 101.0 Z M122.4 102.9 L137.6 102.9 L137.6 104.7 L122.4 104.7 Z" fill-rule="evenodd"/>
</g></svg>
