<svg xmlns="http://www.w3.org/2000/svg" viewBox="0 54 260 67"><g id="sil" fill="currentColor">
<path d="M16.0 98.5 L126.5 109.5 L133.5 109.5 L244.0 98.5 L244.0 100.5 L133.5 114.5 L126.5 114.5 L16.0 100.5 Z"/>
<path d="M16.5 94.5 L14.0 94.5 L14.0 103.5 L16.5 103.5 Z"/>
<path d="M243.5 94.5 L246.0 94.5 L246.0 103.5 L243.5 103.5 Z"/>
<path d="M89.6 106.6 L92.8 106.6 L92.8 113.2 L89.6 113.2 Z"/>
<path d="M96.0 113.2 L95.9 114.0 L95.7 114.7 L95.4 115.4 L95.0 116.0 L94.6 116.6 L94.0 117.1 L93.3 117.5 L92.6 117.8 L91.9 117.9 L91.2 118.0 L90.4 117.9 L89.7 117.8 L89.0 117.5 L88.3 117.1 L87.8 116.6 L87.3 116.0 L86.9 115.4 L86.6 114.7 L86.4 114.0 L86.4 113.2 L86.4 112.5 L86.6 111.7 L86.9 111.0 L87.3 110.4 L87.8 109.8 L88.3 109.3 L89.0 108.9 L89.7 108.6 L90.4 108.5 L91.2 108.4 L91.9 108.5 L92.6 108.6 L93.3 108.9 L94.0 109.3 L94.6 109.8 L95.0 110.4 L95.4 111.0 L95.7 111.7 L95.9 112.5 Z M93.8 113.2 L93.7 113.9 L93.4 114.5 L93.0 115.1 L92.5 115.5 L91.8 115.8 L91.2 115.8 L90.5 115.8 L89.8 115.5 L89.3 115.1 L88.9 114.5 L88.6 113.9 L88.5 113.2 L88.6 112.5 L88.9 111.9 L89.3 111.3 L89.8 110.9 L90.5 110.7 L91.2 110.6 L91.8 110.7 L92.5 110.9 L93.0 111.3 L93.4 111.9 L93.7 112.5 Z" fill-rule="evenodd"/>
<path d="M167.2 106.6 L170.4 106.6 L170.4 113.2 L167.2 113.2 Z"/>
<path d="M173.6 113.2 L173.6 114.0 L173.4 114.7 L173.1 115.4 L172.7 116.0 L172.2 116.6 L171.7 117.1 L171.0 117.5 L170.3 117.8 L169.6 117.9 L168.8 118.0 L168.1 117.9 L167.4 117.8 L166.7 117.5 L166.0 117.1 L165.4 116.6 L165.0 116.0 L164.6 115.4 L164.3 114.7 L164.1 114.0 L164.0 113.2 L164.1 112.5 L164.3 111.7 L164.6 111.0 L165.0 110.4 L165.4 109.8 L166.0 109.3 L166.7 108.9 L167.4 108.6 L168.1 108.5 L168.8 108.4 L169.6 108.5 L170.3 108.6 L171.0 108.9 L171.7 109.3 L172.2 109.8 L172.7 110.4 L173.1 111.0 L173.4 111.7 L173.6 112.5 Z M171.5 113.2 L171.4 113.9 L171.1 114.5 L170.7 115.1 L170.2 115.5 L169.5 115.8 L168.8 115.8 L168.2 115.8 L167.5 115.5 L167.0 115.1 L166.6 114.5 L166.3 113.9 L166.2 113.2 L166.3 112.5 L166.6 111.9 L167.0 111.3 L167.5 110.9 L168.2 110.7 L168.8 110.6 L169.5 110.7 L170.2 110.9 L170.7 111.3 L171.1 111.9 L171.4 112.5 Z" fill-rule="evenodd"/>
<path d="M56.2 103.3 L59.4 103.3 L59.4 108.8 L56.2 108.8 Z"/>
<path d="M62.2 108.8 L62.1 109.5 L62.0 110.2 L61.7 110.8 L61.4 111.4 L60.9 111.9 L60.4 112.4 L59.8 112.8 L59.2 113.0 L58.5 113.2 L57.8 113.2 L57.1 113.2 L56.4 113.0 L55.8 112.8 L55.2 112.4 L54.7 111.9 L54.2 111.4 L53.9 110.8 L53.6 110.2 L53.4 109.5 L53.4 108.8 L53.4 108.1 L53.6 107.5 L53.9 106.8 L54.2 106.2 L54.7 105.7 L55.2 105.3 L55.8 104.9 L56.4 104.6 L57.1 104.5 L57.8 104.4 L58.5 104.5 L59.2 104.6 L59.8 104.9 L60.4 105.3 L60.9 105.7 L61.4 106.2 L61.7 106.8 L62.0 107.5 L62.1 108.1 Z M60.2 108.8 L60.1 109.5 L59.9 110.0 L59.5 110.5 L59.0 110.9 L58.4 111.2 L57.8 111.3 L57.2 111.2 L56.6 110.9 L56.1 110.5 L55.7 110.0 L55.5 109.5 L55.4 108.8 L55.5 108.2 L55.7 107.6 L56.1 107.1 L56.6 106.7 L57.2 106.5 L57.8 106.4 L58.4 106.5 L59.0 106.7 L59.5 107.1 L59.9 107.6 L60.1 108.2 Z" fill-rule="evenodd"/>
<path d="M200.6 103.3 L203.8 103.3 L203.8 108.8 L200.6 108.8 Z"/>
<path d="M206.6 108.8 L206.6 109.5 L206.4 110.2 L206.1 110.8 L205.8 111.4 L205.3 111.9 L204.8 112.4 L204.2 112.8 L203.6 113.0 L202.9 113.2 L202.2 113.2 L201.5 113.2 L200.8 113.0 L200.2 112.8 L199.6 112.4 L199.1 111.9 L198.6 111.4 L198.3 110.8 L198.0 110.2 L197.9 109.5 L197.8 108.8 L197.9 108.1 L198.0 107.5 L198.3 106.8 L198.6 106.2 L199.1 105.7 L199.6 105.3 L200.2 104.9 L200.8 104.6 L201.5 104.5 L202.2 104.4 L202.9 104.5 L203.6 104.6 L204.2 104.9 L204.8 105.3 L205.3 105.7 L205.8 106.2 L206.1 106.8 L206.4 107.5 L206.6 108.1 Z M204.6 108.8 L204.5 109.5 L204.3 110.0 L203.9 110.5 L203.4 110.9 L202.8 111.2 L202.2 111.3 L201.6 111.2 L201.0 110.9 L200.5 110.5 L200.1 110.0 L199.9 109.5 L199.8 108.8 L199.9 108.2 L200.1 107.6 L200.5 107.1 L201.0 106.7 L201.6 106.5 L202.2 106.4 L202.8 106.5 L203.4 106.7 L203.9 107.1 L204.3 107.6 L204.5 108.2 Z" fill-rule="evenodd"/>
<path d="M126.8 105.5 L128.7 57.4 L131.3 57.4 L133.2 105.5 Z"/>
<path d="M141.7 105.5 L141.6 107.3 L141.2 109.1 L140.5 110.8 L139.5 112.4 L138.3 113.8 L136.9 115.0 L135.3 116.0 L133.6 116.7 L131.8 117.1 L130.0 117.2 L128.2 117.1 L126.4 116.7 L124.7 116.0 L123.1 115.0 L121.7 113.8 L120.5 112.4 L119.5 110.8 L118.8 109.1 L118.4 107.3 L118.3 105.5 L118.4 103.7 L118.8 101.9 L119.5 100.2 L120.5 98.6 L121.7 97.2 L123.1 96.0 L124.7 95.0 L126.4 94.3 L128.2 93.9 L130.0 93.8 L131.8 93.9 L133.6 94.3 L135.3 95.0 L136.9 96.0 L138.3 97.2 L139.5 98.6 L140.5 100.2 L141.2 101.9 L141.6 103.7 Z M123.9 105.1 L136.1 105.1 L136.1 106.9 L123.9 106.9 Z" fill-rule="evenodd"/>
</g></svg>
