<svg xmlns="http://www.w3.org/2000/svg" viewBox="0 47 260 74"><g id="sil" fill="currentColor">
<path d="M14.0 107.6 L126.7 100.6 L133.3 100.6 L246.0 107.6 L246.0 109.7 L133.3 105.8 L126.7 105.8 L14.0 109.7 Z"/>
<path d="M92.2 103.6 L95.4 103.6 L95.4 110.5 L92.2 110.5 Z"/>
<path d="M98.6 110.5 L98.5 111.2 L98.3 112.0 L98.1 112.7 L97.7 113.3 L97.2 113.9 L96.6 114.4 L96.0 114.8 L95.3 115.0 L94.5 115.2 L93.8 115.3 L93.0 115.2 L92.3 115.0 L91.6 114.8 L91.0 114.4 L90.4 113.9 L89.9 113.3 L89.5 112.7 L89.2 112.0 L89.0 111.2 L89.0 110.5 L89.0 109.7 L89.2 109.0 L89.5 108.3 L89.9 107.7 L90.4 107.1 L91.0 106.6 L91.6 106.2 L92.3 105.9 L93.0 105.7 L93.8 105.7 L94.5 105.7 L95.3 105.9 L96.0 106.2 L96.6 106.6 L97.2 107.1 L97.7 107.7 L98.1 108.3 L98.3 109.0 L98.5 109.7 Z M96.4 110.5 L96.3 111.2 L96.1 111.8 L95.6 112.3 L95.1 112.8 L94.5 113.0 L93.8 113.1 L93.1 113.0 L92.5 112.8 L91.9 112.3 L91.5 111.8 L91.2 111.2 L91.1 110.5 L91.2 109.8 L91.5 109.2 L91.9 108.6 L92.5 108.2 L93.1 107.9 L93.8 107.8 L94.5 107.9 L95.1 108.2 L95.6 108.6 L96.1 109.2 L96.3 109.8 Z" fill-rule="evenodd"/>
<path d="M164.6 103.6 L167.8 103.6 L167.8 110.5 L164.6 110.5 Z"/>
<path d="M171.0 110.5 L171.0 111.2 L170.8 112.0 L170.5 112.7 L170.1 113.3 L169.6 113.9 L169.0 114.4 L168.4 114.8 L167.7 115.0 L167.0 115.2 L166.2 115.3 L165.5 115.2 L164.7 115.0 L164.0 114.8 L163.4 114.4 L162.8 113.9 L162.3 113.3 L161.9 112.7 L161.7 112.0 L161.5 111.2 L161.4 110.5 L161.5 109.7 L161.7 109.0 L161.9 108.3 L162.3 107.7 L162.8 107.1 L163.4 106.6 L164.0 106.2 L164.7 105.9 L165.5 105.7 L166.2 105.7 L167.0 105.7 L167.7 105.9 L168.4 106.2 L169.0 106.6 L169.6 107.1 L170.1 107.7 L170.5 108.3 L170.8 109.0 L171.0 109.7 Z M168.9 110.5 L168.8 111.2 L168.5 111.8 L168.1 112.3 L167.5 112.8 L166.9 113.0 L166.2 113.1 L165.5 113.0 L164.9 112.8 L164.4 112.3 L163.9 111.8 L163.7 111.2 L163.6 110.5 L163.7 109.8 L163.9 109.2 L164.4 108.6 L164.9 108.2 L165.5 107.9 L166.2 107.8 L166.9 107.9 L167.5 108.2 L168.1 108.6 L168.5 109.2 L168.8 109.8 Z" fill-rule="evenodd"/>
<path d="M60.7 105.5 L63.9 105.5 L63.9 111.2 L60.7 111.2 Z"/>
<path d="M66.7 111.2 L66.6 111.9 L66.5 112.6 L66.2 113.2 L65.8 113.8 L65.4 114.4 L64.9 114.8 L64.3 115.2 L63.6 115.4 L63.0 115.6 L62.3 115.6 L61.6 115.6 L60.9 115.4 L60.3 115.2 L59.7 114.8 L59.2 114.4 L58.7 113.8 L58.4 113.2 L58.1 112.6 L57.9 111.9 L57.9 111.2 L57.9 110.6 L58.1 109.9 L58.4 109.2 L58.7 108.7 L59.2 108.1 L59.7 107.7 L60.3 107.3 L60.9 107.1 L61.6 106.9 L62.3 106.8 L63.0 106.9 L63.6 107.1 L64.3 107.3 L64.9 107.7 L65.4 108.1 L65.8 108.7 L66.2 109.2 L66.5 109.9 L66.6 110.6 Z M64.7 111.2 L64.6 111.9 L64.4 112.5 L64.0 113.0 L63.5 113.3 L62.9 113.6 L62.3 113.7 L61.7 113.6 L61.1 113.3 L60.6 113.0 L60.2 112.5 L60.0 111.9 L59.9 111.2 L60.0 110.6 L60.2 110.0 L60.6 109.5 L61.1 109.1 L61.7 108.9 L62.3 108.8 L62.9 108.9 L63.5 109.1 L64.0 109.5 L64.4 110.0 L64.6 110.6 Z" fill-rule="evenodd"/>
<path d="M196.1 105.5 L199.3 105.5 L199.3 111.2 L196.1 111.2 Z"/>
<path d="M202.1 111.2 L202.1 111.9 L201.9 112.6 L201.6 113.2 L201.3 113.8 L200.8 114.4 L200.3 114.8 L199.7 115.2 L199.1 115.4 L198.4 115.6 L197.7 115.6 L197.0 115.6 L196.4 115.4 L195.7 115.2 L195.1 114.8 L194.6 114.4 L194.2 113.8 L193.8 113.2 L193.5 112.6 L193.4 111.9 L193.3 111.2 L193.4 110.6 L193.5 109.9 L193.8 109.2 L194.2 108.7 L194.6 108.1 L195.1 107.7 L195.7 107.3 L196.4 107.1 L197.0 106.9 L197.7 106.8 L198.4 106.9 L199.1 107.1 L199.7 107.3 L200.3 107.7 L200.8 108.1 L201.3 108.7 L201.6 109.2 L201.9 109.9 L202.1 110.6 Z M200.1 111.2 L200.0 111.9 L199.8 112.5 L199.4 113.0 L198.9 113.3 L198.3 113.6 L197.7 113.7 L197.1 113.6 L196.5 113.3 L196.0 113.0 L195.6 112.5 L195.4 111.9 L195.3 111.2 L195.4 110.6 L195.6 110.0 L196.0 109.5 L196.5 109.1 L197.1 108.9 L197.7 108.8 L198.3 108.9 L198.9 109.1 L199.4 109.5 L199.8 110.0 L200.0 110.6 Z" fill-rule="evenodd"/>
<path d="M126.8 105.6 L128.7 50.2 L131.3 50.2 L133.2 105.6 Z"/>
<path d="M114.0 50.2 L146.0 50.2 L146.0 53.2 L114.0 53.2 Z"/>
<path d="M141.0 105.6 L140.9 107.5 L140.5 109.4 L139.8 111.2 L138.9 112.9 L137.8 114.4 L136.5 115.6 L135.0 116.7 L133.4 117.4 L131.7 117.9 L130.0 118.0 L128.3 117.9 L126.6 117.4 L125.0 116.7 L123.5 115.6 L122.2 114.4 L121.1 112.9 L120.2 111.2 L119.5 109.4 L119.1 107.5 L119.0 105.6 L119.1 103.7 L119.5 101.8 L120.2 100.0 L121.1 98.3 L122.2 96.8 L123.5 95.6 L125.0 94.5 L126.6 93.8 L128.3 93.3 L130.0 93.2 L131.7 93.3 L133.4 93.8 L135.0 94.5 L136.5 95.6 L137.8 96.8 L138.9 98.3 L139.8 100.0 L140.5 101.8 L140.9 103.7 Z" fill-rule="evenodd"/>
</g></svg>
