<svg xmlns="http://www.w3.org/2000/svg" viewBox="0 48 260 73"><g id="sil" fill="currentColor">
<path d="M14.0 103.0 L126.9 111.0 L133.1 111.0 L246.0 103.0 L246.0 104.8 L133.1 115.4 L126.9 115.4 L14.0 104.8 Z"/>
<path d="M120.0 103.1 L119.9 103.8 L119.8 104.4 L119.6 104.9 L119.2 105.4 L118.8 105.9 L118.4 106.3 L117.9 106.6 L117.3 106.9 L116.7 107.0 L116.1 107.0 L115.5 107.0 L114.9 106.9 L114.3 106.6 L113.8 106.3 L113.3 105.9 L112.9 105.4 L112.6 104.9 L112.4 104.4 L112.2 103.8 L112.2 103.1 L112.2 102.5 L112.4 101.9 L112.6 101.4 L112.9 100.9 L113.3 100.4 L113.8 100.0 L114.3 99.7 L114.9 99.4 L115.5 99.3 L116.1 99.2 L116.7 99.3 L117.3 99.4 L117.9 99.7 L118.4 100.0 L118.8 100.4 L119.2 100.9 L119.6 101.4 L119.8 101.9 L119.9 102.5 Z M118.1 103.1 L118.0 103.7 L117.8 104.2 L117.4 104.7 L116.9 105.0 L116.4 105.2 L115.8 105.2 L115.2 105.0 L114.8 104.7 L114.4 104.2 L114.1 103.7 L114.1 103.1 L114.1 102.6 L114.4 102.1 L114.8 101.6 L115.2 101.3 L115.8 101.1 L116.4 101.1 L116.9 101.3 L117.4 101.6 L117.8 102.1 L118.0 102.6 Z" fill-rule="evenodd"/>
<path d="M112.4 103.1 L112.3 103.8 L112.2 104.4 L112.0 104.9 L111.6 105.4 L111.2 105.9 L110.8 106.3 L110.3 106.6 L109.7 106.9 L109.1 107.0 L108.5 107.0 L107.9 107.0 L107.3 106.9 L106.7 106.6 L106.2 106.3 L105.7 105.9 L105.3 105.4 L105.0 104.9 L104.8 104.4 L104.6 103.8 L104.6 103.1 L104.6 102.5 L104.8 101.9 L105.0 101.4 L105.3 100.9 L105.7 100.4 L106.2 100.0 L106.7 99.7 L107.3 99.4 L107.9 99.3 L108.5 99.2 L109.1 99.3 L109.7 99.4 L110.3 99.7 L110.8 100.0 L111.2 100.4 L111.6 100.9 L112.0 101.4 L112.2 101.9 L112.3 102.5 Z M110.5 103.1 L110.4 103.7 L110.2 104.2 L109.8 104.7 L109.3 105.0 L108.8 105.2 L108.2 105.2 L107.6 105.0 L107.2 104.7 L106.8 104.2 L106.5 103.7 L106.5 103.1 L106.5 102.6 L106.8 102.1 L107.2 101.6 L107.6 101.3 L108.2 101.1 L108.8 101.1 L109.3 101.3 L109.8 101.6 L110.2 102.1 L110.4 102.6 Z" fill-rule="evenodd"/>
<path d="M147.8 103.1 L147.8 103.8 L147.6 104.4 L147.4 104.9 L147.1 105.4 L146.7 105.9 L146.2 106.3 L145.7 106.6 L145.1 106.9 L144.5 107.0 L143.9 107.0 L143.3 107.0 L142.7 106.9 L142.1 106.6 L141.6 106.3 L141.2 105.9 L140.8 105.4 L140.4 104.9 L140.2 104.4 L140.1 103.8 L140.0 103.1 L140.1 102.5 L140.2 101.9 L140.4 101.4 L140.8 100.9 L141.2 100.4 L141.6 100.0 L142.1 99.7 L142.7 99.4 L143.3 99.3 L143.9 99.2 L144.5 99.3 L145.1 99.4 L145.7 99.7 L146.2 100.0 L146.7 100.4 L147.1 100.9 L147.4 101.4 L147.6 101.9 L147.8 102.5 Z M145.9 103.1 L145.9 103.7 L145.6 104.2 L145.2 104.7 L144.8 105.0 L144.2 105.2 L143.6 105.2 L143.1 105.0 L142.6 104.7 L142.2 104.2 L142.0 103.7 L141.9 103.1 L142.0 102.6 L142.2 102.1 L142.6 101.6 L143.1 101.3 L143.6 101.1 L144.2 101.1 L144.8 101.3 L145.2 101.6 L145.6 102.1 L145.9 102.6 Z" fill-rule="evenodd"/>
<path d="M155.4 103.1 L155.4 103.8 L155.2 104.4 L155.0 104.9 L154.7 105.4 L154.3 105.9 L153.8 106.3 L153.3 106.6 L152.7 106.9 L152.1 107.0 L151.5 107.0 L150.9 107.0 L150.3 106.9 L149.7 106.6 L149.2 106.3 L148.8 105.9 L148.4 105.4 L148.0 104.9 L147.8 104.4 L147.7 103.8 L147.6 103.1 L147.7 102.5 L147.8 101.9 L148.0 101.4 L148.4 100.9 L148.8 100.4 L149.2 100.0 L149.7 99.7 L150.3 99.4 L150.9 99.3 L151.5 99.2 L152.1 99.3 L152.7 99.4 L153.3 99.7 L153.8 100.0 L154.3 100.4 L154.7 100.9 L155.0 101.4 L155.2 101.9 L155.4 102.5 Z M153.5 103.1 L153.5 103.7 L153.2 104.2 L152.8 104.7 L152.4 105.0 L151.8 105.2 L151.2 105.2 L150.7 105.0 L150.2 104.7 L149.8 104.2 L149.6 103.7 L149.5 103.1 L149.6 102.6 L149.8 102.1 L150.2 101.6 L150.7 101.3 L151.2 101.1 L151.8 101.1 L152.4 101.3 L152.8 101.6 L153.2 102.1 L153.5 102.6 Z" fill-rule="evenodd"/>
<path d="M126.8 107.0 L128.7 51.7 L131.3 51.7 L133.2 107.0 Z"/>
<path d="M114.0 51.7 L146.0 51.7 L146.0 54.7 L114.0 54.7 Z"/>
<path d="M140.2 107.0 L140.1 108.7 L139.7 110.4 L139.1 112.0 L138.3 113.5 L137.2 114.8 L136.0 115.9 L134.6 116.8 L133.2 117.5 L131.6 117.9 L130.0 118.0 L128.4 117.9 L126.8 117.5 L125.4 116.8 L124.0 115.9 L122.8 114.8 L121.7 113.5 L120.9 112.0 L120.3 110.4 L119.9 108.7 L119.8 107.0 L119.9 105.3 L120.3 103.6 L120.9 102.0 L121.7 100.5 L122.8 99.2 L124.0 98.1 L125.4 97.2 L126.8 96.5 L128.4 96.1 L130.0 96.0 L131.6 96.1 L133.2 96.5 L134.6 97.2 L136.0 98.1 L137.2 99.2 L138.3 100.5 L139.1 102.0 L139.7 103.6 L140.1 105.3 Z M124.7 106.5 L135.3 106.5 L135.3 108.3 L124.7 108.3 Z" fill-rule="evenodd"/>
</g></svg>
