<svg xmlns="http://www.w3.org/2000/svg" viewBox="0 47 260 74"><g id="sil" fill="currentColor">
<path d="M14.0 108.7 L126.2 99.7 L133.8 99.7 L246.0 108.7 L246.0 111.1 L133.8 105.5 L126.2 105.5 L14.0 111.1 Z"/>
<path d="M86.8 103.7 L90.0 103.7 L90.0 111.3 L86.8 111.3 Z"/>
<path d="M93.6 111.3 L93.6 112.1 L93.4 112.9 L93.0 113.6 L92.6 114.3 L92.1 114.9 L91.5 115.5 L90.8 115.9 L90.0 116.2 L89.2 116.4 L88.4 116.5 L87.6 116.4 L86.8 116.2 L86.1 115.9 L85.4 115.5 L84.7 114.9 L84.2 114.3 L83.8 113.6 L83.5 112.9 L83.3 112.1 L83.2 111.3 L83.3 110.4 L83.5 109.6 L83.8 108.9 L84.2 108.2 L84.7 107.6 L85.4 107.0 L86.1 106.6 L86.8 106.3 L87.6 106.1 L88.4 106.1 L89.2 106.1 L90.0 106.3 L90.8 106.6 L91.5 107.0 L92.1 107.6 L92.6 108.2 L93.0 108.9 L93.4 109.6 L93.6 110.4 Z M91.3 111.3 L91.2 112.0 L90.9 112.7 L90.4 113.3 L89.8 113.7 L89.2 114.0 L88.4 114.1 L87.7 114.0 L87.0 113.7 L86.4 113.3 L85.9 112.7 L85.7 112.0 L85.6 111.3 L85.7 110.5 L85.9 109.8 L86.4 109.2 L87.0 108.8 L87.7 108.5 L88.4 108.4 L89.2 108.5 L89.8 108.8 L90.4 109.2 L90.9 109.8 L91.2 110.5 Z" fill-rule="evenodd"/>
<path d="M170.0 103.7 L173.2 103.7 L173.2 111.3 L170.0 111.3 Z"/>
<path d="M176.8 111.3 L176.7 112.1 L176.5 112.9 L176.2 113.6 L175.8 114.3 L175.3 114.9 L174.6 115.5 L173.9 115.9 L173.2 116.2 L172.4 116.4 L171.6 116.5 L170.8 116.4 L170.0 116.2 L169.2 115.9 L168.5 115.5 L167.9 114.9 L167.4 114.3 L167.0 113.6 L166.6 112.9 L166.4 112.1 L166.4 111.3 L166.4 110.4 L166.6 109.6 L167.0 108.9 L167.4 108.2 L167.9 107.6 L168.5 107.0 L169.2 106.6 L170.0 106.3 L170.8 106.1 L171.6 106.1 L172.4 106.1 L173.2 106.3 L173.9 106.6 L174.6 107.0 L175.3 107.6 L175.8 108.2 L176.2 108.9 L176.5 109.6 L176.7 110.4 Z M174.4 111.3 L174.3 112.0 L174.1 112.7 L173.6 113.3 L173.0 113.7 L172.3 114.0 L171.6 114.1 L170.8 114.0 L170.2 113.7 L169.6 113.3 L169.1 112.7 L168.8 112.0 L168.7 111.3 L168.8 110.5 L169.1 109.8 L169.6 109.2 L170.2 108.8 L170.8 108.5 L171.6 108.4 L172.3 108.5 L173.0 108.8 L173.6 109.2 L174.1 109.8 L174.3 110.5 Z" fill-rule="evenodd"/>
<path d="M53.7 106.3 L56.9 106.3 L56.9 112.6 L53.7 112.6 Z"/>
<path d="M60.1 112.6 L60.1 113.3 L59.9 114.0 L59.6 114.7 L59.2 115.4 L58.7 116.0 L58.2 116.4 L57.5 116.8 L56.8 117.1 L56.1 117.3 L55.3 117.4 L54.6 117.3 L53.9 117.1 L53.2 116.8 L52.5 116.4 L51.9 116.0 L51.5 115.4 L51.1 114.7 L50.8 114.0 L50.6 113.3 L50.5 112.6 L50.6 111.8 L50.8 111.1 L51.1 110.4 L51.5 109.7 L51.9 109.2 L52.5 108.7 L53.2 108.3 L53.9 108.0 L54.6 107.8 L55.3 107.8 L56.1 107.8 L56.8 108.0 L57.5 108.3 L58.2 108.7 L58.7 109.2 L59.2 109.7 L59.6 110.4 L59.9 111.1 L60.1 111.8 Z M58.0 112.6 L57.9 113.2 L57.6 113.9 L57.2 114.4 L56.7 114.8 L56.0 115.1 L55.3 115.2 L54.7 115.1 L54.0 114.8 L53.5 114.4 L53.1 113.9 L52.8 113.2 L52.7 112.6 L52.8 111.9 L53.1 111.2 L53.5 110.7 L54.0 110.3 L54.7 110.0 L55.3 109.9 L56.0 110.0 L56.7 110.3 L57.2 110.7 L57.6 111.2 L57.9 111.9 Z" fill-rule="evenodd"/>
<path d="M203.1 106.3 L206.3 106.3 L206.3 112.6 L203.1 112.6 Z"/>
<path d="M209.5 112.6 L209.4 113.3 L209.2 114.0 L208.9 114.7 L208.5 115.4 L208.1 116.0 L207.5 116.4 L206.8 116.8 L206.1 117.1 L205.4 117.3 L204.7 117.4 L203.9 117.3 L203.2 117.1 L202.5 116.8 L201.8 116.4 L201.3 116.0 L200.8 115.4 L200.4 114.7 L200.1 114.0 L199.9 113.3 L199.9 112.6 L199.9 111.8 L200.1 111.1 L200.4 110.4 L200.8 109.7 L201.3 109.2 L201.8 108.7 L202.5 108.3 L203.2 108.0 L203.9 107.8 L204.7 107.8 L205.4 107.8 L206.1 108.0 L206.8 108.3 L207.5 108.7 L208.1 109.2 L208.5 109.7 L208.9 110.4 L209.2 111.1 L209.4 111.8 Z M207.3 112.6 L207.2 113.2 L206.9 113.9 L206.5 114.4 L206.0 114.8 L205.3 115.1 L204.7 115.2 L204.0 115.1 L203.3 114.8 L202.8 114.4 L202.4 113.9 L202.1 113.2 L202.0 112.6 L202.1 111.9 L202.4 111.2 L202.8 110.7 L203.3 110.3 L204.0 110.0 L204.7 109.9 L205.3 110.0 L206.0 110.3 L206.5 110.7 L206.9 111.2 L207.2 111.9 Z" fill-rule="evenodd"/>
<path d="M126.8 104.7 L128.7 50.2 L131.3 50.2 L133.2 104.7 Z"/>
<path d="M114.0 50.2 L146.0 50.2 L146.0 53.2 L114.0 53.2 Z"/>
<path d="M142.6 104.7 L142.5 106.8 L142.0 108.8 L141.3 110.8 L140.2 112.5 L138.9 114.1 L137.4 115.5 L135.7 116.6 L133.9 117.4 L132.0 117.9 L130.0 118.0 L128.0 117.9 L126.1 117.4 L124.3 116.6 L122.6 115.5 L121.1 114.1 L119.8 112.5 L118.7 110.8 L118.0 108.8 L117.5 106.8 L117.4 104.7 L117.5 102.6 L118.0 100.6 L118.7 98.6 L119.8 96.9 L121.1 95.3 L122.6 93.9 L124.3 92.8 L126.1 92.0 L128.0 91.5 L130.0 91.4 L132.0 91.5 L133.9 92.0 L135.7 92.8 L137.4 93.9 L138.9 95.3 L140.2 96.9 L141.3 98.6 L142.0 100.6 L142.5 102.6 Z" fill-rule="evenodd"/>
</g></svg>
