<svg xmlns="http://www.w3.org/2000/svg" viewBox="0 60 260 61"><g id="sil" fill="currentColor">
<path d="M14.0 107.6 L126.5 100.5 L133.5 100.5 L246.0 107.6 L246.0 110.2 L133.5 106.2 L126.5 106.2 L14.0 110.2 Z"/>
<path d="M106.4 103.0 L109.6 103.0 L109.6 112.4 L106.4 112.4 Z"/>
<path d="M101.2 106.9 L114.7 106.9 L114.7 118.0 L101.2 118.0 L102.8 109.4 L113.1 109.4 L113.1 115.6 L102.8 115.6 Z"/>
<path d="M150.4 103.0 L153.6 103.0 L153.6 112.4 L150.4 112.4 Z"/>
<path d="M145.3 106.9 L158.8 106.9 L158.8 118.0 L145.3 118.0 L146.9 109.4 L157.2 109.4 L157.2 115.6 L146.9 115.6 Z"/>
<path d="M92.8 97.6 L85.1 63.5 L89.7 63.5 L104.2 97.6 Z"/>
<path d="M155.8 97.6 L170.3 63.5 L174.9 63.5 L167.2 97.6 Z"/>
<path d="M115.0 91.8 L145.0 91.8 L145.0 96.0 L115.0 96.0 Z"/>
<path d="M146.2 97.6 L146.1 100.5 L145.4 103.3 L144.4 106.0 L143.2 108.6 L141.5 110.7 L139.5 112.7 L137.4 114.2 L135.0 115.3 L132.5 116.0 L130.0 116.1 L127.5 116.0 L125.0 115.3 L122.6 114.2 L120.5 112.7 L118.5 110.7 L116.8 108.6 L115.6 106.0 L114.6 103.3 L113.9 100.5 L113.8 97.6 L113.9 94.8 L114.6 91.9 L115.6 89.2 L116.8 86.6 L118.5 84.5 L120.5 82.5 L122.6 81.1 L125.0 79.9 L127.5 79.2 L130.0 79.1 L132.5 79.2 L135.0 79.9 L137.4 81.1 L139.5 82.5 L141.5 84.5 L143.2 86.6 L144.4 89.2 L145.4 91.9 L146.1 94.8 Z"/>
</g></svg>