<svg xmlns="http://www.w3.org/2000/svg" viewBox="0 79 260 42"><g id="sil" fill="currentColor">
<path d="M14.0 113.1 L126.5 105.7 L133.5 105.7 L246.0 113.1 L246.0 114.9 L133.5 109.8 L126.5 109.8 L14.0 114.9 Z"/>
<path d="M106.4 107.5 L109.6 107.5 L109.6 114.1 L106.4 114.1 Z"/>
<path d="M101.2 110.2 L114.7 110.2 L114.7 118.0 L101.2 118.0 L102.8 112.0 L113.1 112.0 L113.1 116.3 L102.8 116.3 Z"/>
<path d="M150.4 107.5 L153.6 107.5 L153.6 114.1 L150.4 114.1 Z"/>
<path d="M145.3 110.2 L158.8 110.2 L158.8 118.0 L145.3 118.0 L146.9 112.0 L157.2 112.0 L157.2 116.3 L146.9 116.3 Z"/>
<path d="M109.4 103.7 L101.4 82.8 L105.5 82.8 L119.6 103.7 Z"/>
<path d="M140.4 103.7 L154.5 82.8 L158.6 82.8 L150.6 103.7 Z"/>
<path d="M115.0 99.6 L145.0 99.6 L145.0 102.6 L115.0 102.6 Z"/>
<path d="M148.0 103.7 L147.8 105.7 L147.1 107.7 L146.0 109.6 L144.6 111.4 L142.7 112.9 L140.5 114.3 L138.2 115.3 L135.6 116.1 L132.8 116.6 L130.0 116.7 L127.2 116.6 L124.4 116.1 L121.8 115.3 L119.5 114.3 L117.3 112.9 L115.4 111.4 L114.0 109.6 L113.0 107.7 L112.2 105.7 L112.0 103.7 L112.2 101.7 L113.0 99.7 L114.0 97.8 L115.4 96.0 L117.3 94.5 L119.5 93.0 L121.8 92.0 L124.4 91.2 L127.2 90.7 L130.0 90.6 L132.8 90.7 L135.6 91.2 L138.2 92.0 L140.5 93.0 L142.7 94.5 L144.6 96.0 L146.0 97.8 L147.1 99.7 L147.8 101.7 Z"/>
</g></svg>