<svg xmlns="http://www.w3.org/2000/svg" viewBox="0 64 260 57"><g id="sil" fill="currentColor">
<path d="M14.0 108.4 L126.5 101.9 L133.5 101.9 L246.0 108.4 L246.0 110.8 L133.5 107.1 L126.5 107.1 L14.0 110.8 Z"/>
<path d="M106.4 104.2 L109.6 104.2 L109.6 112.9 L106.4 112.9 Z"/>
<path d="M101.2 107.8 L114.7 107.8 L114.7 118.0 L101.2 118.0 L102.8 110.1 L113.1 110.1 L113.1 115.8 L102.8 115.8 Z"/>
<path d="M150.4 104.2 L153.6 104.2 L153.6 112.9 L150.4 112.9 Z"/>
<path d="M145.3 107.8 L158.8 107.8 L158.8 118.0 L145.3 118.0 L146.9 110.1 L157.2 110.1 L157.2 115.8 L146.9 115.8 Z"/>
<path d="M91.8 99.3 L83.8 67.9 L88.4 67.9 L103.2 99.3 Z"/>
<path d="M156.8 99.3 L171.6 67.9 L176.2 67.9 L168.2 99.3 Z"/>
<path d="M115.0 93.9 L145.0 93.9 L145.0 97.8 L115.0 97.8 Z"/>
<path d="M145.1 99.3 L144.9 101.9 L144.3 104.5 L143.4 107.0 L142.2 109.3 L140.7 111.3 L138.8 113.1 L136.9 114.5 L134.7 115.5 L132.3 116.2 L130.0 116.3 L127.7 116.2 L125.3 115.5 L123.1 114.5 L121.2 113.1 L119.3 111.3 L117.8 109.3 L116.6 107.0 L115.7 104.5 L115.0 101.9 L114.9 99.3 L115.0 96.6 L115.7 94.0 L116.6 91.5 L117.8 89.2 L119.3 87.2 L121.2 85.4 L123.1 84.0 L125.3 83.0 L127.7 82.3 L130.0 82.2 L132.3 82.3 L134.7 83.0 L136.9 84.0 L138.8 85.4 L140.7 87.2 L142.2 89.2 L143.4 91.5 L144.3 94.0 L144.9 96.6 Z"/>
</g></svg>