<svg xmlns="http://www.w3.org/2000/svg" viewBox="0 73 260 48"><g id="sil" fill="currentColor">
<path d="M14.0 111.3 L126.1 110.6 L133.9 110.6 L246.0 111.3 L246.0 112.3 L133.9 113.0 L126.1 113.0 L14.0 112.3 Z"/>
<path d="M105.0 112.3 L106.7 112.3 L106.7 115.8 L105.0 115.8 Z"/>
<path d="M102.8 113.6 L108.9 113.6 L108.9 118.0 L102.8 118.0 L103.5 114.6 L108.1 114.6 L108.1 117.0 L103.5 117.0 Z"/>
<path d="M153.3 112.3 L155.0 112.3 L155.0 115.8 L153.3 115.8 Z"/>
<path d="M151.1 113.6 L157.2 113.6 L157.2 118.0 L151.1 118.0 L151.9 114.6 L156.5 114.6 L156.5 117.0 L151.9 117.0 Z"/>
<path d="M125.0 104.5 L128.0 76.3 L132.0 76.3 L135.0 104.5 Z"/>
<path d="M138.1 104.5 L138.0 106.1 L137.7 107.7 L137.2 109.2 L136.6 110.6 L135.7 111.8 L134.8 112.9 L133.7 113.7 L132.5 114.3 L131.2 114.7 L130.0 114.9 L128.8 114.7 L127.5 114.3 L126.3 113.7 L125.2 112.9 L124.3 111.8 L123.4 110.6 L122.8 109.2 L122.3 107.7 L122.0 106.1 L121.9 104.5 L122.0 102.9 L122.3 101.3 L122.8 99.8 L123.4 98.4 L124.3 97.1 L125.2 96.1 L126.3 95.2 L127.5 94.6 L128.8 94.2 L130.0 94.1 L131.2 94.2 L132.5 94.6 L133.7 95.2 L134.8 96.1 L135.7 97.1 L136.6 98.4 L137.2 99.8 L137.7 101.3 L138.0 102.9 L125.8 104.0 L134.2 104.0 L134.2 105.2 L125.8 105.2 Z"/>
</g></svg>