<svg xmlns="http://www.w3.org/2000/svg" viewBox="0 32 260 89"><g id="sil" fill="currentColor">
<path d="M14.0 97.2 L125.6 107.2 L134.4 107.2 L246.0 97.2 L246.0 99.2 L134.4 112.4 L125.6 112.4 L14.0 99.2 Z"/>
<path d="M79.2 103.8 L82.4 103.8 L82.4 110.8 L79.2 110.8 Z"/>
<path d="M86.4 110.8 L86.4 111.7 L86.2 112.6 L85.8 113.4 L85.4 114.1 L84.8 114.8 L84.1 115.4 L83.4 115.8 L82.6 116.2 L81.7 116.4 L80.8 116.4 L79.9 116.4 L79.1 116.2 L78.3 115.8 L77.5 115.4 L76.9 114.8 L76.3 114.1 L75.8 113.4 L75.5 112.6 L75.3 111.7 L75.2 110.8 L75.3 110.0 L75.5 109.1 L75.8 108.3 L76.3 107.5 L76.9 106.9 L77.5 106.3 L78.3 105.8 L79.1 105.5 L79.9 105.3 L80.8 105.2 L81.7 105.3 L82.6 105.5 L83.4 105.8 L84.1 106.3 L84.8 106.9 L85.4 107.5 L85.8 108.3 L86.2 109.1 L86.4 110.0 Z M83.9 110.8 L83.8 111.6 L83.5 112.4 L83.0 113.0 L82.4 113.5 L81.6 113.8 L80.8 113.9 L80.0 113.8 L79.3 113.5 L78.6 113.0 L78.2 112.4 L77.8 111.6 L77.7 110.8 L77.8 110.0 L78.2 109.3 L78.6 108.7 L79.3 108.2 L80.0 107.9 L80.8 107.8 L81.6 107.9 L82.4 108.2 L83.0 108.7 L83.5 109.3 L83.8 110.0 Z" fill-rule="evenodd"/>
<path d="M177.6 103.8 L180.8 103.8 L180.8 110.8 L177.6 110.8 Z"/>
<path d="M184.8 110.8 L184.7 111.7 L184.5 112.6 L184.2 113.4 L183.7 114.1 L183.1 114.8 L182.5 115.4 L181.7 115.8 L180.9 116.2 L180.1 116.4 L179.2 116.4 L178.3 116.4 L177.4 116.2 L176.6 115.8 L175.9 115.4 L175.2 114.8 L174.6 114.1 L174.2 113.4 L173.8 112.6 L173.6 111.7 L173.6 110.8 L173.6 110.0 L173.8 109.1 L174.2 108.3 L174.6 107.5 L175.2 106.9 L175.9 106.3 L176.6 105.8 L177.4 105.5 L178.3 105.3 L179.2 105.2 L180.1 105.3 L180.9 105.5 L181.7 105.8 L182.5 106.3 L183.1 106.9 L183.7 107.5 L184.2 108.3 L184.5 109.1 L184.7 110.0 Z M182.3 110.8 L182.2 111.6 L181.8 112.4 L181.4 113.0 L180.7 113.5 L180.0 113.8 L179.2 113.9 L178.4 113.8 L177.6 113.5 L177.0 113.0 L176.5 112.4 L176.2 111.6 L176.1 110.8 L176.2 110.0 L176.5 109.3 L177.0 108.7 L177.6 108.2 L178.4 107.9 L179.2 107.8 L180.0 107.9 L180.7 108.2 L181.4 108.7 L181.8 109.3 L182.2 110.0 Z" fill-rule="evenodd"/>
<path d="M134.4 86.0 L134.3 86.7 L134.2 87.4 L133.9 88.0 L133.6 88.6 L133.1 89.1 L132.6 89.6 L132.0 89.9 L131.4 90.2 L130.7 90.4 L130.0 90.4 L129.3 90.4 L128.6 90.2 L128.0 89.9 L127.4 89.6 L126.9 89.1 L126.4 88.6 L126.1 88.0 L125.8 87.4 L125.7 86.7 L125.6 86.0 L125.7 85.3 L125.8 84.7 L126.1 84.0 L126.4 83.4 L126.9 82.9 L127.4 82.5 L128.0 82.1 L128.6 81.8 L129.3 81.7 L130.0 81.6 L130.7 81.7 L131.4 81.8 L132.0 82.1 L132.6 82.5 L133.1 82.9 L133.6 83.4 L133.9 84.0 L134.2 84.7 L134.3 85.3 Z M132.3 86.0 L132.2 86.7 L131.9 87.3 L131.5 87.8 L131.0 88.1 L130.3 88.3 L129.7 88.3 L129.0 88.1 L128.5 87.8 L128.1 87.3 L127.8 86.7 L127.7 86.0 L127.8 85.4 L128.1 84.8 L128.5 84.3 L129.0 83.9 L129.7 83.8 L130.3 83.8 L131.0 83.9 L131.5 84.3 L131.9 84.8 L132.2 85.4 Z" fill-rule="evenodd"/>
<path d="M126.3 103.2 L128.5 35.3 L131.5 35.3 L133.7 103.2 Z"/>
<path d="M144.8 103.2 L144.6 105.5 L144.0 107.8 L143.1 109.9 L141.9 111.9 L140.4 113.6 L138.7 115.1 L136.7 116.3 L134.6 117.2 L132.3 117.8 L130.0 118.0 L127.7 117.8 L125.4 117.2 L123.3 116.3 L121.3 115.1 L119.6 113.6 L118.1 111.9 L116.9 109.9 L116.0 107.8 L115.4 105.5 L115.2 103.2 L115.4 100.9 L116.0 98.6 L116.9 96.5 L118.1 94.5 L119.6 92.8 L121.3 91.3 L123.3 90.1 L125.4 89.2 L127.7 88.6 L130.0 88.4 L132.3 88.6 L134.6 89.2 L136.7 90.1 L138.7 91.3 L140.4 92.8 L141.9 94.5 L143.1 96.5 L144.0 98.6 L144.6 100.9 Z M122.3 102.8 L137.7 102.8 L137.7 104.6 L122.3 104.6 Z" fill-rule="evenodd"/>
</g></svg>
