<svg xmlns="http://www.w3.org/2000/svg" viewBox="0 75 260 46"><g id="sil" fill="currentColor">
<path d="M14.0 110.7 L126.5 103.7 L133.5 103.7 L246.0 110.7 L246.0 112.8 L133.5 108.4 L126.5 108.4 L14.0 112.8 Z"/>
<path d="M106.4 105.8 L109.6 105.8 L109.6 113.5 L106.4 113.5 Z"/>
<path d="M101.2 108.9 L114.7 108.9 L114.7 118.0 L101.2 118.0 L102.8 111.0 L113.1 111.0 L113.1 116.0 L102.8 116.0 Z"/>
<path d="M150.4 105.8 L153.6 105.8 L153.6 113.5 L150.4 113.5 Z"/>
<path d="M145.3 108.9 L158.8 108.9 L158.8 118.0 L145.3 118.0 L146.9 111.0 L157.2 111.0 L157.2 116.0 L146.9 116.0 Z"/>
<path d="M81.6 101.3 L89.7 78.3 L94.1 78.3 L92.4 101.3 Z"/>
<path d="M167.6 101.3 L165.9 78.3 L170.3 78.3 L178.4 101.3 Z"/>
<path d="M115.0 96.6 L145.0 96.6 L145.0 100.1 L115.0 100.1 Z"/>
<path d="M145.1 101.3 L144.9 103.7 L144.3 106.0 L143.4 108.2 L142.2 110.3 L140.7 112.1 L138.8 113.7 L136.9 114.9 L134.7 115.8 L132.3 116.4 L130.0 116.5 L127.7 116.4 L125.3 115.8 L123.1 114.9 L121.2 113.7 L119.3 112.1 L117.8 110.3 L116.6 108.2 L115.7 106.0 L115.0 103.7 L114.9 101.3 L115.0 99.0 L115.7 96.7 L116.6 94.5 L117.8 92.4 L119.3 90.6 L121.2 89.0 L123.1 87.8 L125.3 86.9 L127.7 86.3 L130.0 86.2 L132.3 86.3 L134.7 86.9 L136.9 87.8 L138.8 89.0 L140.7 90.6 L142.2 92.4 L143.4 94.5 L144.3 96.7 L144.9 99.0 Z"/>
</g></svg>