<svg xmlns="http://www.w3.org/2000/svg" viewBox="0 58 260 62"><g id="sil" fill="currentColor">
<path d="M14.0 98.1 L125.8 108.1 L134.2 108.1 L246.0 98.1 L246.0 100.1 L134.2 113.3 L125.8 113.3 L14.0 100.1 Z"/>
<path d="M79.8 104.7 L83.0 104.7 L83.0 111.9 L79.8 111.9 Z"/>
<path d="M87.2 111.9 L87.1 112.9 L86.9 113.7 L86.6 114.6 L86.1 115.4 L85.5 116.0 L84.8 116.6 L84.0 117.1 L83.2 117.5 L82.3 117.7 L81.4 117.7 L80.5 117.7 L79.6 117.5 L78.8 117.1 L78.0 116.6 L77.3 116.0 L76.7 115.4 L76.2 114.6 L75.9 113.7 L75.7 112.9 L75.6 111.9 L75.7 111.0 L75.9 110.2 L76.2 109.3 L76.7 108.5 L77.3 107.8 L78.0 107.3 L78.8 106.8 L79.6 106.4 L80.5 106.2 L81.4 106.1 L82.3 106.2 L83.2 106.4 L84.0 106.8 L84.8 107.3 L85.5 107.8 L86.1 108.5 L86.6 109.3 L86.9 110.2 L87.1 111.0 Z M84.6 111.9 L84.5 112.8 L84.2 113.5 L83.7 114.2 L83.0 114.7 L82.2 115.0 L81.4 115.1 L80.6 115.0 L79.8 114.7 L79.2 114.2 L78.7 113.5 L78.3 112.8 L78.2 111.9 L78.3 111.1 L78.7 110.4 L79.2 109.7 L79.8 109.2 L80.6 108.9 L81.4 108.8 L82.2 108.9 L83.0 109.2 L83.7 109.7 L84.2 110.4 L84.5 111.1 Z" fill-rule="evenodd"/>
<path d="M177.0 104.7 L180.2 104.7 L180.2 111.9 L177.0 111.9 Z"/>
<path d="M184.4 111.9 L184.3 112.9 L184.1 113.7 L183.8 114.6 L183.3 115.4 L182.7 116.0 L182.0 116.6 L181.2 117.1 L180.4 117.5 L179.5 117.7 L178.6 117.7 L177.7 117.7 L176.8 117.5 L176.0 117.1 L175.2 116.6 L174.5 116.0 L173.9 115.4 L173.4 114.6 L173.1 113.7 L172.9 112.9 L172.8 111.9 L172.9 111.0 L173.1 110.2 L173.4 109.3 L173.9 108.5 L174.5 107.8 L175.2 107.3 L176.0 106.8 L176.8 106.4 L177.7 106.2 L178.6 106.1 L179.5 106.2 L180.4 106.4 L181.2 106.8 L182.0 107.3 L182.7 107.8 L183.3 108.5 L183.8 109.3 L184.1 110.2 L184.3 111.0 Z M181.8 111.9 L181.7 112.8 L181.3 113.5 L180.8 114.2 L180.2 114.7 L179.4 115.0 L178.6 115.1 L177.8 115.0 L177.0 114.7 L176.3 114.2 L175.8 113.5 L175.5 112.8 L175.4 111.9 L175.5 111.1 L175.8 110.4 L176.3 109.7 L177.0 109.2 L177.8 108.9 L178.6 108.8 L179.4 108.9 L180.2 109.2 L180.8 109.7 L181.3 110.4 L181.7 111.1 Z" fill-rule="evenodd"/>
<path d="M134.8 87.6 L134.7 88.4 L134.6 89.1 L134.3 89.8 L133.9 90.4 L133.4 91.0 L132.8 91.5 L132.2 91.9 L131.5 92.2 L130.8 92.3 L130.0 92.4 L129.2 92.3 L128.5 92.2 L127.8 91.9 L127.2 91.5 L126.6 91.0 L126.1 90.4 L125.7 89.8 L125.4 89.1 L125.3 88.4 L125.2 87.6 L125.3 86.9 L125.4 86.1 L125.7 85.4 L126.1 84.8 L126.6 84.2 L127.2 83.7 L127.8 83.3 L128.5 83.0 L129.2 82.9 L130.0 82.8 L130.8 82.9 L131.5 83.0 L132.2 83.3 L132.8 83.7 L133.4 84.2 L133.9 84.8 L134.3 85.4 L134.6 86.1 L134.7 86.9 Z M132.5 87.6 L132.4 88.3 L132.1 89.0 L131.6 89.5 L131.0 89.9 L130.4 90.1 L129.6 90.1 L129.0 89.9 L128.4 89.5 L127.9 89.0 L127.6 88.3 L127.5 87.6 L127.6 86.9 L127.9 86.3 L128.4 85.7 L129.0 85.3 L129.6 85.1 L130.4 85.1 L131.0 85.3 L131.6 85.7 L132.1 86.3 L132.4 86.9 Z" fill-rule="evenodd"/>
<path d="M126.3 104.1 L128.5 61 L131.5 61 L133.7 104.1 Z"/>
<path d="M143.9 104.1 L143.7 106.3 L143.2 108.4 L142.3 110.4 L141.2 112.2 L139.8 113.9 L138.1 115.3 L136.3 116.4 L134.3 117.3 L132.2 117.8 L130.0 118.0 L127.8 117.8 L125.7 117.3 L123.7 116.4 L121.9 115.3 L120.2 113.9 L118.8 112.2 L117.7 110.4 L116.8 108.4 L116.3 106.3 L116.1 104.1 L116.3 101.9 L116.8 99.8 L117.7 97.8 L118.8 96.0 L120.2 94.3 L121.9 92.9 L123.7 91.8 L125.7 90.9 L127.8 90.4 L130.0 90.2 L132.2 90.4 L134.3 90.9 L136.3 91.8 L138.1 92.9 L139.8 94.3 L141.2 96.0 L142.3 97.8 L143.2 99.8 L143.7 101.9 Z M122.8 103.7 L137.2 103.7 L137.2 105.5 L122.8 105.5 Z" fill-rule="evenodd"/>
</g></svg>
