<svg xmlns="http://www.w3.org/2000/svg" viewBox="0 59 260 61"><g id="sil" fill="currentColor">
<path d="M16.0 97.5 L125.9 108.5 L134.1 108.5 L244.0 97.5 L244.0 99.5 L134.1 113.7 L125.9 113.7 L16.0 99.5 Z"/>
<path d="M16.5 93.5 L14.0 93.5 L14.0 102.5 L16.5 102.5 Z"/>
<path d="M243.5 93.5 L246.0 93.5 L246.0 102.5 L243.5 102.5 Z"/>
<path d="M80.0 104.6 L83.2 104.6 L83.2 111.9 L80.0 111.9 Z"/>
<path d="M87.4 111.9 L87.4 112.8 L87.2 113.7 L86.8 114.5 L86.3 115.3 L85.7 116.0 L85.0 116.6 L84.3 117.0 L83.4 117.4 L82.5 117.6 L81.6 117.7 L80.7 117.6 L79.8 117.4 L79.0 117.0 L78.2 116.6 L77.5 116.0 L76.9 115.3 L76.5 114.5 L76.1 113.7 L75.9 112.8 L75.8 111.9 L75.9 111.0 L76.1 110.1 L76.5 109.2 L76.9 108.5 L77.5 107.8 L78.2 107.2 L79.0 106.7 L79.8 106.4 L80.7 106.1 L81.6 106.1 L82.5 106.1 L83.4 106.4 L84.3 106.7 L85.0 107.2 L85.7 107.8 L86.3 108.5 L86.8 109.2 L87.2 110.1 L87.4 111.0 Z M84.8 111.9 L84.7 112.7 L84.4 113.5 L83.9 114.1 L83.2 114.6 L82.5 115.0 L81.6 115.1 L80.8 115.0 L80.0 114.6 L79.4 114.1 L78.9 113.5 L78.6 112.7 L78.4 111.9 L78.6 111.0 L78.9 110.3 L79.4 109.6 L80.0 109.1 L80.8 108.8 L81.6 108.7 L82.5 108.8 L83.2 109.1 L83.9 109.6 L84.4 110.3 L84.7 111.0 Z" fill-rule="evenodd"/>
<path d="M176.8 104.6 L180.0 104.6 L180.0 111.9 L176.8 111.9 Z"/>
<path d="M184.2 111.9 L184.1 112.8 L183.9 113.7 L183.5 114.5 L183.1 115.3 L182.5 116.0 L181.8 116.6 L181.0 117.0 L180.2 117.4 L179.3 117.6 L178.4 117.7 L177.5 117.6 L176.6 117.4 L175.7 117.0 L175.0 116.6 L174.3 116.0 L173.7 115.3 L173.2 114.5 L172.8 113.7 L172.6 112.8 L172.6 111.9 L172.6 111.0 L172.8 110.1 L173.2 109.2 L173.7 108.5 L174.3 107.8 L175.0 107.2 L175.7 106.7 L176.6 106.4 L177.5 106.1 L178.4 106.1 L179.3 106.1 L180.2 106.4 L181.0 106.7 L181.8 107.2 L182.5 107.8 L183.1 108.5 L183.5 109.2 L183.9 110.1 L184.1 111.0 Z M181.6 111.9 L181.4 112.7 L181.1 113.5 L180.6 114.1 L180.0 114.6 L179.2 115.0 L178.4 115.1 L177.5 115.0 L176.8 114.6 L176.1 114.1 L175.6 113.5 L175.3 112.7 L175.2 111.9 L175.3 111.0 L175.6 110.3 L176.1 109.6 L176.8 109.1 L177.5 108.8 L178.4 108.7 L179.2 108.8 L180.0 109.1 L180.6 109.6 L181.1 110.3 L181.4 111.0 Z" fill-rule="evenodd"/>
<path d="M134.6 88.5 L134.5 89.2 L134.4 89.9 L134.1 90.5 L133.7 91.2 L133.3 91.7 L132.7 92.2 L132.1 92.6 L131.4 92.8 L130.7 93.0 L130.0 93.1 L129.3 93.0 L128.6 92.8 L127.9 92.6 L127.3 92.2 L126.7 91.7 L126.3 91.2 L125.9 90.5 L125.6 89.9 L125.5 89.2 L125.4 88.5 L125.5 87.7 L125.6 87.0 L125.9 86.4 L126.3 85.7 L126.7 85.2 L127.3 84.7 L127.9 84.4 L128.6 84.1 L129.3 83.9 L130.0 83.9 L130.7 83.9 L131.4 84.1 L132.1 84.4 L132.7 84.7 L133.3 85.2 L133.7 85.7 L134.1 86.4 L134.4 87.0 L134.5 87.7 Z M132.4 88.5 L132.3 89.1 L132.0 89.7 L131.6 90.3 L131.0 90.6 L130.3 90.8 L129.7 90.8 L129.0 90.6 L128.4 90.3 L128.0 89.7 L127.7 89.1 L127.6 88.5 L127.7 87.8 L128.0 87.2 L128.4 86.6 L129.0 86.3 L129.7 86.1 L130.3 86.1 L131.0 86.3 L131.6 86.6 L132.0 87.2 L132.3 87.8 Z" fill-rule="evenodd"/>
<path d="M126.4 104.5 L128.6 62 L131.4 62 L133.6 104.5 Z"/>
<path d="M143.5 104.5 L143.4 106.6 L142.9 108.7 L142.0 110.6 L140.9 112.4 L139.6 114.1 L137.9 115.4 L136.1 116.5 L134.2 117.4 L132.1 117.9 L130.0 118.0 L127.9 117.9 L125.8 117.4 L123.9 116.5 L122.1 115.4 L120.4 114.1 L119.1 112.4 L118.0 110.6 L117.1 108.7 L116.6 106.6 L116.5 104.5 L116.6 102.4 L117.1 100.3 L118.0 98.4 L119.1 96.6 L120.4 94.9 L122.1 93.6 L123.9 92.5 L125.8 91.6 L127.9 91.1 L130.0 91.0 L132.1 91.1 L134.2 91.6 L136.1 92.5 L137.9 93.6 L139.6 94.9 L140.9 96.6 L142.0 98.4 L142.9 100.3 L143.4 102.4 Z M123.0 104.1 L137.0 104.1 L137.0 105.9 L123.0 105.9 Z" fill-rule="evenodd"/>
</g></svg>
