<svg xmlns="http://www.w3.org/2000/svg" viewBox="0 57 260 64"><g id="sil" fill="currentColor">
<path d="M14.0 107.0 L126.5 99.4 L133.5 99.4 L246.0 107.0 L246.0 109.7 L133.5 105.5 L126.5 105.5 L14.0 109.7 Z"/>
<path d="M106.4 102.1 L109.6 102.1 L109.6 112.1 L106.4 112.1 Z"/>
<path d="M101.2 106.2 L114.7 106.2 L114.7 118.0 L101.2 118.0 L102.8 108.9 L113.1 108.9 L113.1 115.4 L102.8 115.4 Z"/>
<path d="M150.4 102.1 L153.6 102.1 L153.6 112.1 L150.4 112.1 Z"/>
<path d="M145.3 106.2 L158.8 106.2 L158.8 118.0 L145.3 118.0 L146.9 108.9 L157.2 108.9 L157.2 115.4 L146.9 115.4 Z"/>
<path d="M85.0 96.4 L86.1 60.3 L90.9 60.3 L97.0 96.4 Z"/>
<path d="M163.0 96.4 L169.1 60.3 L173.9 60.3 L175.0 96.4 Z"/>
<path d="M115.0 90.2 L145.0 90.2 L145.0 94.8 L115.0 94.8 Z"/>
<path d="M146.2 96.4 L146.1 99.4 L145.4 102.5 L144.4 105.3 L143.2 108.0 L141.5 110.3 L139.5 112.4 L137.4 113.9 L135.0 115.1 L132.5 115.9 L130.0 116.0 L127.5 115.9 L125.0 115.1 L122.6 113.9 L120.5 112.4 L118.5 110.3 L116.8 108.0 L115.6 105.3 L114.6 102.5 L113.9 99.4 L113.8 96.4 L113.9 93.4 L114.6 90.4 L115.6 87.5 L116.8 84.8 L118.5 82.5 L120.5 80.4 L122.6 78.9 L125.0 77.7 L127.5 76.9 L130.0 76.8 L132.5 76.9 L135.0 77.7 L137.4 78.9 L139.5 80.4 L141.5 82.5 L143.2 84.8 L144.4 87.5 L145.4 90.4 L146.1 93.4 Z"/>
</g></svg>