<svg xmlns="http://www.w3.org/2000/svg" viewBox="0 52 260 69"><g id="sil" fill="currentColor">
<path d="M14.0 106.3 L126.5 98.3 L133.5 98.3 L246.0 106.3 L246.0 109.2 L133.5 104.7 L126.5 104.7 L14.0 109.2 Z"/>
<path d="M106.4 101.2 L109.6 101.2 L109.6 111.8 L106.4 111.8 Z"/>
<path d="M101.2 105.5 L114.7 105.5 L114.7 118.0 L101.2 118.0 L102.8 108.4 L113.1 108.4 L113.1 115.3 L102.8 115.3 Z"/>
<path d="M150.4 101.2 L153.6 101.2 L153.6 111.8 L150.4 111.8 Z"/>
<path d="M145.3 105.5 L158.8 105.5 L158.8 118.0 L145.3 118.0 L146.9 108.4 L157.2 108.4 L157.2 115.3 L146.9 115.3 Z"/>
<path d="M85.2 95.1 L84.8 55.2 L89.8 55.2 L97.8 95.1 Z"/>
<path d="M162.2 95.1 L170.2 55.2 L175.2 55.2 L174.8 95.1 Z"/>
<path d="M115.0 88.6 L145.0 88.6 L145.0 93.4 L115.0 93.4 Z"/>
<path d="M147.4 95.1 L147.3 98.3 L146.5 101.5 L145.5 104.6 L144.1 107.4 L142.3 109.8 L140.2 112.1 L138.0 113.7 L135.4 115.0 L132.7 115.8 L130.0 115.9 L127.3 115.8 L124.6 115.0 L122.1 113.7 L119.8 112.1 L117.7 109.8 L115.9 107.4 L114.6 104.6 L113.5 101.5 L112.8 98.3 L112.6 95.1 L112.8 91.9 L113.5 88.7 L114.6 85.7 L115.9 82.8 L117.7 80.4 L119.8 78.2 L122.1 76.6 L124.6 75.3 L127.3 74.5 L130.0 74.4 L132.7 74.5 L135.4 75.3 L138.0 76.6 L140.2 78.2 L142.3 80.4 L144.1 82.8 L145.5 85.7 L146.5 88.7 L147.3 91.9 Z"/>
</g></svg>