<svg xmlns="http://www.w3.org/2000/svg" viewBox="0 60 260 61"><g id="sil" fill="currentColor">
<path d="M14.0 107.4 L126.5 100.1 L133.5 100.1 L246.0 107.4 L246.0 110.0 L133.5 105.9 L126.5 105.9 L14.0 110.0 Z"/>
<path d="M106.4 102.7 L109.6 102.7 L109.6 112.3 L106.4 112.3 Z"/>
<path d="M101.2 106.6 L114.7 106.6 L114.7 118.0 L101.2 118.0 L102.8 109.3 L113.1 109.3 L113.1 115.5 L102.8 115.5 Z"/>
<path d="M150.4 102.7 L153.6 102.7 L153.6 112.3 L150.4 112.3 Z"/>
<path d="M145.3 106.6 L158.8 106.6 L158.8 118.0 L145.3 118.0 L146.9 109.3 L157.2 109.3 L157.2 115.5 L146.9 115.5 Z"/>
<path d="M84.8 97.2 L84.7 63.8 L89.3 63.8 L96.2 97.2 Z"/>
<path d="M163.8 97.2 L170.7 63.8 L175.3 63.8 L175.2 97.2 Z"/>
<path d="M115.0 91.2 L145.0 91.2 L145.0 95.6 L115.0 95.6 Z"/>
<path d="M144.6 97.2 L144.5 100.1 L143.9 103.0 L143.0 105.8 L141.8 108.4 L140.3 110.6 L138.6 112.6 L136.7 114.1 L134.5 115.2 L132.3 116.0 L130.0 116.1 L127.7 116.0 L125.5 115.2 L123.3 114.1 L121.4 112.6 L119.7 110.6 L118.2 108.4 L117.0 105.8 L116.1 103.0 L115.5 100.1 L115.4 97.2 L115.5 94.3 L116.1 91.3 L117.0 88.6 L118.2 85.9 L119.7 83.8 L121.4 81.7 L123.3 80.3 L125.5 79.1 L127.7 78.4 L130.0 78.2 L132.3 78.4 L134.5 79.1 L136.7 80.3 L138.6 81.7 L140.3 83.8 L141.8 85.9 L143.0 88.6 L143.9 91.3 L144.5 94.3 Z"/>
</g></svg>