<svg xmlns="http://www.w3.org/2000/svg" viewBox="0 108 260 13"><g id="sil" fill="currentColor">
<path d="M14.0 116.5 L126.5 113.8 L133.5 113.8 L246.0 116.5 L246.0 117.1 L133.5 115.2 L126.5 115.2 L14.0 117.1 Z"/>
<path d="M94.6 114.4 L99.4 114.4 L99.4 116.7 L94.6 116.7 Z"/>
<path d="M86.8 115.3 L107.1 115.3 L107.1 118.0 L86.8 118.0 L89.2 115.9 L104.6 115.9 L104.6 117.4 L89.2 117.4 Z"/>
<path d="M160.6 114.4 L165.4 114.4 L165.4 116.7 L160.6 116.7 Z"/>
<path d="M153.0 115.3 L173.2 115.3 L173.2 118.0 L153.0 118.0 L155.4 115.9 L170.8 115.9 L170.8 117.4 L155.4 117.4 Z"/>
<path d="M128.2 113.1 L128.4 111.3 L128.6 111.3 L128.8 113.1 Z"/>
<path d="M131.2 113.1 L131.4 111.3 L131.6 111.3 L131.8 113.1 Z"/>
<path d="M150.3 114.4 L150.1 114.9 L149.3 115.4 L148.0 115.9 L146.5 116.4 L144.3 116.7 L141.9 117.1 L139.3 117.3 L136.3 117.5 L133.2 117.7 L130.0 117.7 L126.8 117.7 L123.7 117.5 L120.7 117.3 L118.1 117.1 L115.6 116.7 L113.5 116.4 L112.0 115.9 L110.8 115.4 L109.9 114.9 L109.7 114.4 L109.9 113.9 L110.8 113.4 L112.0 113.0 L113.5 112.5 L115.6 112.2 L118.1 111.8 L120.7 111.6 L123.7 111.4 L126.8 111.2 L130.0 111.2 L133.2 111.2 L136.3 111.4 L139.3 111.6 L141.9 111.8 L144.3 112.2 L146.5 112.5 L148.0 113.0 L149.3 113.4 L150.1 113.9 Z"/>
</g></svg>