<svg xmlns="http://www.w3.org/2000/svg" viewBox="0 48 260 73"><g id="sil" fill="currentColor">
<path d="M14.0 110.7 L126.5 105.7 L133.5 105.7 L246.0 110.7 L246.0 112.5 L133.5 109.7 L126.5 109.7 L14.0 112.5 Z"/>
<path d="M106.4 107.5 L109.6 107.5 L109.6 114.1 L106.4 114.1 Z"/>
<path d="M101.2 110.2 L114.7 110.2 L114.7 118.0 L101.2 118.0 Z M102.8 112.0 L113.1 112.0 L113.1 116.3 L102.8 116.3 Z" fill-rule="evenodd"/>
<path d="M150.4 107.5 L153.6 107.5 L153.6 114.1 L150.4 114.1 Z"/>
<path d="M145.3 110.2 L158.8 110.2 L158.8 118.0 L145.3 118.0 Z M146.9 112.0 L157.2 112.0 L157.2 116.3 L146.9 116.3 Z" fill-rule="evenodd"/>
<path d="M112.0 103.7 L113.8 51.7 L116.2 51.7 L118.0 103.7 Z"/>
<path d="M142.0 103.7 L143.8 51.7 L146.2 51.7 L148.0 103.7 Z"/>
<path d="M115.0 99.6 L145.0 99.6 L145.0 102.6 L115.0 102.6 Z"/>
<path d="M141.6 103.7 L141.5 105.7 L141.0 107.7 L140.3 109.6 L139.4 111.4 L138.2 112.9 L136.8 114.3 L135.3 115.3 L133.6 116.1 L131.8 116.6 L130.0 116.7 L128.2 116.6 L126.4 116.1 L124.7 115.3 L123.2 114.3 L121.8 112.9 L120.6 111.4 L119.7 109.6 L119.0 107.7 L118.5 105.7 L118.4 103.7 L118.5 101.7 L119.0 99.7 L119.7 97.8 L120.6 96.0 L121.8 94.5 L123.2 93.1 L124.7 92.1 L126.4 91.3 L128.2 90.8 L130.0 90.7 L131.8 90.8 L133.6 91.3 L135.3 92.1 L136.8 93.1 L138.2 94.5 L139.4 96.0 L140.3 97.8 L141.0 99.7 L141.5 101.7 Z" fill-rule="evenodd"/>
</g></svg>
