<svg xmlns="http://www.w3.org/2000/svg" viewBox="0 40 260 88"><g id="sil" fill="currentColor">
<path d="M150.2 94.1 L149.9 97.6 L149.0 101.0 L147.5 104.2 L145.5 107.1 L143.0 109.6 L140.1 111.6 L136.9 113.1 L133.5 114.0 L130.0 114.3 L126.5 114.0 L123.1 113.1 L119.9 111.6 L117.0 109.6 L114.5 107.1 L112.5 104.2 L111.0 101.0 L110.1 97.6 L109.8 94.1 L110.1 90.6 L111.0 87.2 L112.5 84.0 L114.5 81.1 L117.0 78.6 L119.9 76.6 L123.1 75.1 L126.5 74.2 L130.0 73.9 L133.5 74.2 L136.9 75.1 L140.1 76.6 L143.0 78.6 L145.5 81.1 L147.5 84.0 L149.0 87.2 L149.9 90.6 Z M148.4 94.1 L148.1 97.3 L147.3 100.4 L145.9 103.3 L144.1 105.9 L141.8 108.2 L139.2 110.0 L136.3 111.3 L133.2 112.2 L130.0 112.5 L126.8 112.2 L123.7 111.3 L120.8 110.0 L118.2 108.2 L115.9 105.9 L114.1 103.3 L112.7 100.4 L111.9 97.3 L111.6 94.1 L111.9 90.9 L112.7 87.8 L114.1 84.9 L115.9 82.3 L118.2 80.0 L120.8 78.2 L123.7 76.8 L126.8 76.0 L130.0 75.7 L133.2 76.0 L136.3 76.8 L139.2 78.2 L141.8 80.0 L144.1 82.3 L145.9 84.9 L147.3 87.8 L148.1 90.9 Z" fill-rule="evenodd"/>
<path d="M14.0 102.8 L116.1 101.7 L143.9 101.7 L246.0 102.8 L246.0 105.7 L143.9 105.3 L116.1 105.3 L14.0 105.7 Z"/>
<path d="M127.2 94.1 L128.6 68.7 L131.4 68.7 L132.8 94.1 Z"/>
<path d="M128.7 100.4 L131.3 100.4 L131.3 109.6 L128.7 109.6 Z"/>
<path d="M133.4 112.6 L133.3 113.6 L132.8 114.6 L132.0 115.3 L131.1 115.8 L130.0 116.0 L128.9 115.8 L128.0 115.3 L127.2 114.6 L126.7 113.6 L126.6 112.6 L126.7 111.5 L127.2 110.5 L128.0 109.8 L128.9 109.3 L130.0 109.1 L131.1 109.3 L132.0 109.8 L132.8 110.5 L133.3 111.5 Z"/>
<path d="M122.4 103.2 L97.2 108.7 L94.4 108.7 L119.8 103.2 Z"/>
<path d="M101.3 111.9 L101.1 113.2 L100.5 114.3 L99.6 115.2 L98.5 115.8 L97.2 116.0 L96.0 115.8 L94.8 115.2 L93.9 114.3 L93.4 113.2 L93.2 111.9 L93.4 110.7 L93.9 109.5 L94.8 108.6 L96.0 108.0 L97.2 107.8 L98.5 108.0 L99.6 108.6 L100.5 109.5 L101.1 110.7 Z"/>
<path d="M137.6 103.2 L162.8 108.7 L165.6 108.7 L140.2 103.2 Z"/>
<path d="M166.8 111.9 L166.6 113.2 L166.1 114.3 L165.2 115.2 L164.0 115.8 L162.8 116.0 L161.5 115.8 L160.4 115.2 L159.5 114.3 L158.9 113.2 L158.7 111.9 L158.9 110.7 L159.5 109.5 L160.4 108.6 L161.5 108.0 L162.8 107.8 L164.0 108.0 L165.2 108.6 L166.1 109.5 L166.6 110.7 Z"/>
<path d="M142.7 94.1 L142.5 96.3 L141.9 98.4 L141.0 100.4 L139.7 102.2 L138.1 103.8 L136.3 105.1 L134.3 106.0 L132.2 106.6 L130.0 106.8 L127.8 106.6 L125.7 106.0 L123.7 105.1 L121.9 103.8 L120.3 102.2 L119.0 100.4 L118.1 98.4 L117.5 96.3 L117.3 94.1 L117.5 91.9 L118.1 89.8 L119.0 87.8 L120.3 85.9 L121.9 84.4 L123.7 83.1 L125.7 82.2 L127.8 81.6 L130.0 81.4 L132.2 81.6 L134.3 82.2 L136.3 83.1 L138.1 84.4 L139.7 85.9 L141.0 87.8 L141.9 89.8 L142.5 91.9 Z M122.1 92.2 L137.9 92.2 L137.9 96.0 L122.1 96.0 Z" fill-rule="evenodd"/>
</g></svg>
