<svg xmlns="http://www.w3.org/2000/svg" viewBox="0 53 260 68"><g id="sil" fill="currentColor">
<path d="M14.0 111.6 L126.1 106.4 L133.9 106.4 L246.0 111.6 L246.0 113.3 L133.9 110.2 L126.1 110.2 L14.0 113.3 Z"/>
<path d="M86.8 108.9 L89.8 108.9 L89.8 114.6 L86.8 114.6 Z"/>
<path d="M83.1 111.0 L93.5 111.0 L93.5 118.0 L83.1 118.0 L84.3 112.6 L92.2 112.6 L92.2 116.5 L84.3 116.5 Z"/>
<path d="M170.2 108.9 L173.2 108.9 L173.2 114.6 L170.2 114.6 Z"/>
<path d="M166.5 111.0 L176.9 111.0 L176.9 118.0 L166.5 118.0 L167.8 112.6 L175.7 112.6 L175.7 116.5 L167.8 116.5 Z"/>
<path d="M125.0 96.4 L128.0 56.9 L132.0 56.9 L135.0 96.4 Z"/>
<path d="M143.8 96.4 L143.5 99.0 L143.0 101.5 L142.2 104.0 L141.1 106.2 L139.7 108.2 L138.1 109.8 L136.2 111.1 L134.2 112.1 L132.1 112.8 L130.0 113.0 L127.9 112.8 L125.8 112.1 L123.8 111.1 L121.9 109.8 L120.3 108.2 L118.9 106.2 L117.8 104.0 L117.0 101.5 L116.5 99.0 L116.3 96.4 L116.5 93.9 L117.0 91.4 L117.8 88.9 L118.9 86.7 L120.3 84.7 L121.9 83.1 L123.8 81.7 L125.8 80.7 L127.9 80.1 L130.0 79.9 L132.1 80.1 L134.2 80.7 L136.2 81.7 L138.1 83.1 L139.7 84.7 L141.1 86.7 L142.2 88.9 L143.0 91.4 L143.5 93.9 L122.9 95.7 L137.1 95.7 L137.1 97.7 L122.9 97.7 Z"/>
</g></svg>