<svg xmlns="http://www.w3.org/2000/svg" viewBox="0 33 260 88"><g id="sil" fill="currentColor">
<path d="M14.0 104.6 L126.5 95.5 L133.5 95.5 L246.0 104.6 L246.0 107.9 L133.5 102.8 L126.5 102.8 L14.0 107.9 Z"/>
<path d="M113.5 98.8 L115.7 98.8 L115.7 110.9 L113.5 110.9 Z"/>
<path d="M109.8 103.7 L119.3 103.7 L119.3 118.0 L109.8 118.0 L111.0 107.0 L118.2 107.0 L118.2 114.9 L111.0 114.9 Z"/>
<path d="M144.3 98.8 L146.5 98.8 L146.5 110.9 L144.3 110.9 Z"/>
<path d="M140.7 103.7 L150.2 103.7 L150.2 118.0 L140.7 118.0 L141.8 107.0 L149.0 107.0 L149.0 114.9 L141.8 114.9 Z"/>
<path d="M124.9 91.8 L128.0 36.6 L132.0 36.6 L135.1 91.8 Z"/>
<path d="M115.0 84.3 L145.0 84.3 L145.0 89.8 L115.0 89.8 Z"/>
<path d="M143.2 91.8 L143.1 95.5 L142.5 99.1 L141.7 102.6 L140.7 105.9 L139.3 108.7 L137.8 111.2 L136.0 113.1 L134.1 114.5 L132.1 115.4 L130.0 115.6 L127.9 115.4 L125.9 114.5 L124.0 113.1 L122.2 111.2 L120.7 108.7 L119.3 105.9 L118.3 102.6 L117.5 99.1 L116.9 95.5 L116.8 91.8 L116.9 88.2 L117.5 84.5 L118.3 81.0 L119.3 77.7 L120.7 75.0 L122.2 72.4 L124.0 70.6 L125.9 69.1 L127.9 68.2 L130.0 68.0 L132.1 68.2 L134.1 69.1 L136.0 70.6 L137.8 72.4 L139.3 75.0 L140.7 77.7 L141.7 81.0 L142.5 84.5 L143.1 88.2 Z"/>
<path d="M90.6 111.8 L128.8 102.7 L131.2 102.7 L169.4 111.8 L169.4 115.1 L131.2 110.0 L128.8 110.0 L90.6 115.1 Z"/>
</g></svg>