<svg xmlns="http://www.w3.org/2000/svg" viewBox="0 72 260 49"><g id="sil" fill="currentColor">
<path d="M14.0 109.7 L126.5 104.0 L133.5 104.0 L246.0 109.7 L246.0 111.7 L133.5 108.5 L126.5 108.5 L14.0 111.7 Z"/>
<path d="M106.4 106.0 L109.6 106.0 L109.6 113.5 L106.4 113.5 Z"/>
<path d="M101.2 109.1 L114.7 109.1 L114.7 118.0 L101.2 118.0 L102.8 111.2 L113.1 111.2 L113.1 116.1 L102.8 116.1 Z"/>
<path d="M150.4 106.0 L153.6 106.0 L153.6 113.5 L150.4 113.5 Z"/>
<path d="M145.3 109.1 L158.8 109.1 L158.8 118.0 L145.3 118.0 L146.9 111.2 L157.2 111.2 L157.2 116.1 L146.9 116.1 Z"/>
<path d="M89.6 101.7 L83.8 75.6 L88.2 75.6 L100.4 101.7 Z"/>
<path d="M159.6 101.7 L171.8 75.6 L176.2 75.6 L170.4 101.7 Z"/>
<path d="M115.0 97.0 L145.0 97.0 L145.0 100.4 L115.0 100.4 Z"/>
<path d="M145.3 101.7 L145.2 104.0 L144.5 106.2 L143.6 108.4 L142.4 110.5 L140.8 112.2 L139.0 113.8 L137.0 114.9 L134.8 115.8 L132.4 116.4 L130.0 116.5 L127.6 116.4 L125.2 115.8 L123.0 114.9 L121.0 113.8 L119.2 112.2 L117.6 110.5 L116.4 108.4 L115.5 106.2 L114.8 104.0 L114.7 101.7 L114.8 99.4 L115.5 97.1 L116.4 94.9 L117.6 92.9 L119.2 91.2 L121.0 89.6 L123.0 88.4 L125.2 87.5 L127.6 86.9 L130.0 86.8 L132.4 86.9 L134.8 87.5 L137.0 88.4 L139.0 89.6 L140.8 91.2 L142.4 92.9 L143.6 94.9 L144.5 97.1 L145.2 99.4 Z"/>
</g></svg>