<svg xmlns="http://www.w3.org/2000/svg" viewBox="0 61 260 60"><g id="sil" fill="currentColor">
<path d="M14.0 107.7 L126.5 100.7 L133.5 100.7 L246.0 107.7 L246.0 110.2 L133.5 106.3 L126.5 106.3 L14.0 110.2 Z"/>
<path d="M106.4 103.2 L109.6 103.2 L109.6 112.5 L106.4 112.5 Z"/>
<path d="M101.2 107.0 L114.7 107.0 L114.7 118.0 L101.2 118.0 L102.8 109.5 L113.1 109.5 L113.1 115.6 L102.8 115.6 Z"/>
<path d="M150.4 103.2 L153.6 103.2 L153.6 112.5 L150.4 112.5 Z"/>
<path d="M145.3 107.0 L158.8 107.0 L158.8 118.0 L145.3 118.0 L146.9 109.5 L157.2 109.5 L157.2 115.6 L146.9 115.6 Z"/>
<path d="M82.0 97.8 L83.2 64.1 L88.0 64.1 L94.0 97.8 Z"/>
<path d="M166.0 97.8 L172.0 64.1 L176.8 64.1 L178.0 97.8 Z"/>
<path d="M115.0 92.1 L145.0 92.1 L145.0 96.3 L115.0 96.3 Z"/>
<path d="M145.3 97.8 L145.2 100.7 L144.5 103.5 L143.6 106.2 L142.4 108.7 L140.8 110.8 L139.0 112.8 L137.0 114.2 L134.8 115.3 L132.4 116.0 L130.0 116.2 L127.6 116.0 L125.2 115.3 L123.0 114.2 L121.0 112.8 L119.2 110.8 L117.6 108.7 L116.4 106.2 L115.5 103.5 L114.8 100.7 L114.7 97.8 L114.8 95.0 L115.5 92.2 L116.4 89.5 L117.6 87.0 L119.2 84.9 L121.0 82.9 L123.0 81.5 L125.2 80.4 L127.6 79.7 L130.0 79.5 L132.4 79.7 L134.8 80.4 L137.0 81.5 L139.0 82.9 L140.8 84.9 L142.4 87.0 L143.6 89.5 L144.5 92.2 L145.2 95.0 Z"/>
</g></svg>