<svg xmlns="http://www.w3.org/2000/svg" viewBox="0 44 260 77"><g id="sil" fill="currentColor">
<path d="M14.0 114.2 L127.1 108.2 L132.9 108.2 L246.0 114.2 L246.0 116.1 L132.9 113.0 L127.1 113.0 L14.0 116.1 Z"/>
<path d="M102.2 111.9 L102.2 112.7 L102.0 113.5 L101.7 114.3 L101.3 114.9 L100.7 115.6 L100.1 116.1 L99.4 116.5 L98.7 116.8 L97.9 117.0 L97.0 117.1 L96.2 117.0 L95.4 116.8 L94.7 116.5 L94.0 116.1 L93.4 115.6 L92.8 114.9 L92.4 114.3 L92.1 113.5 L91.9 112.7 L91.8 111.9 L91.9 111.1 L92.1 110.3 L92.4 109.5 L92.8 108.8 L93.4 108.2 L94.0 107.7 L94.7 107.3 L95.4 106.9 L96.2 106.8 L97.0 106.7 L97.9 106.8 L98.7 106.9 L99.4 107.3 L100.1 107.7 L100.7 108.2 L101.3 108.8 L101.7 109.5 L102.0 110.3 L102.2 111.1 Z M101.5 111.9 L101.4 112.9 L101.1 113.8 L100.5 114.7 L99.8 115.4 L99.0 115.9 L98.0 116.3 L97.0 116.4 L96.0 116.3 L95.1 115.9 L94.3 115.4 L93.5 114.7 L93.0 113.8 L92.7 112.9 L92.6 111.9 L92.7 110.9 L93.0 110.0 L93.5 109.1 L94.3 108.4 L95.1 107.9 L96.0 107.5 L97.0 107.4 L98.0 107.5 L99.0 107.9 L99.8 108.4 L100.5 109.1 L101.1 110.0 L101.4 110.9 Z" fill-rule="evenodd"/>
<path d="M99.2 111.9 L99.1 112.6 L98.8 113.2 L98.3 113.7 L97.7 114.0 L97.0 114.1 L96.4 114.0 L95.8 113.7 L95.3 113.2 L95.0 112.6 L94.9 111.9 L95.0 111.2 L95.3 110.6 L95.8 110.1 L96.4 109.8 L97.0 109.7 L97.7 109.8 L98.3 110.1 L98.8 110.6 L99.1 111.2 Z"/>
<path d="M168.2 111.9 L168.1 112.7 L167.9 113.5 L167.6 114.3 L167.2 114.9 L166.6 115.6 L166.0 116.1 L165.3 116.5 L164.6 116.8 L163.8 117.0 L163.0 117.1 L162.1 117.0 L161.3 116.8 L160.6 116.5 L159.9 116.1 L159.3 115.6 L158.7 114.9 L158.3 114.3 L158.0 113.5 L157.8 112.7 L157.8 111.9 L157.8 111.1 L158.0 110.3 L158.3 109.5 L158.7 108.8 L159.3 108.2 L159.9 107.7 L160.6 107.3 L161.3 106.9 L162.1 106.8 L163.0 106.7 L163.8 106.8 L164.6 106.9 L165.3 107.3 L166.0 107.7 L166.6 108.2 L167.2 108.8 L167.6 109.5 L167.9 110.3 L168.1 111.1 Z M167.4 111.9 L167.3 112.9 L167.0 113.8 L166.5 114.7 L165.7 115.4 L164.9 115.9 L164.0 116.3 L163.0 116.4 L162.0 116.3 L161.0 115.9 L160.2 115.4 L159.5 114.7 L158.9 113.8 L158.6 112.9 L158.5 111.9 L158.6 110.9 L158.9 110.0 L159.5 109.1 L160.2 108.4 L161.0 107.9 L162.0 107.5 L163.0 107.4 L164.0 107.5 L164.9 107.9 L165.7 108.4 L166.5 109.1 L167.0 110.0 L167.3 110.9 Z" fill-rule="evenodd"/>
<path d="M165.1 111.9 L165.0 112.6 L164.7 113.2 L164.2 113.7 L163.6 114.0 L163.0 114.1 L162.3 114.0 L161.7 113.7 L161.2 113.2 L160.9 112.6 L160.8 111.9 L160.9 111.2 L161.2 110.6 L161.7 110.1 L162.3 109.8 L163.0 109.7 L163.6 109.8 L164.2 110.1 L164.7 110.6 L165.0 111.2 Z"/>
<path d="M70.0 113.1 L69.9 113.9 L69.8 114.7 L69.5 115.4 L69.1 116.0 L68.6 116.6 L68.0 117.1 L67.3 117.5 L66.6 117.8 L65.9 118.0 L65.1 118.0 L64.3 118.0 L63.6 117.8 L62.9 117.5 L62.2 117.1 L61.6 116.6 L61.1 116.0 L60.7 115.4 L60.4 114.7 L60.3 113.9 L60.2 113.1 L60.3 112.4 L60.4 111.6 L60.7 110.9 L61.1 110.3 L61.6 109.7 L62.2 109.2 L62.9 108.8 L63.6 108.5 L64.3 108.3 L65.1 108.2 L65.9 108.3 L66.6 108.5 L67.3 108.8 L68.0 109.2 L68.6 109.7 L69.1 110.3 L69.5 110.9 L69.8 111.6 L69.9 112.4 Z M69.3 113.1 L69.2 114.1 L68.9 115.0 L68.4 115.8 L67.7 116.4 L66.9 116.9 L66.0 117.3 L65.1 117.4 L64.2 117.3 L63.3 116.9 L62.5 116.4 L61.8 115.8 L61.3 115.0 L61.0 114.1 L60.9 113.1 L61.0 112.2 L61.3 111.3 L61.8 110.5 L62.5 109.9 L63.3 109.3 L64.2 109.0 L65.1 108.9 L66.0 109.0 L66.9 109.3 L67.7 109.9 L68.4 110.5 L68.9 111.3 L69.2 112.2 Z" fill-rule="evenodd"/>
<path d="M67.2 113.1 L67.1 113.8 L66.8 114.4 L66.3 114.8 L65.7 115.1 L65.1 115.2 L64.5 115.1 L63.9 114.8 L63.4 114.4 L63.1 113.8 L63.0 113.1 L63.1 112.5 L63.4 111.9 L63.9 111.5 L64.5 111.2 L65.1 111.1 L65.7 111.2 L66.3 111.5 L66.8 111.9 L67.1 112.5 Z"/>
<path d="M199.8 113.1 L199.7 113.9 L199.6 114.7 L199.3 115.4 L198.9 116.0 L198.4 116.6 L197.8 117.1 L197.1 117.5 L196.4 117.8 L195.7 118.0 L194.9 118.0 L194.1 118.0 L193.4 117.8 L192.7 117.5 L192.0 117.1 L191.4 116.6 L190.9 116.0 L190.5 115.4 L190.2 114.7 L190.1 113.9 L190.0 113.1 L190.1 112.4 L190.2 111.6 L190.5 110.9 L190.9 110.3 L191.4 109.7 L192.0 109.2 L192.7 108.8 L193.4 108.5 L194.1 108.3 L194.9 108.2 L195.7 108.3 L196.4 108.5 L197.1 108.8 L197.8 109.2 L198.4 109.7 L198.9 110.3 L199.3 110.9 L199.6 111.6 L199.7 112.4 Z M199.1 113.1 L199.0 114.1 L198.7 115.0 L198.2 115.8 L197.5 116.4 L196.7 116.9 L195.8 117.3 L194.9 117.4 L194.0 117.3 L193.1 116.9 L192.3 116.4 L191.6 115.8 L191.1 115.0 L190.8 114.1 L190.7 113.1 L190.8 112.2 L191.1 111.3 L191.6 110.5 L192.3 109.9 L193.1 109.3 L194.0 109.0 L194.9 108.9 L195.8 109.0 L196.7 109.3 L197.5 109.9 L198.2 110.5 L198.7 111.3 L199.0 112.2 Z" fill-rule="evenodd"/>
<path d="M197.0 113.1 L196.9 113.8 L196.6 114.4 L196.1 114.8 L195.5 115.1 L194.9 115.2 L194.3 115.1 L193.7 114.8 L193.2 114.4 L192.9 113.8 L192.8 113.1 L192.9 112.5 L193.2 111.9 L193.7 111.5 L194.3 111.2 L194.9 111.1 L195.5 111.2 L196.1 111.5 L196.6 111.9 L196.9 112.5 Z"/>
<path d="M126.8 106.2 L128.7 47.6 L131.3 47.6 L133.2 106.2 Z"/>
<path d="M139.5 106.2 L139.4 107.8 L139.1 109.3 L138.5 110.7 L137.7 112.1 L136.7 113.3 L135.6 114.3 L134.3 115.1 L132.9 115.7 L131.5 116.1 L130.0 116.2 L128.5 116.1 L127.1 115.7 L125.7 115.1 L124.4 114.3 L123.3 113.3 L122.3 112.1 L121.5 110.7 L120.9 109.3 L120.6 107.8 L120.5 106.2 L120.6 104.6 L120.9 103.1 L121.5 101.7 L122.3 100.3 L123.3 99.1 L124.4 98.1 L125.7 97.3 L127.1 96.7 L128.5 96.3 L130.0 96.2 L131.5 96.3 L132.9 96.7 L134.3 97.3 L135.6 98.1 L136.7 99.1 L137.7 100.3 L138.5 101.7 L139.1 103.1 L139.4 104.6 Z M125.0 105.7 L135.0 105.7 L135.0 107.5 L125.0 107.5 Z" fill-rule="evenodd"/>
</g></svg>
