<svg xmlns="http://www.w3.org/2000/svg" viewBox="0 60 260 61"><g id="sil" fill="currentColor">
<path d="M14.0 109.8 L127.8 106.8 L132.2 106.8 L246.0 109.8 L246.0 111.4 L132.2 111.0 L127.8 111.0 L14.0 111.4 Z"/>
<path d="M110.1 108.1 L113.3 108.1 L113.3 114.5 L110.1 114.5 Z"/>
<path d="M105.7 111.1 L117.7 111.1 L117.7 118.0 L105.7 118.0 Z M107.1 112.6 L116.2 112.6 L116.2 116.4 L107.1 116.4 Z" fill-rule="evenodd"/>
<path d="M146.7 108.1 L149.9 108.1 L149.9 114.5 L146.7 114.5 Z"/>
<path d="M142.3 111.1 L154.3 111.1 L154.3 118.0 L142.3 118.0 Z M143.8 112.6 L152.9 112.6 L152.9 116.4 L143.8 116.4 Z" fill-rule="evenodd"/>
<path d="M126.8 105.8 L128.7 63.4 L131.3 63.4 L133.2 105.8 Z"/>
<path d="M137.5 105.8 L137.4 107.0 L137.1 108.2 L136.7 109.4 L136.1 110.5 L135.3 111.4 L134.4 112.2 L133.4 112.9 L132.3 113.3 L131.2 113.6 L130.0 113.7 L128.8 113.6 L127.7 113.3 L126.6 112.9 L125.6 112.2 L124.7 111.4 L123.9 110.5 L123.3 109.4 L122.9 108.2 L122.6 107.0 L122.5 105.8 L122.6 104.6 L122.9 103.4 L123.3 102.2 L123.9 101.1 L124.7 100.2 L125.6 99.4 L126.6 98.7 L127.7 98.3 L128.8 98.0 L130.0 97.9 L131.2 98.0 L132.3 98.3 L133.4 98.7 L134.4 99.4 L135.3 100.2 L136.1 101.1 L136.7 102.2 L137.1 103.4 L137.4 104.6 Z" fill-rule="evenodd"/>
</g></svg>
