<svg xmlns="http://www.w3.org/2000/svg" viewBox="0 59 260 61"><g id="sil" fill="currentColor">
<path d="M14.0 110.5 L126.0 107.5 L134.0 107.5 L246.0 110.5 L246.0 112.1 L134.0 111.1 L126.0 111.1 L14.0 112.1 Z"/>
<path d="M98.7 109.1 L101.9 109.1 L101.9 114.7 L98.7 114.7 Z"/>
<path d="M94.5 111.4 L106.0 111.4 L106.0 118.0 L94.5 118.0 Z M95.9 112.8 L104.6 112.8 L104.6 116.5 L95.9 116.5 Z" fill-rule="evenodd"/>
<path d="M158.1 109.1 L161.3 109.1 L161.3 114.7 L158.1 114.7 Z"/>
<path d="M154.0 111.4 L165.5 111.4 L165.5 118.0 L154.0 118.0 Z M155.4 112.8 L164.1 112.8 L164.1 116.5 L155.4 116.5 Z" fill-rule="evenodd"/>
<path d="M125.5 98.5 L128.2 62 L131.8 62 L134.5 98.5 Z"/>
<path d="M143.3 98.5 L143.1 100.6 L142.6 102.7 L141.8 104.7 L140.8 106.5 L139.4 108.2 L137.8 109.6 L136.0 110.7 L134.1 111.5 L132.1 112.0 L130.0 112.2 L127.9 112.0 L125.9 111.5 L124.0 110.7 L122.2 109.6 L120.6 108.2 L119.2 106.5 L118.2 104.7 L117.4 102.7 L116.9 100.6 L116.7 98.5 L116.9 96.4 L117.4 94.3 L118.2 92.3 L119.2 90.5 L120.6 88.8 L122.2 87.4 L124.0 86.3 L125.9 85.5 L127.9 85.0 L130.0 84.8 L132.1 85.0 L134.1 85.5 L136.0 86.3 L137.8 87.4 L139.4 88.8 L140.8 90.5 L141.8 92.3 L142.6 94.3 L143.1 96.4 Z M123.1 97.9 L136.9 97.9 L136.9 99.7 L123.1 99.7 Z" fill-rule="evenodd"/>
</g></svg>
