<svg xmlns="http://www.w3.org/2000/svg" viewBox="0 52 260 69"><g id="sil" fill="currentColor">
<path d="M14.0 103.6 L127.1 111.6 L132.9 111.6 L246.0 103.6 L246.0 105.4 L132.9 116.0 L127.1 116.0 L14.0 105.4 Z"/>
<path d="M120.4 104.0 L120.3 104.5 L120.2 105.1 L120.0 105.6 L119.7 106.1 L119.3 106.6 L118.9 106.9 L118.4 107.3 L117.8 107.5 L117.3 107.6 L116.7 107.7 L116.1 107.6 L115.6 107.5 L115.0 107.3 L114.5 106.9 L114.1 106.6 L113.7 106.1 L113.4 105.6 L113.2 105.1 L113.0 104.5 L113.0 104.0 L113.0 103.4 L113.2 102.8 L113.4 102.3 L113.7 101.8 L114.1 101.3 L114.5 101.0 L115.0 100.7 L115.6 100.4 L116.1 100.3 L116.7 100.3 L117.3 100.3 L117.8 100.4 L118.4 100.7 L118.9 101.0 L119.3 101.3 L119.7 101.8 L120.0 102.3 L120.2 102.8 L120.3 103.4 Z M118.6 104.0 L118.5 104.5 L118.3 105.0 L118.0 105.4 L117.5 105.7 L117.0 105.9 L116.4 105.9 L115.9 105.7 L115.4 105.4 L115.1 105.0 L114.8 104.5 L114.8 104.0 L114.8 103.4 L115.1 102.9 L115.4 102.5 L115.9 102.2 L116.4 102.1 L117.0 102.1 L117.5 102.2 L118.0 102.5 L118.3 102.9 L118.5 103.4 Z" fill-rule="evenodd"/>
<path d="M113.2 104.0 L113.1 104.5 L113.0 105.1 L112.8 105.6 L112.5 106.1 L112.1 106.6 L111.7 106.9 L111.2 107.3 L110.6 107.5 L110.1 107.6 L109.5 107.7 L108.9 107.6 L108.3 107.5 L107.8 107.3 L107.3 106.9 L106.9 106.6 L106.5 106.1 L106.2 105.6 L106.0 105.1 L105.8 104.5 L105.8 104.0 L105.8 103.4 L106.0 102.8 L106.2 102.3 L106.5 101.8 L106.9 101.3 L107.3 101.0 L107.8 100.7 L108.3 100.4 L108.9 100.3 L109.5 100.3 L110.1 100.3 L110.6 100.4 L111.2 100.7 L111.7 101.0 L112.1 101.3 L112.5 101.8 L112.8 102.3 L113.0 102.8 L113.1 103.4 Z M111.4 104.0 L111.3 104.5 L111.1 105.0 L110.7 105.4 L110.3 105.7 L109.8 105.9 L109.2 105.9 L108.7 105.7 L108.2 105.4 L107.9 105.0 L107.6 104.5 L107.6 104.0 L107.6 103.4 L107.9 102.9 L108.2 102.5 L108.7 102.2 L109.2 102.1 L109.8 102.1 L110.3 102.2 L110.7 102.5 L111.1 102.9 L111.3 103.4 Z" fill-rule="evenodd"/>
<path d="M147.0 104.0 L147.0 104.5 L146.8 105.1 L146.6 105.6 L146.3 106.1 L145.9 106.6 L145.5 106.9 L145.0 107.3 L144.4 107.5 L143.9 107.6 L143.3 107.7 L142.7 107.6 L142.2 107.5 L141.6 107.3 L141.1 106.9 L140.7 106.6 L140.3 106.1 L140.0 105.6 L139.8 105.1 L139.7 104.5 L139.6 104.0 L139.7 103.4 L139.8 102.8 L140.0 102.3 L140.3 101.8 L140.7 101.3 L141.1 101.0 L141.6 100.7 L142.2 100.4 L142.7 100.3 L143.3 100.3 L143.9 100.3 L144.4 100.4 L145.0 100.7 L145.5 101.0 L145.9 101.3 L146.3 101.8 L146.6 102.3 L146.8 102.8 L147.0 103.4 Z M145.2 104.0 L145.2 104.5 L144.9 105.0 L144.6 105.4 L144.1 105.7 L143.6 105.9 L143.0 105.9 L142.5 105.7 L142.0 105.4 L141.7 105.0 L141.5 104.5 L141.4 104.0 L141.5 103.4 L141.7 102.9 L142.0 102.5 L142.5 102.2 L143.0 102.1 L143.6 102.1 L144.1 102.2 L144.6 102.5 L144.9 102.9 L145.2 103.4 Z" fill-rule="evenodd"/>
<path d="M154.2 104.0 L154.2 104.5 L154.0 105.1 L153.8 105.6 L153.5 106.1 L153.1 106.6 L152.7 106.9 L152.2 107.3 L151.7 107.5 L151.1 107.6 L150.5 107.7 L149.9 107.6 L149.4 107.5 L148.8 107.3 L148.3 106.9 L147.9 106.6 L147.5 106.1 L147.2 105.6 L147.0 105.1 L146.9 104.5 L146.8 104.0 L146.9 103.4 L147.0 102.8 L147.2 102.3 L147.5 101.8 L147.9 101.3 L148.3 101.0 L148.8 100.7 L149.4 100.4 L149.9 100.3 L150.5 100.3 L151.1 100.3 L151.7 100.4 L152.2 100.7 L152.7 101.0 L153.1 101.3 L153.5 101.8 L153.8 102.3 L154.0 102.8 L154.2 103.4 Z M152.4 104.0 L152.4 104.5 L152.1 105.0 L151.8 105.4 L151.3 105.7 L150.8 105.9 L150.2 105.9 L149.7 105.7 L149.3 105.4 L148.9 105.0 L148.7 104.5 L148.6 104.0 L148.7 103.4 L148.9 102.9 L149.3 102.5 L149.7 102.2 L150.2 102.1 L150.8 102.1 L151.3 102.2 L151.8 102.5 L152.1 102.9 L152.4 103.4 Z" fill-rule="evenodd"/>
<path d="M126.8 107.6 L128.7 55.3 L131.3 55.3 L133.2 107.6 Z"/>
<path d="M114.0 55.3 L146.0 55.3 L146.0 58.3 L114.0 58.3 Z"/>
<path d="M139.8 107.6 L139.7 109.2 L139.3 110.8 L138.7 112.3 L137.9 113.7 L136.9 115.0 L135.8 116.0 L134.4 116.9 L133.0 117.5 L131.5 117.9 L130.0 118.0 L128.5 117.9 L127.0 117.5 L125.6 116.9 L124.2 116.0 L123.1 115.0 L122.1 113.7 L121.3 112.3 L120.7 110.8 L120.3 109.2 L120.2 107.6 L120.3 106.0 L120.7 104.4 L121.3 102.9 L122.1 101.5 L123.1 100.2 L124.2 99.2 L125.6 98.3 L127.0 97.7 L128.5 97.3 L130.0 97.2 L131.5 97.3 L133.0 97.7 L134.4 98.3 L135.8 99.2 L136.9 100.2 L137.9 101.5 L138.7 102.9 L139.3 104.4 L139.7 106.0 Z M124.9 107.1 L135.1 107.1 L135.1 108.9 L124.9 108.9 Z" fill-rule="evenodd"/>
</g></svg>
